<svg width="163" height="60" viewBox="0 0 163 60" fill="none" xmlns="http://www.w3.org/2000/svg">
<g clip-path="url(#clip0_105_114)">
<path d="M50.4957 0H9.94593C4.5851 0 0.220825 4.36424 0.220825 9.72506V50.2749C0.220825 55.6357 4.5851 60 9.94593 60H50.4957C55.8565 60 60.2208 55.6357 60.2208 50.2749V9.72506C60.2208 4.32987 55.8909 0 50.4957 0Z" fill="#35176D"/>
<path d="M21.4583 10.3452H13.5889V49.761H21.4583V10.3452Z" fill="white"/>
<path d="M33.4494 26.3576C37.9094 26.3576 41.525 22.742 41.525 18.282C41.525 13.822 37.9094 10.2064 33.4494 10.2064C28.9893 10.2064 25.3738 13.822 25.3738 18.282C25.3738 22.742 28.9893 26.3576 33.4494 26.3576Z" fill="#FFC20E"/>
<path d="M39.1539 49.7251C44.5439 49.7251 48.9135 45.3556 48.9135 39.9656C48.9135 34.5756 44.5439 30.2062 39.1539 30.2062C33.764 30.2062 29.3945 34.5756 29.3945 39.9656C29.3945 45.3556 33.764 49.7251 39.1539 49.7251Z" fill="#93D9B9"/>
<g clip-path="url(#clip1_105_114)">
<path d="M78.2208 12.9453H89.7839C91.9327 12.9453 93.7406 13.2182 95.1732 13.7639C96.6399 14.3097 97.7996 15.026 98.6864 15.9128C99.5733 16.7997 100.221 17.8229 100.597 18.9485C100.972 20.0742 101.176 21.2339 101.176 22.4277C101.176 23.1781 101.108 23.8944 100.938 24.6107C100.767 25.3611 100.426 26.0774 100.017 26.7596C99.6074 27.4077 99.0957 27.9534 98.6864 28.6015C98.6864 28.6015 99.3686 28.8744 100.869 29.4883C101.927 30 102.677 30.4775 103.359 31.0915C104.042 31.7054 104.621 32.3535 105.065 33.0698C105.508 33.7861 105.815 34.5365 106.02 35.3551C106.225 36.1738 106.327 36.9583 106.327 37.7428C106.327 38.9707 106.122 40.2328 105.713 41.4607C105.304 42.6887 104.621 43.8143 103.666 44.8376C102.711 45.8267 101.483 46.6453 99.9826 47.2593C98.4818 47.8733 96.6058 48.1803 94.4228 48.1803H78.2549L78.2208 12.9453ZM94.6956 41.87C95.6166 41.87 96.367 41.7336 96.981 41.4948C97.5949 41.2561 98.0724 40.915 98.4135 40.5398C98.7546 40.1305 99.0275 39.7212 99.1639 39.2095C99.3004 38.732 99.4027 38.2203 99.4027 37.7769C99.4027 37.1971 99.3345 36.6513 99.1298 36.1055C98.9593 35.5598 98.6523 35.0823 98.1748 34.6389C97.7314 34.1954 97.0833 33.8543 96.2988 33.6156C95.5143 33.3427 94.491 33.2063 93.263 33.2063H84.9745V41.9041L94.6956 41.87ZM88.9311 26.8278C90.7389 26.8278 92.0692 26.4867 92.956 25.7704C93.8429 25.0882 94.2863 24.1673 94.2863 23.0417C94.2863 22.5983 94.2181 22.1548 94.1158 21.7114C94.0134 21.268 93.7747 20.8587 93.4677 20.5176C93.1607 20.1424 92.7173 19.8695 92.1374 19.6307C91.5576 19.392 90.8072 19.2896 89.8862 19.2896H85.0427V26.7937L88.9311 26.8278Z" fill="#35176D"/>
<path d="M116.181 19.4602C115.67 19.4602 115.158 19.3579 114.68 19.1532C114.203 18.9486 113.794 18.6757 113.453 18.3346C113.111 17.9935 112.839 17.5842 112.634 17.1067C112.429 16.6291 112.327 16.1516 112.327 15.6058C112.327 15.0942 112.429 14.5826 112.634 14.1391C112.839 13.6957 113.111 13.2864 113.453 12.9453C113.794 12.6042 114.203 12.3313 114.68 12.1267C115.158 11.922 115.636 11.8197 116.181 11.8197C116.693 11.8197 117.205 11.922 117.682 12.1267C118.16 12.3313 118.569 12.6042 118.91 12.9453C119.251 13.2864 119.524 13.6957 119.729 14.1391C119.933 14.5826 120.036 15.0942 120.036 15.6058C120.036 16.1175 119.933 16.6291 119.729 17.1067C119.524 17.5842 119.251 17.9935 118.91 18.3346C118.569 18.6757 118.16 18.9486 117.682 19.1532C117.17 19.3579 116.693 19.4602 116.181 19.4602ZM112.873 48.1803L112.907 22.4618H119.456L119.422 48.1803H112.873Z" fill="#35176D"/>
<path d="M156.291 48.1803V33.0357C156.291 31.9442 156.154 31.0915 155.915 30.4434C155.643 29.7953 155.336 29.3178 154.926 28.9426C154.517 28.6015 154.108 28.3627 153.63 28.2945C153.153 28.1922 152.709 28.1581 152.266 28.1581C151.788 28.1581 151.277 28.2263 150.731 28.3286C150.185 28.4309 149.708 28.6697 149.264 28.9767C148.821 29.3178 148.48 29.7953 148.173 30.4434C147.9 31.0915 147.729 31.9442 147.729 33.0016V48.1803H141.18V33.0357C141.18 31.9442 141.044 31.0915 140.805 30.4434C140.532 29.7953 140.225 29.3178 139.816 28.9426C139.406 28.6015 138.997 28.3627 138.486 28.2945C138.008 28.1922 137.53 28.1581 137.087 28.1581C136.61 28.1581 136.098 28.2263 135.586 28.3286C135.075 28.4309 134.563 28.6697 134.12 28.9767C133.676 29.3178 133.301 29.7953 133.028 30.4434C132.755 31.0915 132.585 31.9442 132.585 33.0016V48.1803H126.036L126.07 22.4618H132.619V24.8495C133.301 23.9285 134.154 23.2122 135.143 22.6665C136.132 22.1207 137.326 21.882 138.69 21.882C140.327 21.882 141.658 22.1889 142.749 22.8029C143.841 23.4169 144.659 24.3037 145.273 25.4975C146.194 24.2355 147.354 23.3146 148.718 22.7347C150.083 22.1548 151.584 21.882 153.153 21.882C154.517 21.882 155.779 22.0525 156.973 22.3936C158.167 22.7347 159.156 23.2804 160.043 24.0649C160.895 24.8495 161.578 25.9069 162.055 27.203C162.533 28.4992 162.806 30.1364 162.771 32.0465V48.1803H156.291Z" fill="#35176D"/>
</g>
</g>
<defs>
<clipPath id="clip0_105_114">
<rect width="162.553" height="60" fill="white" transform="translate(0.220825)"/>
</clipPath>
<clipPath id="clip1_105_114">
<rect width="84.5534" height="36.3606" fill="white" transform="translate(78.2208 11.8197)"/>
</clipPath>
</defs>
</svg>
