<svg width="88" height="94" viewBox="0 0 88 94" fill="none" xmlns="http://www.w3.org/2000/svg">
<g clip-path="url(#clip0_120_171)">
<path d="M86.262 77.4345C87.0209 77.4345 87.6328 76.8273 87.6328 76.0743V66.3829C87.6328 64.634 86.1886 63.201 84.4262 63.201H82.9085V43.3808C85.136 42.142 86.6292 39.786 86.6292 37.0898V28.7586C86.6292 28.71 86.6292 28.6857 86.6292 28.6371C86.6292 28.6371 86.6292 28.6371 86.6292 28.6128L84.0345 2.91465C83.8876 1.45728 82.6637 0.364258 81.2195 0.364258H6.80502C5.33631 0.364258 4.13687 1.45728 3.99 2.91465L2.44786 17.9498C2.37442 18.7028 2.91295 19.3829 3.67178 19.4557C4.43061 19.5286 5.09153 18.9942 5.18944 18.2413L6.7071 3.20612C6.7071 3.15754 6.75606 3.13325 6.78054 3.13325H81.195C81.244 3.13325 81.2684 3.15754 81.2929 3.20612L83.7408 27.3741C83.2267 27.3741 5.11601 27.3741 4.25926 27.3741L4.553 24.5808C4.62644 23.8278 4.08791 23.172 3.32908 23.0749C2.57025 23.002 1.90933 23.5364 1.81142 24.2893L1.3708 28.5643C1.3708 28.5643 1.3708 28.5643 1.3708 28.5885C1.3708 28.6371 1.3708 28.6614 1.3708 28.71V37.0413C1.3708 40.296 3.54939 43.0407 6.51128 43.9395V63.1767H3.57386C1.81142 63.1767 0.367188 64.6097 0.367188 66.3586V90.4294C0.367188 92.1782 1.81142 93.6113 3.57386 93.6113H84.4262C86.1886 93.6113 87.6328 92.1782 87.6328 90.4294V82.4139C87.6328 81.6609 87.0209 81.0537 86.262 81.0537C85.5032 81.0537 84.8913 81.6609 84.8913 82.4139V90.4294C84.8913 90.6723 84.6954 90.8909 84.4262 90.8909H3.57386C3.32908 90.8909 3.10877 90.6966 3.10877 90.4294V66.3586C3.10877 66.1157 3.3046 65.8971 3.57386 65.8971H84.4262C84.6709 65.8971 84.8913 66.0914 84.8913 66.3586V76.05C84.8913 76.8273 85.5032 77.4345 86.262 77.4345ZM83.8876 30.0702V37.0413C83.8876 39.5188 81.8315 41.5348 79.3591 41.5348C76.8623 41.5348 74.8306 39.5188 74.8306 37.0413V30.0702H83.8876ZM15.6173 42.4578C16.8901 43.5751 18.5791 44.2552 20.415 44.2552C22.8384 44.2552 24.9925 43.065 26.3143 41.2676C27.6362 43.0893 29.7903 44.2552 32.2136 44.2552C34.637 44.2552 36.7911 43.065 38.1129 41.2676C39.4348 43.0893 41.5889 44.2552 44.0123 44.2552C46.4356 44.2552 48.5897 43.065 49.9116 41.2676C51.2334 43.0893 53.3875 44.2552 55.8109 44.2552C58.2342 44.2552 60.3883 43.065 61.7102 41.2676C63.032 43.0893 65.1861 44.2552 67.6095 44.2552C70.0328 44.2552 72.1869 43.065 73.5088 41.2676C73.6067 41.4134 73.7046 41.5348 73.827 41.6805V63.201H15.6173V42.4578ZM72.089 37.0413C72.089 39.5188 70.0573 41.5348 67.5605 41.5348C65.0637 41.5348 63.032 39.5188 63.032 37.0413V30.0702H72.0645V37.0413H72.089ZM60.3149 37.0413C60.3149 39.5188 58.2832 41.5348 55.7864 41.5348C53.2896 41.5348 51.2579 39.5188 51.2579 37.0413V30.0702H60.2904V37.0413H60.3149ZM48.5163 37.0413C48.5163 39.5188 46.4846 41.5348 43.9878 41.5348C41.491 41.5348 39.4593 39.5188 39.4593 37.0413V30.0702H48.4918L48.5163 37.0413ZM36.7422 37.0413C36.7422 39.5188 34.7104 41.5348 32.2136 41.5348C29.7168 41.5348 27.6851 39.5188 27.6851 37.0413V30.0702H36.7177V37.0413H36.7422ZM24.9435 37.0413C24.9435 39.5188 22.9118 41.5348 20.415 41.5348C17.9182 41.5348 15.8865 39.5188 15.8865 37.0413V30.0702H24.9191V37.0413H24.9435ZM4.11239 37.0413V30.0702H13.1449V37.0413C13.1449 39.6645 10.8929 41.6805 8.34716 41.5105C8.34716 41.5105 8.34716 41.5105 8.32268 41.5105C5.94827 41.3648 4.11239 39.3973 4.11239 37.0413ZM9.25286 63.1767V44.2309C10.4523 44.1338 11.7497 43.6966 12.8512 42.9193V63.1767H9.25286ZM76.5441 63.1767V43.6966C77.6701 44.1823 78.943 44.3524 80.1669 44.2066V63.1767H76.5441Z" fill="#1D0C3B" stroke="#1D0C3B" stroke-width="3" stroke-miterlimit="10"/>
<path d="M12.3861 72.2852C10.8195 72.2852 9.54663 73.5482 9.54663 75.1027V81.6851C9.54663 83.2397 10.8195 84.5027 12.3861 84.5027H75.6139C77.1806 84.5027 78.4534 83.2397 78.4534 81.6851V75.1027C78.4534 73.5482 77.1806 72.2852 75.6139 72.2852H12.3861ZM75.7119 75.1027V81.6851C75.7119 81.7337 75.6629 81.7823 75.6139 81.7823H12.3861C12.3372 81.7823 12.2882 81.7337 12.2882 81.6851V75.1027C12.2882 75.0541 12.3372 75.0056 12.3861 75.0056H75.6139C75.6629 75.0299 75.7119 75.0541 75.7119 75.1027Z" fill="#1D0C3B" stroke="#1D0C3B" stroke-miterlimit="10"/>
</g>
<defs>
<clipPath id="clip0_120_171">
<rect width="88" height="94" fill="white"/>
</clipPath>
</defs>
</svg>
