<svg width="105" height="105" viewBox="0 0 105 105" fill="none" xmlns="http://www.w3.org/2000/svg">
<g clip-path="url(#clip0_120_179)">
<path d="M102.293 34.125L70.875 2.70703C67.2656 -0.902344 61.4141 -0.902344 57.832 2.70703L18.4297 42.1094H9.24219C4.12891 42.1094 0 46.2656 0 51.3516V95.7852C0 100.871 4.12891 105 9.24219 105H79.9258C85.0117 105 89.168 100.871 89.168 95.7578V60.3203L102.348 47.1406C105.902 43.5586 105.902 37.707 102.293 34.125ZM62.1797 7.05469C62.7812 6.45312 63.5742 6.15234 64.3672 6.15234C65.1602 6.15234 65.9531 6.45312 66.5547 7.05469L82.7148 23.2422L63.8477 42.1094H27.125L62.1797 7.05469ZM82.9883 95.7578C82.9883 97.4531 81.6211 98.8477 79.8984 98.8477H9.24219C7.54688 98.8477 6.15234 97.4805 6.15234 95.7578V51.3516C6.15234 49.6562 7.51953 48.2617 9.24219 48.2617H79.9258C81.6211 48.2617 83.0156 49.6289 83.0156 51.3516V95.7578H82.9883ZM81.1562 42.1914C80.7461 42.1367 80.3359 42.1094 79.8984 42.1094H72.543L87.0625 27.5898L91.4102 31.9375L81.1562 42.1914ZM97.9453 42.8203L89.1406 51.625V51.3516C89.1406 49.0273 88.2656 46.8672 86.8164 45.2539L95.7852 36.2852L97.9727 38.4727C99.1484 39.6758 99.1484 41.6172 97.9453 42.8203Z" fill="#1D0C3B"/>
<path d="M23.7617 83.3711H12.3047V89.5234H23.7617V83.3711Z" fill="#1D0C3B"/>
<path d="M41.4531 83.3711H29.9961V89.5234H41.4531V83.3711Z" fill="#1D0C3B"/>
<path d="M59.1445 83.3711H47.6875V89.5234H59.1445V83.3711Z" fill="#1D0C3B"/>
<path d="M76.8359 83.3711H65.3789V89.5234H76.8359V83.3711Z" fill="#1D0C3B"/>
<path d="M33.0859 57.5859H12.3047V76.043H33.0859V57.5859ZM26.9336 69.8906H18.457V63.7383H26.9062V69.8906H26.9336Z" fill="#1D0C3B"/>
</g>
<defs>
<clipPath id="clip0_120_179">
<rect width="105" height="105" fill="white"/>
</clipPath>
</defs>
</svg>
