<svg width="75" height="86" viewBox="0 0 75 86" fill="none" xmlns="http://www.w3.org/2000/svg">
<g clip-path="url(#clip0_120_163)">
<path d="M69.2752 33.9073L41.0503 5.41982C38.1213 2.46357 33.3728 2.46357 30.466 5.41982C27.8477 8.06253 27.6258 12.1162 29.5562 14.9828L29.5119 15.1844C27.4704 25.4641 22.5222 34.8032 15.1775 42.2162L2.21896 55.2953C-0.710032 58.2516 -0.710032 63.0219 2.21896 65.9782L9.27518 73.1C12.2042 76.0563 16.9305 76.0563 19.8595 73.1L21.6346 71.3084L33.9941 83.7829C36.9231 86.7391 41.6494 86.7391 44.5784 83.7829C47.5074 80.8266 47.5074 76.0339 44.5784 73.1L39.2752 67.7474L41.0503 65.9558C43.9793 62.9995 43.9793 58.2292 41.0503 55.273L39.8521 54.0636C45.7545 49.8979 52.4557 46.9865 59.6006 45.5532L59.8003 45.5084C62.7293 47.5016 66.7234 47.1881 69.2752 44.5901C72.2042 41.6563 72.2042 36.8636 69.2752 33.9073ZM16.3314 69.5391C15.3551 70.5245 13.7796 70.5245 12.8033 69.5391L5.74707 62.4172C4.77074 61.4318 4.77074 59.8417 5.74707 58.8563L18.1065 46.3818L28.6909 57.0646C27.4926 58.2964 17.574 68.2849 16.3314 69.5391ZM41.0503 76.661C42.0267 77.6464 42.0267 79.2365 41.0503 80.2219C40.074 81.2073 38.4986 81.2073 37.5222 80.2219L25.1628 67.7474L28.6909 64.1865L41.0503 76.661ZM32.219 60.6256C32.9734 59.8641 34.0829 58.6995 35.858 57.1766L37.5 58.8339C38.4764 59.8193 38.4764 61.4094 37.5 62.3948L35.7249 64.1865L32.219 60.6256ZM32.3299 53.6157L21.5237 42.7089C27.3151 35.9677 31.4645 27.9948 33.6835 19.35L55.4734 41.3427C46.9083 43.5823 39.0089 47.7703 32.3299 53.6157ZM65.7471 41.0292C64.7707 42.0146 63.1953 42.0146 62.219 41.0292L33.9941 12.5417C33.0178 11.5563 33.0178 9.96618 33.9941 8.98076C34.9704 7.99534 36.5459 7.99534 37.5222 8.98076L65.7471 37.4683C66.7234 38.4537 66.7234 40.0662 65.7471 41.0292Z" fill="#1D0C3B"/>
<path d="M19.8817 55.2952C18.9054 54.3098 17.3299 54.3098 16.3536 55.2952L12.8255 58.8562C11.8492 59.8416 11.8492 61.4317 12.8255 62.4171C13.8018 63.4025 15.3773 63.4025 16.3536 62.4171L19.8817 58.8562C20.8359 57.8707 20.8359 56.2806 19.8817 55.2952Z" fill="#1D0C3B"/>
<path d="M52.5001 0C51.1244 0 50.0149 1.11979 50.0149 2.50833V7.5474C50.0149 8.93594 51.1244 10.0557 52.5001 10.0557C53.8759 10.0557 55.0075 8.93594 55.0075 7.5474V2.50833C55.0075 1.11979 53.898 0 52.5001 0Z" fill="#1D0C3B"/>
<path d="M72.4705 20.1562H67.4779C66.1021 20.1562 64.9705 21.276 64.9705 22.687C64.9705 24.0755 66.0799 25.1953 67.4779 25.1953H72.4705C73.8462 25.1953 74.9557 24.0755 74.9557 22.687C74.9779 21.276 73.8462 20.1562 72.4705 20.1562Z" fill="#1D0C3B"/>
<path d="M69.2529 5.77813C68.2766 4.79271 66.7012 4.79271 65.7248 5.77813L60.7322 10.8172C59.7559 11.8026 59.7559 13.3927 60.7322 14.3781C61.7086 15.3635 63.284 15.3635 64.2603 14.3781L69.2529 9.33906C70.2293 8.35365 70.2293 6.76354 69.2529 5.77813Z" fill="#1D0C3B"/>
</g>
<defs>
<clipPath id="clip0_120_163">
<rect width="75" height="86" fill="white"/>
</clipPath>
</defs>
</svg>
