<svg width="96" height="90" viewBox="0 0 96 90" fill="none" xmlns="http://www.w3.org/2000/svg">
<g clip-path="url(#clip0_120_188)">
<path d="M90 23.9179H71.025C72.3937 22.9792 73.5563 22.0593 74.3813 21.2333C79.2188 16.3522 79.2188 8.4298 74.3813 3.56747C69.675 -1.16344 61.4812 -1.16344 56.775 3.56747C54.1687 6.17698 47.2688 16.8215 48.225 23.9179H47.7937C48.75 16.8028 41.85 6.17698 39.2438 3.56747C34.5375 -1.16344 26.3438 -1.16344 21.6375 3.56747C16.8 8.44857 16.8 16.371 21.6375 21.2333C22.4625 22.0593 23.625 22.9792 24.9938 23.9179H6C2.7 23.9179 0 26.6213 0 29.9254V44.9442C0 46.5963 1.35 47.9479 3 47.9479H6V83.993C6 87.2971 8.7 90.0005 12 90.0005H84C87.3 90.0005 90 87.2971 90 83.993V47.9479H93C94.65 47.9479 96 46.5963 96 44.9442V29.9254C96 26.6025 93.3 23.9179 90 23.9179ZM54.3562 23.7114C52.9688 22.2658 56.9813 11.8653 61.0312 7.7915C63.4688 5.35095 67.6875 5.35095 70.125 7.7915C72.6375 10.3259 72.6375 14.4561 70.125 16.9905C67.5375 19.6 59.625 23.9179 55.4812 23.9179C54.6 23.9179 54.3562 23.7114 54.3562 23.7114ZM25.8938 16.9905C23.3813 14.4561 23.3813 10.3259 25.8938 7.7915C27.1125 6.57123 28.725 5.89538 30.45 5.89538C32.1562 5.89538 33.7688 6.57123 34.9875 7.7915C39.0375 11.8653 43.05 22.2658 41.6625 23.7114C41.6625 23.7114 41.4188 23.9179 40.5563 23.9179C36.3937 23.9179 28.4813 19.6 25.8938 16.9905ZM6 29.9254H40.5375H45V41.9404H6V29.9254ZM12 47.9479H45V83.993H12V47.9479ZM84 83.993H51V47.9479H84V83.993ZM90 41.9404H51V29.9254H55.4625H90V41.9404Z" fill="#1D0C3B"/>
</g>
<defs>
<clipPath id="clip0_120_188">
<rect width="96" height="90" fill="white"/>
</clipPath>
</defs>
</svg>
