<svg width="741" height="612" viewBox="0 0 741 612" fill="none" xmlns="http://www.w3.org/2000/svg">
<rect width="648" height="612" rx="17.1254" transform="matrix(-1 0 0 1 707 0)" fill="white"/>
<path d="M84.587 196.913C202.75 58.7483 366.539 -26.4579 558.102 101.032C749.664 228.521 767.081 277.063 716.563 418.326C666.045 559.59 351.332 564.196 154.753 491.381C-41.8267 418.567 -33.5763 335.077 84.587 196.913Z" fill="#FFF6DB"/>
<path d="M335.609 564.799L508.076 563.992C518.037 563.945 527.572 559.893 534.584 552.728C541.597 545.564 545.513 535.872 545.473 525.784L543.646 87.8873C543.625 82.8898 542.632 77.9456 540.723 73.3369C538.815 68.7282 536.029 64.5454 532.525 61.0271C529.02 57.5089 524.866 54.7242 520.298 52.832C515.731 50.9398 510.841 49.9772 505.906 49.9992L333.439 50.8059C323.478 50.8538 313.944 54.9053 306.931 62.0699C299.919 69.2345 296.002 78.9259 296.043 89.0139L297.869 526.911C297.891 531.909 298.884 536.853 300.792 541.461C302.701 546.07 305.487 550.253 308.991 553.771C312.496 557.29 316.65 560.074 321.217 561.966C325.784 563.859 330.675 564.821 335.609 564.799V564.799Z" fill="#35176D"/>
<path d="M334.637 65.6686L368.078 65.5157C369.171 65.5264 370.251 65.7571 371.255 66.1944C372.259 66.6317 373.166 67.2669 373.926 68.063C374.685 68.859 375.28 69.8001 375.677 70.8313C376.073 71.8625 376.264 72.9634 376.236 74.0697V80.2175C376.209 81.3239 376.399 82.4247 376.796 83.4559C377.192 84.4872 377.788 85.4282 378.547 86.2242C379.306 87.0203 380.214 87.6554 381.218 88.0928C382.222 88.5301 383.301 88.7608 384.394 88.7715L449.56 88.4655C450.654 88.4459 451.734 88.2058 452.735 87.7592C453.736 87.3126 454.64 86.6685 455.393 85.8645C456.146 85.0604 456.733 84.1125 457.121 83.0761C457.508 82.0397 457.688 80.9355 457.649 79.828V73.6942C457.594 71.4632 458.414 69.301 459.931 67.6818C461.447 66.0626 463.536 65.1185 465.738 65.0566H477.494L506.761 64.9176C513.741 64.888 520.447 67.667 525.405 72.6435C530.362 77.6201 533.165 84.3868 533.198 91.456L534.984 518.768C535.002 522.27 534.339 525.741 533.032 528.983C531.726 532.225 529.802 535.174 527.37 537.663C524.938 540.152 522.045 542.131 518.858 543.488C515.671 544.845 512.251 545.553 508.793 545.571L336.67 546.378C333.213 546.394 329.787 545.721 326.587 544.396C323.388 543.071 320.477 541.12 318.022 538.656C315.567 536.191 313.615 533.261 312.279 530.033C310.942 526.804 310.247 523.34 310.232 519.839L308.461 92.4296C308.444 88.9317 309.109 85.4648 310.415 82.2269C311.722 78.989 313.646 76.0435 316.076 73.5585C318.507 71.0735 321.397 69.0978 324.582 67.744C327.766 66.3903 331.183 65.685 334.637 65.6686Z" fill="white"/>
<rect x="323.529" y="460.059" width="194.202" height="60.3947" rx="8.56269" fill="#FFF6DB"/>
<rect x="323.529" y="386.621" width="194.202" height="60.3947" rx="8.56269" fill="#FFF6DB"/>
<rect x="323.529" y="313.182" width="59.4496" height="60.3947" rx="8.56269" fill="#FFF6DB"/>
<path d="M390.906 321.745C390.906 317.016 394.739 313.182 399.468 313.182H441.793C446.522 313.182 450.355 317.016 450.355 321.745V365.014C450.355 369.743 446.522 373.577 441.792 373.577H399.468C394.739 373.577 390.906 369.743 390.906 365.014V321.745Z" fill="#FFF6DB"/>
<rect x="458.282" y="313.182" width="59.4496" height="60.3947" rx="8.56269" fill="#FFF6DB"/>
<path d="M308.651 147.288H533.395L533.647 207.732C530.112 206.151 526.861 203.907 524.077 201.079C518.173 195.081 514.856 186.947 514.856 178.465C514.856 186.947 511.54 195.081 505.636 201.079C499.732 207.076 491.725 210.446 483.375 210.446C475.026 210.446 467.019 207.076 461.115 201.079C455.211 195.081 451.895 186.947 451.895 178.465C451.895 186.947 448.578 195.081 442.674 201.079C436.77 207.076 428.763 210.446 420.414 210.446C412.064 210.446 404.057 207.076 398.153 201.079C392.25 195.081 388.933 186.947 388.933 178.465C388.933 186.947 385.616 195.081 379.712 201.079C373.809 207.076 365.801 210.446 357.452 210.446C349.103 210.446 341.096 207.076 335.192 201.079C329.288 195.081 325.971 186.947 325.971 178.465C325.971 186.129 323.261 193.538 318.335 199.344C315.675 202.478 312.464 205.033 308.898 206.898L308.651 147.288Z" fill="#FFF6DB"/>
<path d="M263.747 127.672H326.708V158.849C326.708 167.331 323.391 175.466 317.487 181.463C311.584 187.461 303.577 190.83 295.228 190.83V190.83C286.878 190.83 278.871 187.461 272.968 181.463C267.064 175.466 263.747 167.331 263.747 158.849V127.672Z" fill="#CC9B0B"/>
<path d="M326.709 127.672H389.669V158.849C389.669 167.331 386.353 175.466 380.449 181.463C374.545 187.461 366.538 190.83 358.189 190.83V190.83C349.84 190.83 341.833 187.461 335.929 181.463C330.025 175.466 326.709 167.331 326.709 158.849V127.672Z" fill="#FFC20E"/>
<path d="M389.669 127.672H452.63V158.849C452.63 167.331 449.313 175.466 443.409 181.463C437.505 187.461 429.498 190.83 421.149 190.83V190.83C412.8 190.83 404.793 187.461 398.889 181.463C392.986 175.466 389.669 167.331 389.669 158.849V127.672Z" fill="#CC9B0B"/>
<path d="M452.629 127.672H515.59V158.849C515.59 167.331 512.273 175.466 506.369 181.463C500.466 187.461 492.459 190.83 484.11 190.83V190.83C475.76 190.83 467.753 187.461 461.85 181.463C455.946 175.466 452.629 167.331 452.629 158.849V127.672Z" fill="#FFC20E"/>
<path d="M515.59 127.672H578.55V158.849C578.55 167.331 575.234 175.466 569.33 181.463C563.426 187.461 555.419 190.83 547.07 190.83V190.83C538.721 190.83 530.714 187.461 524.81 181.463C518.906 175.466 515.59 167.331 515.59 158.849V127.672Z" fill="#CC9B0B"/>
<path d="M326.708 127.672H263.748L317.657 64.9174H362.648L326.708 127.672Z" fill="#FFC20E"/>
<path d="M389.669 127.672H326.709L362.648 64.9174H407.639L389.669 127.672Z" fill="white"/>
<path d="M515.59 127.672H578.55L524.641 64.9174H479.65L515.59 127.672Z" fill="#FFC20E"/>
<path d="M452.629 127.672H515.59L479.651 64.9174H434.66L452.629 127.672Z" fill="white"/>
<path d="M452.63 127.672H389.669L407.639 64.9174H434.66L452.63 127.672Z" fill="#FFC20E"/>
<path d="M707 564.477C707 565.101 561.93 565.636 383.014 565.636C204.098 565.636 59.0002 565.101 59.0002 564.477C59.0002 563.853 204.043 563.318 383.014 563.318C561.985 563.318 707 563.809 707 564.477Z" fill="#35176D"/>
<ellipse cx="87.1927" cy="16.1053" rx="87.1927" ry="16.1053" transform="matrix(-1 0 0 1 685.202 573.75)" fill="#FFF6DB"/>
<ellipse cx="97.1009" cy="16.1053" rx="97.1009" ry="16.1053" transform="matrix(-1 0 0 1 312.652 577.776)" fill="#FFF6DB"/>
<path d="M275.135 337.278C284.575 340.758 325.912 338.817 333.086 339.043C341.736 339.313 344.792 328.559 336.075 327.254C327.663 325.99 280.495 315.742 275.36 316.331C266.089 317.399 263.319 332.926 275.135 337.278Z" fill="#35176D"/>
<path d="M229.389 277.146C232.987 288.188 262.097 324.454 267.43 331.378C273.852 339.718 291.123 334.179 288.949 324.733C287.023 316.379 256.689 269.136 252.067 264.642C243.721 256.517 224.886 263.332 229.389 277.146Z" fill="#35176D"/>
<path d="M351.448 342.792C350.197 344.153 348.928 344.329 347.713 343.853C347.699 344.621 347.524 345.371 346.941 346.055C345.694 347.522 344.301 347.486 342.951 346.736C342.929 347.694 342.49 348.551 341.273 349.152C340.057 349.751 338.975 349.619 337.998 349.132C338.14 350.446 336.761 351.671 335.512 351.404C331.644 350.572 329.499 345.293 328.336 341.873C327.082 338.193 326.518 333.918 329.573 330.983C334.065 326.669 341.921 327.944 346.073 332.272C346.1 332.299 346.131 332.293 346.16 332.318C348.397 334.416 354.614 339.35 351.448 342.792Z" fill="#35176D"/>
<path d="M344.047 325.654C341 324.81 337.301 325.295 334.218 325.716C334.148 325.727 334.108 325.764 334.045 325.777C332.431 325.823 330.971 327.796 332.393 329.314C334.06 331.097 336.101 333.12 338.482 332.887C339.796 332.761 341.272 330.718 342.584 330.999C344.303 331.371 345.361 333.399 346.146 334.835C347.497 337.301 351.793 336.643 350.841 334.046C349.749 331.065 347.312 326.559 344.047 325.654Z" fill="#35176D"/>
<path d="M326.011 374.703H328.554V358.072C328.554 346.852 337.539 337.722 348.581 337.722C359.626 337.722 368.613 346.852 368.613 358.072V374.703H371.156V358.072C371.156 345.428 361.03 335.139 348.581 335.139C336.135 335.139 326.011 345.428 326.011 358.072V374.703V374.703Z" fill="#FFC20E"/>
<path d="M298.774 475.543H405.664L390.403 365.232H314.037L298.774 475.543Z" fill="#CC9B0B"/>
<path d="M288.6 475.543H395.493L380.231 365.232H303.859L288.6 475.543Z" fill="#FFC20E"/>
<path d="M363.633 378.578C361.527 378.578 359.819 376.843 359.819 374.703C359.819 372.563 361.527 370.829 363.633 370.829C365.74 370.829 367.448 372.563 367.448 374.703C367.448 376.843 365.74 378.578 363.633 378.578Z" fill="#CC9B0B"/>
<path d="M322.3 378.578C320.194 378.578 318.486 376.843 318.486 374.703C318.486 372.563 320.194 370.829 322.3 370.829C324.407 370.829 326.115 372.563 326.115 374.703C326.115 376.843 324.407 378.578 322.3 378.578Z" fill="#CC9B0B"/>
<path d="M319.76 374.703H322.303V358.072C322.303 346.852 331.286 337.722 342.33 337.722C353.374 337.722 362.362 346.852 362.362 358.072V374.703H364.905V358.072C364.905 345.428 354.776 335.139 342.33 335.139C329.884 335.139 319.76 345.428 319.76 358.072V374.703V374.703Z" fill="#CC9B0B"/>
<path d="M336.023 351.539C333.698 350.823 332.177 348.512 331.144 346.055C330.935 345.09 330.728 343.721 330.773 342.411C330.861 340.001 334.308 338.842 334.308 338.842C334.679 336.776 337.823 336.401 337.823 336.401C338.219 334.147 342.672 334.437 342.672 334.437C343.219 332.485 345.656 331.991 346.736 332.366C347.339 332.578 355.933 341.412 352.529 344.505C349.332 347.379 339.316 352.545 336.023 351.539Z" fill="#35176D"/>
<path d="M230.413 561.334L246.495 562.171C245.463 575.556 252.029 581.906 265.501 583.157C273.42 583.891 272.797 593.798 272.797 593.798H228.957C228.957 593.798 223.678 589.144 229.276 579.133C230.642 576.685 230.413 561.334 230.413 561.334Z" fill="#35176D"/>
<path d="M265.501 583.157C273.42 583.891 272.797 593.798 272.797 593.798H228.957C228.957 593.798 223.678 589.144 229.276 579.133C232.24 580.85 239.799 582.654 249.18 576.612C252.798 579.593 260.013 582.647 265.501 583.157Z" fill="#FFC20E"/>
<path d="M256.43 580.727C256.43 580.727 248.939 576.203 248.028 572.218C247.114 568.231 242.458 571.85 242.002 572.959C241.549 574.072 247.499 580.61 256.43 580.727Z" fill="#FFC20E"/>
<path d="M244.947 343.247C251.011 369.452 249.168 418.458 250.15 461.203C250.93 495.226 250.373 546.196 251.279 567.408C251.279 567.408 233.171 571.087 225.5 567.312C225.5 567.312 212.336 479.164 209.073 467.071C205.806 454.978 195.203 377.646 203.706 344.63C212.208 311.622 242.566 332.962 244.947 343.247Z" fill="#93D9B9"/>
<path d="M204.492 377.831C204.492 377.831 214.694 427.269 217.741 461.315C218.961 474.97 225.498 567.312 225.498 567.312C225.498 567.312 216.479 506.526 213.4 490.119C209.071 467.071 196.638 406.578 196.638 406.578L204.492 377.831Z" fill="#82BFA3"/>
<path d="M176.516 561.334L160.433 562.171C161.464 575.556 154.902 581.906 141.427 583.157C133.509 583.891 134.132 593.798 134.132 593.798H177.972C177.972 593.798 183.251 589.144 177.655 579.133C176.282 576.685 176.516 561.334 176.516 561.334Z" fill="#35176D"/>
<path d="M141.425 583.157C133.507 583.891 134.13 593.798 134.13 593.798H177.97C177.97 593.798 183.249 589.144 177.653 579.133C174.687 580.85 167.13 582.654 157.747 576.612C154.126 579.593 146.916 582.647 141.425 583.157Z" fill="#FFC20E"/>
<path d="M150.496 580.727C150.496 580.727 157.987 576.203 158.901 572.218C159.81 568.231 164.466 571.85 164.923 572.959C165.38 574.072 159.43 580.61 150.496 580.727Z" fill="#FFC20E"/>
<path d="M155.388 567.411C155.388 567.411 173.499 571.077 181.17 567.31C181.17 567.31 191.712 476.435 194.977 464.344C198.243 452.255 211.458 377.643 202.973 344.64C194.458 311.611 164.097 332.951 161.723 343.259C160.733 347.504 159.968 352.913 159.344 359.119C156.181 390.994 155.012 444.01 155.658 472.491C155.829 480.307 155.956 488.405 156.028 496.497C156.327 523.745 156.102 551.047 155.388 567.411Z" fill="#93D9B9"/>
<path d="M155.658 472.491C155.829 480.307 155.956 488.405 156.028 496.497C156.201 490.892 156.5 485.261 157.416 479.704C158.775 471.662 160.458 463.64 161.025 455.497C161.57 447.807 161.127 440.087 160.854 432.396C160.31 418.344 163.701 404.943 167.634 391.421C171.469 378.299 177.137 365.856 182.826 353.489C182.531 349.641 174.561 350.547 172.112 350.494C170.305 350.471 168.003 350.067 166.298 350.544C163.548 351.324 162.164 353.587 160.83 356.125C160.31 357.08 159.815 358.084 159.342 359.117C156.178 390.994 155.013 444.01 155.658 472.491Z" fill="#82BFA3"/>
<path d="M242.299 302.391C231.045 291.423 222.044 275.813 219.172 270.137C212.345 256.645 227.888 245.183 237.519 251.913C239.925 253.591 257.047 264.353 266.826 276.609C262.767 289.011 244.517 301.595 242.299 302.391Z" fill="#93D9B9"/>
<path d="M222.33 247.718C222.33 247.718 231.889 246.884 236.936 252.061C241.981 257.246 250.476 279.947 247.409 306.104C244.34 332.256 252.623 377.831 252.623 377.831C252.623 377.831 208.403 388.143 153.221 376.365C153.221 376.365 157.333 280.248 170.416 254.407C174.572 246.2 194.021 246.184 196.971 245.921C199.919 245.66 222.33 247.718 222.33 247.718Z" fill="white"/>
<path d="M108.303 405.894H110.846V389.267C110.846 378.045 119.831 368.917 130.874 368.917C141.918 368.917 150.905 378.045 150.905 389.267V405.894H153.448V389.267C153.448 376.621 143.32 366.334 130.874 366.334C118.43 366.334 108.303 376.621 108.303 389.267V405.894V405.894Z" fill="#C4EAD9"/>
<path d="M81.066 506.736H187.954L172.695 396.423H96.3298L81.066 506.736Z" fill="#82BFA3"/>
<path d="M70.8904 506.736H177.783L162.524 396.423H86.1517L70.8904 506.736Z" fill="#C4EAD9"/>
<path d="M145.926 409.771C143.819 409.771 142.112 408.036 142.112 405.896C142.112 403.756 143.819 402.021 145.926 402.021C148.032 402.021 149.74 403.756 149.74 405.896C149.74 408.036 148.032 409.771 145.926 409.771Z" fill="#82BFA3"/>
<path d="M104.593 409.773C102.485 409.773 100.776 408.037 100.776 405.896C100.776 403.755 102.485 402.019 104.593 402.019C106.7 402.019 108.409 403.755 108.409 405.896C108.409 408.037 106.7 409.773 104.593 409.773Z" fill="#82BFA3"/>
<path d="M102.052 405.894H104.595V389.267C104.595 378.045 113.578 368.917 124.623 368.917C135.667 368.917 144.654 378.045 144.654 389.267V405.894H147.197V389.267C147.197 376.621 137.069 366.334 124.623 366.334C112.176 366.334 102.052 376.621 102.052 389.267V405.894V405.894Z" fill="#82BFA3"/>
<path d="M166.398 258.617C156.529 263.036 123.963 294.773 117.748 300.605C110.261 307.634 113.4 320.587 122.041 319.545C129.402 318.655 173.298 285.208 177.346 280.261C184.653 271.339 178.748 253.092 166.398 258.617Z" fill="#35176D"/>
<path d="M113.598 308.478C111.598 318.1 115.948 353.008 116.638 359.624C117.467 367.6 130.252 369.605 130.358 361.267C130.466 353.22 133.947 307.205 132.768 302.683C130.635 294.517 116.1 296.437 113.598 308.478Z" fill="#35176D"/>
<path d="M143.974 269.588C155.471 259.739 170.59 252.726 176.018 250.574C188.919 245.461 196.117 262.407 188.584 271.17C186.702 273.36 176.347 285.478 163.995 293.694C153.961 288.082 144.274 271.901 143.974 269.588Z" fill="#93D9B9"/>
<path d="M132.735 377.718C129.685 378.611 118.453 379.478 115.662 376.858C112.917 374.273 113.693 368.923 114.382 365.57C115.12 361.96 116.702 358.206 120.59 357.326C126.301 356.032 132.08 360.943 133.387 366.509C133.399 366.546 133.428 366.555 133.437 366.587C134.256 369.399 136.954 376.476 132.735 377.718Z" fill="#35176D"/>
<path d="M219.162 235.057C219.162 235.057 217.439 245.224 220.586 246.568C223.736 247.91 227.941 248.362 227.941 248.362C227.941 248.362 210.74 273.652 191.169 246.036C191.169 246.036 197.01 246.106 198.816 243.715C200.625 241.32 201.741 229.469 200.84 221.648L219.162 235.057Z" fill="#35176D"/>
<path d="M192.018 226.858C193.008 228.374 195.254 229.397 197.048 228.675C198.976 227.899 197.954 224.817 197.263 223.458C196.327 221.612 196.737 201.262 196.646 201.252C196.016 200.938 190.192 205.729 190.048 206.616C189.673 208.854 185.701 217.194 192.018 226.858Z" fill="#FFC20E"/>
<path d="M227.943 194.287V225.043C227.943 233.36 220.705 240.102 211.78 240.102C202.857 240.102 195.624 233.36 195.624 225.043V224.355C195.624 224.355 187.323 226.19 187.323 216.96C187.323 207.734 192.542 209.026 192.542 209.026V194.287H227.943Z" fill="#35176D"/>
<path d="M192.543 209.026C191.844 211.108 195.485 214.077 197.243 214.084C200.843 214.095 202.288 200.943 203.955 194.287C207.651 195.914 226.428 196.61 230.387 195.646C236.284 194.207 241.223 178.905 237.256 174.684C231.098 183.626 200.709 164.057 192.049 178.897C192.032 178.925 192.039 178.951 192.026 178.982C183.42 181.611 183.599 207.531 192.543 209.026Z" fill="#FFC20E"/>
<path fill-rule="evenodd" clip-rule="evenodd" d="M568.424 563.806C568.424 563.806 573.188 578.259 568.114 580.648C563.037 583.037 556.226 590.418 554.135 594.634C554.135 594.634 541.817 596.837 532.427 595.468C531.5 595.331 531.023 594.284 531.509 593.468C533.966 589.339 542.981 585.108 546.77 580.648C551.073 575.579 555.13 566.033 560.801 563.644C566.471 561.257 568.424 563.806 568.424 563.806Z" fill="#35176D"/>
<path fill-rule="evenodd" clip-rule="evenodd" d="M567.641 594.967C567.641 594.967 569.945 580.497 569.648 578.25C569.351 576.002 561.878 578.25 561.878 578.25L563.901 594.967C563.901 594.967 565.254 596.092 567.641 594.967Z" fill="#35176D"/>
<path fill-rule="evenodd" clip-rule="evenodd" d="M555.382 564.35C555.821 562.291 556.318 556.42 556.318 556.42L569.313 558.971L568.919 565.667C568.919 565.667 550.393 587.776 545.006 582.412C552.445 573.408 554.286 569.519 555.382 564.35Z" fill="#FFC20E"/>
<path fill-rule="evenodd" clip-rule="evenodd" d="M636.718 552.415C636.718 552.415 646.441 564.021 642.609 568.161C638.777 572.301 635.167 581.733 634.778 586.433C634.778 586.433 624.155 593.145 614.937 595.431C614.028 595.658 613.203 594.867 613.353 593.925C614.116 589.165 620.93 581.822 622.807 576.247C624.938 569.917 625.199 559.524 629.587 555.158C633.973 550.789 636.718 552.415 636.718 552.415Z" fill="#35176D"/>
<path fill-rule="evenodd" clip-rule="evenodd" d="M647.429 581.628C647.429 581.628 644.259 567.327 643.156 565.354C642.055 563.379 635.946 568.296 635.946 568.296L643.961 583.043C643.959 583.043 645.624 583.576 647.429 581.628Z" fill="#35176D"/>
<path fill-rule="evenodd" clip-rule="evenodd" d="M624.818 557.863C624.467 555.785 622.777 550.149 622.777 550.149L635.77 547.596L637.861 553.956C637.861 553.956 628.788 581.489 621.821 578.551C625.417 567.379 625.698 563.072 624.818 557.863Z" fill="#FFC20E"/>
<path d="M553.579 347.118C547.74 372.135 549.392 438.037 550.123 470.517C550.854 502.995 550.739 540.87 549.864 561.122C549.864 561.122 567.308 564.636 574.696 561.033C574.696 561.033 584.856 474.28 588 462.735C591.141 451.188 601.488 379.957 593.299 348.442C585.11 316.92 555.872 337.297 553.579 347.118Z" fill="#35176D"/>
<path d="M588.917 377.043C588.917 377.043 578.539 446.797 577.398 459.837C576.253 472.874 574.695 561.033 574.695 561.033C574.695 561.033 585.101 474.102 587.999 462.735C590.893 451.369 596.728 402.327 596.728 402.327L588.917 377.043Z" fill="#35176D"/>
<path d="M585.047 353.613C585.047 353.613 589.907 441.146 594.912 473.217C599.916 505.288 613.335 536.396 617.905 556.42C617.905 556.42 633.369 554.276 641.274 547.593C641.274 547.593 626.825 477.547 628.421 465.664C630.012 453.785 640.624 378.202 628.362 348.136C616.094 318.074 585.047 353.613 585.047 353.613Z" fill="#35176D"/>
<path d="M590.873 351.492C590.873 351.492 602.655 340.713 614.148 353.924C625.637 367.131 631.022 444.55 631.022 444.55C631.022 444.55 643.543 347.178 618.162 332.015C596.161 318.874 584.212 341.781 584.212 341.781L590.873 351.492Z" fill="#35176D"/>
<path d="M577.067 282.187C571.892 292.563 537.793 324.029 531.506 330.066C523.931 337.342 507.664 329.252 511.202 320.241C514.33 312.269 551.245 270.14 556.473 266.39C565.917 259.626 583.541 269.207 577.067 282.187Z" fill="#FFC20E"/>
<path d="M512.898 329.501C505.443 321.276 490.197 279.812 486.905 272.783C482.935 264.315 487.834 257.53 492.85 265.737C497.688 273.656 531.724 317.257 533.344 322.529C536.269 332.048 522.226 339.791 512.898 329.501Z" fill="#FFC20E"/>
<path d="M488.288 274.143C488.288 274.143 480.385 263.853 470.135 261.969C459.886 260.086 456.091 253.228 461.047 251C466.004 248.773 487.306 252.018 490.231 257.155C493.157 262.292 493.954 270.822 493.954 270.822L488.288 274.143Z" fill="#FFC20E"/>
<path d="M572.245 299.825C581.766 287.276 588.382 270.481 590.389 264.434C595.164 250.057 582.128 241.965 569.576 249.186C567.036 250.647 552.089 264.441 544.211 278.036C550.046 289.688 569.932 299.372 572.245 299.825Z" fill="#93D9B9"/>
<path d="M577.518 246.58C573.962 248.756 559.9 257.082 557.724 277.65C556.691 287.398 563.118 304.118 561.358 315.973C557.49 342.02 548.667 351.272 548.667 351.272C548.667 351.272 584.937 361.811 634.373 353.519C616.738 299.328 631.882 290.456 628.513 261.723C627.084 249.554 612.131 247.056 609.202 246.61C606.276 246.162 589.575 244.081 577.518 246.58Z" fill="#C4EAD9"/>
<path d="M629.541 260.588C638.266 266.982 663.463 304.854 668.319 311.862C674.168 320.308 668.387 332.313 660.156 329.479C653.145 327.063 617.228 285.139 614.305 279.452C609.029 269.193 618.622 252.592 629.541 260.588Z" fill="#FFC20E"/>
<path d="M670.728 320.432C670.67 330.26 659.108 363.478 657.048 369.802C654.568 377.426 641.647 376.701 643.289 368.527C644.868 360.636 651.098 314.912 653.198 310.739C656.993 303.203 670.802 308.133 670.728 320.432Z" fill="#FFC20E"/>
<path d="M644.306 365.488C644.306 365.488 642.757 367.231 643.598 373.307C644.438 379.383 633.857 389.447 636.577 395.927C639.298 402.407 646.78 403.469 653.598 390.631C660.417 377.794 655.407 366.674 655.407 366.674L644.306 365.488Z" fill="#FFC20E"/>
<path d="M649.169 276.025C639.99 263.981 626.675 253.947 621.818 250.704C610.275 242.994 599.689 258.051 605.221 268.202C606.601 270.738 614.19 284.762 624.547 295.39C635.533 292.011 648.392 278.225 649.169 276.025Z" fill="#C4EAD9"/>
<path d="M559.853 297.148C559.853 297.148 573.87 306.765 600.074 301.489C600.074 301.489 573.827 310.711 561.556 309.026L559.853 297.148Z" fill="#93D9B9"/>
<path d="M587.123 233.504C587.123 233.504 587.195 245.035 584.075 245.916C581.495 246.642 577.687 247.225 577.687 247.225C577.687 247.225 591.826 272.125 611.936 247.166C611.936 247.166 606.408 246.886 604.835 244.513C603.262 242.138 602.888 230.861 604.192 223.516L587.123 233.504Z" fill="#FFC20E"/>
<path d="M604.837 244.511C603.264 242.136 602.89 230.858 604.194 223.513L593.873 230.123C595.717 232.025 586.541 240.784 586.423 241.091C588.696 246.173 601.578 249.573 596.317 253.04C592.276 255.707 587.154 255.237 582.497 253.52C588.559 258.745 599.178 262.999 611.933 247.164C611.938 247.164 606.41 246.884 604.837 244.511Z" fill="#E6AF0D"/>
<path d="M590.691 189.924C590.592 191.544 591.358 193.217 593.293 193.851C605.775 197.931 614.149 202.484 615.189 217.486C615.638 223.901 614.424 230.257 613.81 236.615C612.892 246.145 612.774 256.192 618.158 264.485C626.304 277.046 646.663 281.002 659.608 274.736C663.323 272.938 661.047 267.898 657.702 267.586C633.084 265.279 647.488 225.104 648.531 210.75C649.272 200.538 646.678 189.205 639.93 181.251C628.249 167.472 600.846 172.958 591.041 186.484C590.142 187.724 590.156 188.947 590.691 189.924Z" fill="#35176D"/>
<path d="M607.552 209.647C607.412 208.806 601.895 204.268 601.3 204.563C601.211 204.572 601.6 223.862 600.713 225.611C600.06 226.9 599.089 229.823 600.916 230.556C602.619 231.241 604.748 230.274 605.684 228.836C611.674 219.674 607.904 211.769 607.552 209.647Z" fill="#35176D"/>
<path d="M571.634 192.077V227.117C571.634 234.995 578.49 241.388 586.951 241.388C595.408 241.388 602.269 234.995 602.269 227.117V226.459C602.269 226.459 610.135 228.198 610.135 219.452C610.135 210.704 605.188 211.929 605.188 211.929V192.077H571.634Z" fill="#FFC20E"/>
<path d="M563.888 202.662C560.322 197.653 564.38 190.837 571.634 183.957C577.986 177.928 596.863 176.3 601.808 188.625C601.808 188.625 607.676 189.251 609.213 193.592C610.748 197.931 608.269 211.907 602.768 213.844C600.331 214.702 598.355 213.001 597.808 208.053C597.437 204.728 598.168 198.772 598.168 198.772C598.168 198.772 572.288 212.604 563.888 202.662Z" fill="#35176D"/>
<path d="M460.056 41.3668C459.756 41.3575 459.465 41.2574 459.221 41.0791C458.976 40.9009 458.79 40.6528 458.685 40.3664C458.581 40.08 458.563 39.7685 458.633 39.4716C458.704 39.1747 458.86 38.906 459.082 38.6999C460.605 37.2842 462.173 35.8925 463.746 34.5689C464.054 34.3087 464.452 34.1838 464.851 34.2215C465.25 34.2592 465.619 34.4564 465.875 34.7699C466.131 35.0833 466.254 35.4872 466.217 35.8927C466.18 36.2983 465.985 36.6722 465.677 36.9323C464.142 38.2265 462.61 39.579 461.125 40.9636C460.834 41.2351 460.451 41.3799 460.056 41.3668ZM473.365 30.5974C473.046 30.5878 472.739 30.476 472.486 30.2781C472.234 30.0801 472.05 29.8062 471.96 29.4954C471.87 29.1847 471.879 28.853 471.986 28.548C472.093 28.2429 472.292 27.98 472.555 27.7969C474.26 26.6067 476.009 25.455 477.75 24.3742C478.092 24.1755 478.496 24.1199 478.878 24.2193C479.259 24.3188 479.588 24.5654 479.793 24.9068C479.998 25.2482 480.064 25.6574 479.977 26.0475C479.89 26.4376 479.657 26.7779 479.326 26.996C477.629 28.0475 475.92 29.1682 474.267 30.3277C474.002 30.5133 473.686 30.6078 473.365 30.5974ZM588.024 33.7461C587.681 33.7353 587.352 33.6063 587.091 33.3802C585.481 31.9863 583.91 30.6599 582.423 29.4396C582.269 29.3129 582.14 29.1565 582.045 28.9794C581.951 28.8023 581.891 28.608 581.87 28.4075C581.849 28.207 581.867 28.0043 581.923 27.8109C581.979 27.6175 582.072 27.4372 582.197 27.2804C582.322 27.1235 582.476 26.9932 582.65 26.8968C582.825 26.8004 583.016 26.7398 583.213 26.7185C583.411 26.6971 583.61 26.7155 583.801 26.7726C583.991 26.8296 584.169 26.9242 584.323 27.0509C585.83 28.288 587.422 29.6313 589.052 31.0435C589.291 31.25 589.46 31.5265 589.537 31.835C589.614 32.1435 589.595 32.4687 589.482 32.7655C589.369 33.0623 589.168 33.3161 588.906 33.4918C588.645 33.6675 588.337 33.7563 588.024 33.7461ZM488.069 21.9208C487.728 21.9137 487.399 21.7893 487.136 21.5681C486.873 21.3468 486.691 21.0417 486.621 20.7023C486.551 20.363 486.596 20.0094 486.748 19.6993C486.901 19.3891 487.153 19.1407 487.462 18.9943C489.325 18.0854 491.232 17.223 493.126 16.4314C493.31 16.3549 493.507 16.3159 493.705 16.3167C493.904 16.3174 494.1 16.3579 494.283 16.4358C494.466 16.5137 494.633 16.6274 494.772 16.7706C494.912 16.9137 495.023 17.0834 495.098 17.27C495.174 17.4567 495.212 17.6565 495.211 17.8582C495.211 18.0599 495.171 18.2594 495.094 18.4454C495.017 18.6315 494.905 18.8004 494.764 18.9424C494.624 19.0845 494.456 19.197 494.273 19.2734C492.433 20.0394 490.582 20.8761 488.77 21.7593C488.554 21.8694 488.315 21.9248 488.074 21.9209L488.069 21.9208ZM574.612 23.1045C574.321 23.0957 574.038 23.0007 573.799 22.8312C572.088 21.6214 570.393 20.4945 568.762 19.4811C568.42 19.2686 568.175 18.9268 568.081 18.531C567.988 18.1351 568.052 17.7177 568.262 17.3704C568.471 17.0231 568.807 16.7745 569.197 16.6793C569.587 16.584 569.998 16.6499 570.34 16.8624C572.021 17.9065 573.769 19.0723 575.525 20.3094C575.793 20.4983 575.993 20.7703 576.097 21.0847C576.2 21.399 576.2 21.7389 576.098 22.0534C575.995 22.368 575.795 22.6403 575.527 22.8298C575.259 23.0192 574.939 23.1156 574.612 23.1045ZM503.954 15.7465C503.596 15.7333 503.255 15.5916 502.99 15.3465C502.725 15.1014 502.555 14.7689 502.509 14.4082C502.463 14.0474 502.544 13.6818 502.739 13.3763C502.933 13.0709 503.228 12.8454 503.571 12.7401C505.603 12.1192 507.594 11.5422 509.49 11.0235C509.877 10.9177 510.29 10.9726 510.637 11.1759C510.985 11.3793 511.238 11.7145 511.342 12.1078C511.446 12.5012 511.392 12.9204 511.192 13.2733C510.992 13.6262 510.662 13.8838 510.275 13.9896C508.41 14.4996 506.446 15.0694 504.441 15.6815C504.283 15.7303 504.119 15.7523 503.954 15.7465ZM559.846 14.5752C559.658 14.5689 559.473 14.5274 559.3 14.4526C557.476 13.6579 555.613 12.957 553.72 12.3527C553.337 12.2314 553.017 11.9606 552.831 11.6C552.645 11.2394 552.608 10.8184 552.727 10.4297C552.846 10.041 553.113 9.71639 553.468 9.52734C553.823 9.33828 554.238 9.30023 554.62 9.42156C556.612 10.056 558.571 10.7929 560.49 11.6293C560.814 11.7699 561.08 12.0212 561.241 12.3398C561.402 12.6583 561.448 13.024 561.372 13.3736C561.295 13.7232 561.101 14.0346 560.822 14.2541C560.544 14.4735 560.198 14.5871 559.846 14.5752ZM520.462 11.5303C520.091 11.5162 519.738 11.3642 519.471 11.1031C519.203 10.8421 519.039 10.4902 519.01 10.1144C518.981 9.7386 519.089 9.36512 519.314 9.065C519.538 8.76488 519.864 8.55903 520.228 8.48664C522.33 8.07955 524.385 7.73878 526.345 7.47732C526.743 7.42416 527.145 7.53354 527.463 7.78138C527.781 8.02921 527.989 8.3952 528.041 8.79886C528.094 9.20251 527.986 9.61076 527.742 9.93377C527.498 10.2568 527.138 10.4681 526.74 10.5213C524.84 10.7831 522.839 11.1062 520.795 11.5039C520.685 11.5245 520.574 11.5334 520.462 11.5303ZM543.472 10.172L543.355 10.1682C541.426 9.95428 539.432 9.83673 537.408 9.81517C537.018 9.79544 536.651 9.62329 536.384 9.33477C536.116 9.04624 535.969 8.66373 535.972 8.26731C535.976 7.87089 536.131 7.49131 536.404 7.20805C536.677 6.9248 537.047 6.75984 537.437 6.74771C539.561 6.76766 541.654 6.88353 543.682 7.11034C544.075 7.14849 544.437 7.34074 544.691 7.64611C544.946 7.95149 545.073 8.34584 545.046 8.74512C545.018 9.14439 544.839 9.517 544.545 9.78354C544.251 10.0501 543.866 10.1895 543.472 10.172Z" fill="#FFEAAB"/>
<path d="M392.233 245.82V217.731H419.972V237.794H416.01V221.743H396.196V241.807H412.047V245.82H392.233Z" fill="#FFC20E"/>
<path d="M416.01 241.807H419.972V245.82H416.01V241.807Z" fill="#FFC20E"/>
<path d="M392.233 249.833H412.047V253.845H396.196V273.909H416.01V269.896H419.972V277.922H392.233V249.833Z" fill="#FFC20E"/>
<path d="M400.159 257.858H412.047V269.896H400.159V257.858Z" fill="#FFC20E"/>
<path d="M419.972 265.883H416.01V249.833H419.972V265.883Z" fill="#FFC20E"/>
<path d="M412.047 225.756V237.794H400.159V225.756H412.047Z" fill="#FFC20E"/>
<path d="M443.749 225.756H431.861V237.794H443.749V225.756Z" fill="#FFC20E"/>
<path d="M427.898 221.743V245.82H423.935V217.731H451.674V245.82H447.712V221.743H427.898Z" fill="#FFC20E"/>
<path d="M431.861 245.82V241.807H443.749V245.82H431.861Z" fill="#FFC20E"/>
<path d="M423.935 277.922V249.833H431.861V253.845H427.898V277.922H423.935Z" fill="#FFC20E"/>
<path d="M447.712 253.845H443.749V249.833H447.712V253.845Z" fill="#FFC20E"/>
<path d="M447.712 253.845H451.674V265.883H447.712V253.845Z" fill="#FFC20E"/>
<path d="M447.712 269.896H451.674V277.922H443.749V273.909H447.712V269.896Z" fill="#FFC20E"/>
<path d="M435.823 273.909V277.922H431.861V273.909H435.823Z" fill="#FFC20E"/>
<path d="M435.823 257.858H431.861V269.896H435.823V273.909H439.786V265.883H443.749V261.871H439.786V265.883H435.823V257.858Z" fill="#FFC20E"/>
<path d="M435.823 257.858H439.786V253.845H435.823V257.858Z" fill="#FFC20E"/>
<path d="M576.896 55.9319V38.6703H593.74V51H591.334V41.1363H579.303V53.4659H588.928V55.9319H576.896Z" fill="#FFC20E"/>
<path d="M591.334 53.4659H593.74V55.9319H591.334V53.4659Z" fill="#FFC20E"/>
<path d="M576.896 58.3978H588.928V60.8637H579.303V73.1934H591.334V70.7275H593.74V75.6593H576.896V58.3978Z" fill="#FFC20E"/>
<path d="M581.709 63.3297H588.928V70.7275H581.709V63.3297Z" fill="#FFC20E"/>
<path d="M593.74 68.2615H591.334V58.3978H593.74V68.2615Z" fill="#FFC20E"/>
<path d="M588.928 43.6022V51H581.709V43.6022H588.928Z" fill="#FFC20E"/>
<path d="M608.177 43.6022H600.959V51H608.177V43.6022Z" fill="#FFC20E"/>
<path d="M598.552 41.1363V55.9319H596.146V38.6703H612.99V55.9319H610.584V41.1363H598.552Z" fill="#FFC20E"/>
<path d="M600.959 55.9319V53.4659H608.177V55.9319H600.959Z" fill="#FFC20E"/>
<path d="M596.146 75.6593V58.3978H600.959V60.8637H598.552V75.6593H596.146Z" fill="#FFC20E"/>
<path d="M610.584 60.8637H608.177V58.3978H610.584V60.8637Z" fill="#FFC20E"/>
<path d="M610.584 60.8637H612.99V68.2615H610.584V60.8637Z" fill="#FFC20E"/>
<path d="M610.584 70.7275H612.99V75.6593H608.177V73.1934H610.584V70.7275Z" fill="#FFC20E"/>
<path d="M603.365 73.1934V75.6593H600.959V73.1934H603.365Z" fill="#FFC20E"/>
<path d="M603.365 63.3297H600.959V70.7275H603.365V73.1934H605.771V68.2615H608.177V65.7956H605.771V68.2615H603.365V63.3297Z" fill="#FFC20E"/>
<path d="M603.365 63.3297H605.771V60.8637H603.365V63.3297Z" fill="#FFC20E"/>
<path fill-rule="evenodd" clip-rule="evenodd" d="M70.225 114.199C70.6098 113.967 70.7306 114.25 70.8506 114.528C71.8974 116.947 72.9346 119.371 73.9969 121.784C74.1598 122.154 74.0626 122.35 73.7949 122.592C70.3279 125.701 66.8673 128.818 63.4132 131.944C63.1552 132.165 62.8318 132.293 62.4947 132.306L25.5273 136.168L13.6174 137.411C13.4146 137.434 13.2053 137.418 13.0003 137.42C13.0723 136.903 13.5137 136.881 13.8712 136.742C17.1641 135.468 20.4279 134.128 23.7017 132.793C27.9202 131.078 32.1651 129.434 36.375 127.705C39.184 126.552 42.0388 125.519 44.831 124.336C48.1561 122.925 51.5371 121.639 54.8708 120.277C57.1235 119.359 59.3792 118.449 61.6379 117.546C63.7287 116.714 65.8388 115.943 67.8918 115.008C68.6518 114.661 69.4523 114.479 70.225 114.199" fill="#FFC20E"/>
<path fill-rule="evenodd" clip-rule="evenodd" d="M13.8848 136.9C13.5607 137.02 13.2142 137.101 13.0012 137.417C12.8696 137.409 12.6211 137.46 12.7757 137.218C12.9746 136.958 13.1962 136.717 13.4378 136.498C15.3975 134.669 17.4532 132.951 19.475 131.196C21.6603 129.303 23.8392 127.405 26.0372 125.523C28.4134 123.488 30.7673 121.425 33.1344 119.38C35.6012 117.248 38.0801 115.131 40.5331 112.985C42.5138 111.252 44.5012 109.53 46.4952 107.819C49.2624 105.432 52.0149 103.035 54.7835 100.639C55.3451 100.122 55.9337 99.636 56.5467 99.1831C56.7119 99.0687 56.8509 98.8918 57.0989 98.9363C57.2289 99.3214 56.9842 99.6694 57.0528 100.034L55.3189 115.552C55.3668 115.876 55.1021 115.939 54.9041 116.033C50.8618 118.077 46.832 120.145 42.7938 122.197C38.9655 124.147 35.1621 126.134 31.3331 128.077C26.5468 130.504 21.7712 132.954 16.9986 135.408C15.9755 135.933 14.9092 136.356 13.8842 136.893" fill="#B3880A"/>
<path fill-rule="evenodd" clip-rule="evenodd" d="M57.0569 100.037C56.8863 99.728 57.1255 99.4156 57.0326 99.0455C55.6171 100.059 54.384 101.249 53.0829 102.357C51.1437 104.008 49.2399 105.697 47.3143 107.365C44.5562 109.751 41.7959 112.136 39.0334 114.52C36.5718 116.649 34.1127 118.78 31.6562 120.915C28.4851 123.668 25.3139 126.422 22.1428 129.176C19.7007 131.287 17.2499 133.388 14.7906 135.479C14.3618 135.844 14.0443 136.381 13.4331 136.5C15.7388 133.937 18.0453 131.373 20.3525 128.808C27.444 120.977 34.5324 113.147 41.6177 105.317C42.5216 104.314 43.6953 103.722 44.7801 102.998C47.4223 101.225 50.0898 99.5102 52.7353 97.7513C52.8759 97.6382 53.0433 97.5647 53.2205 97.5381C53.3978 97.5116 53.5786 97.533 53.7448 97.6002C54.5494 97.9091 55.3722 98.1589 56.1842 98.4434C57.3114 98.8359 57.3109 98.8395 57.0496 100.038" fill="#FFC20E"/>
<path fill-rule="evenodd" clip-rule="evenodd" d="M13.8845 136.901C14.9794 136.019 16.2981 135.567 17.5197 134.931C21.7517 132.724 25.9952 130.536 30.25 128.366C34.0122 126.446 37.7936 124.564 41.559 122.646C45.8102 120.477 50.0553 118.294 54.2942 116.096C54.6362 115.919 55.0729 115.916 55.3184 115.552C57.3735 115.511 59.4055 115.192 61.4496 115.015C64.3785 114.759 67.3008 114.477 70.2286 114.194C69.3531 114.809 68.3014 115.035 67.3404 115.44C64.2369 116.742 61.0999 117.96 57.9759 119.209C54.4596 120.614 50.9243 121.968 47.4396 123.434C44.7913 124.547 42.1171 125.585 39.4565 126.661C35.8785 128.108 32.2959 129.55 28.7089 130.986C25.8514 132.139 23.0043 133.317 20.1367 134.443C18.0551 135.262 16.0187 136.205 13.8859 136.892" fill="#CC9B0B"/>
<path d="M60.051 112.024C59.8096 112.016 59.5758 111.936 59.3795 111.793C59.1833 111.649 59.0336 111.45 58.9496 111.22C58.8656 110.99 58.851 110.74 58.9078 110.501C58.9646 110.262 59.0902 110.047 59.2684 109.881C60.492 108.743 61.7519 107.625 63.0153 106.562C63.2632 106.353 63.5827 106.252 63.9035 106.283C64.2243 106.313 64.5201 106.472 64.7258 106.723C64.9316 106.975 65.0304 107.3 65.0006 107.626C64.9708 107.951 64.8147 108.252 64.5668 108.461C63.3336 109.501 62.1027 110.587 60.9094 111.7C60.6761 111.918 60.3679 112.034 60.051 112.024ZM70.7437 103.371C70.4876 103.363 70.2405 103.273 70.0378 103.114C69.835 102.955 69.687 102.735 69.6148 102.486C69.5427 102.236 69.5501 101.969 69.6361 101.724C69.7221 101.479 69.8821 101.268 70.0934 101.121C71.4633 100.165 72.868 99.2393 74.2671 98.3709C74.5416 98.2112 74.8667 98.1666 75.1732 98.2465C75.4797 98.3264 75.7434 98.5246 75.9083 98.7988C76.0733 99.0731 76.1264 99.4019 76.0564 99.7153C75.9864 100.029 75.7989 100.302 75.5337 100.477C74.1698 101.322 72.7966 102.223 71.4684 103.154C71.2558 103.303 71.0018 103.379 70.7437 103.371ZM162.867 105.901C162.591 105.892 162.327 105.788 162.117 105.607C160.824 104.487 159.561 103.421 158.367 102.441C158.243 102.339 158.14 102.213 158.064 102.071C157.987 101.929 157.939 101.773 157.923 101.611C157.906 101.45 157.92 101.288 157.965 101.132C158.011 100.977 158.085 100.832 158.186 100.706C158.286 100.58 158.409 100.475 158.549 100.398C158.69 100.32 158.843 100.272 159.002 100.254C159.16 100.237 159.321 100.252 159.474 100.298C159.627 100.344 159.769 100.42 159.893 100.522C161.104 101.515 162.384 102.595 163.693 103.729C163.885 103.895 164.021 104.117 164.083 104.365C164.145 104.613 164.129 104.874 164.038 105.113C163.947 105.351 163.786 105.555 163.576 105.696C163.366 105.838 163.118 105.909 162.867 105.901ZM82.5578 96.3997C82.2835 96.394 82.0192 96.2941 81.808 96.1163C81.5968 95.9386 81.451 95.6934 81.3945 95.4207C81.338 95.1481 81.374 94.864 81.4968 94.6148C81.6195 94.3656 81.8217 94.166 82.0704 94.0485C83.5673 93.3181 85.0989 92.6253 86.621 91.9892C86.7686 91.9278 86.9267 91.8965 87.0862 91.8971C87.2457 91.8977 87.4036 91.9302 87.5507 91.9928C87.6979 92.0553 87.8314 92.1467 87.9438 92.2618C88.0562 92.3768 88.1452 92.5131 88.2057 92.6631C88.2662 92.813 88.297 92.9736 88.2964 93.1356C88.2958 93.2976 88.2638 93.458 88.2022 93.6074C88.1406 93.7569 88.0506 93.8926 87.9373 94.0067C87.8241 94.1209 87.6899 94.2113 87.5423 94.2727C86.0642 94.8881 84.5768 95.5604 83.1213 96.2699C82.9478 96.3584 82.7557 96.403 82.5616 96.3998L82.5578 96.3997ZM152.092 97.3508C151.857 97.3437 151.63 97.2674 151.438 97.1312C150.063 96.1592 148.702 95.2538 147.391 94.4395C147.116 94.2688 146.919 93.9942 146.844 93.6761C146.769 93.3581 146.821 93.0227 146.989 92.7437C147.157 92.4647 147.427 92.2649 147.741 92.1884C148.054 92.1119 148.384 92.1648 148.659 92.3355C150.009 93.1744 151.413 94.1111 152.825 95.105C153.04 95.2568 153.201 95.4754 153.284 95.7279C153.367 95.9805 153.367 96.2536 153.285 96.5063C153.202 96.759 153.041 96.9778 152.826 97.1301C152.611 97.2823 152.354 97.3597 152.092 97.3508ZM95.3208 91.439C95.0333 91.4284 94.7587 91.3145 94.5461 91.1176C94.3335 90.9207 94.1965 90.6535 94.1596 90.3637C94.1226 90.0738 94.1881 89.7801 94.3444 89.5346C94.5007 89.2892 94.7376 89.1081 95.013 89.0235C96.6458 88.5246 98.2455 88.061 99.7685 87.6442C100.08 87.5593 100.411 87.6033 100.69 87.7667C100.969 87.9301 101.173 88.1994 101.257 88.5155C101.341 88.8315 101.297 89.1683 101.136 89.4518C100.975 89.7354 100.71 89.9424 100.399 90.0274C98.9008 90.4371 97.3229 90.8949 95.7121 91.3867C95.5854 91.426 95.4532 91.4436 95.3208 91.439ZM140.227 90.4979C140.076 90.4928 139.928 90.4595 139.789 90.3994C138.323 89.7609 136.827 89.1978 135.305 88.7122C134.998 88.6147 134.741 88.3972 134.591 88.1074C134.442 87.8177 134.412 87.4794 134.508 87.1671C134.604 86.8548 134.818 86.5941 135.103 86.4422C135.388 86.2903 135.721 86.2597 136.029 86.3572C137.629 86.8669 139.203 87.459 140.745 88.131C141.005 88.2439 141.218 88.4459 141.348 88.7018C141.477 88.9577 141.515 89.2516 141.453 89.5324C141.392 89.8133 141.236 90.0636 141.012 90.2399C140.788 90.4162 140.511 90.5074 140.227 90.4979ZM108.584 88.0514C108.286 88.0401 108.003 87.918 107.788 87.7082C107.572 87.4985 107.441 87.2158 107.418 86.9138C107.394 86.6119 107.481 86.3118 107.662 86.0707C107.842 85.8296 108.103 85.6642 108.396 85.606C110.085 85.2789 111.736 85.0051 113.311 84.7951C113.631 84.7524 113.953 84.8402 114.209 85.0394C114.465 85.2385 114.632 85.5325 114.674 85.8569C114.716 86.1812 114.629 86.5092 114.433 86.7687C114.237 87.0282 113.948 87.198 113.628 87.2407C112.102 87.4511 110.494 87.7107 108.852 88.0302C108.763 88.0468 108.674 88.0539 108.584 88.0514ZM127.072 86.9601L126.977 86.957C125.428 86.7852 123.825 86.6907 122.2 86.6734C121.887 86.6576 121.592 86.5192 121.376 86.2874C121.161 86.0556 121.043 85.7483 121.046 85.4298C121.049 85.1113 121.173 84.8063 121.393 84.5787C121.612 84.3511 121.91 84.2186 122.223 84.2089C123.929 84.2249 125.611 84.318 127.241 84.5002C127.556 84.5309 127.847 84.6853 128.051 84.9307C128.256 85.176 128.358 85.4929 128.336 85.8137C128.314 86.1345 128.17 86.4338 127.933 86.648C127.697 86.8621 127.388 86.9741 127.072 86.9601Z" fill="#FFEAAB"/>
</svg>
