<svg width="559" height="508" viewBox="0 0 559 508" fill="none" xmlns="http://www.w3.org/2000/svg">
<path d="M173.539 18.1317C155.762 20.0198 139.529 25.7537 126.696 41.3341C99.9767 73.7738 87.6959 115.106 65.1866 150.429C53.2499 169.161 38.5027 186.091 26.5671 204.824C4.13495 240.03 -6.7925 285.708 4.49624 326.849C9.53307 345.204 22.1014 360.659 35.1785 374.79C75.9142 418.808 125.16 455.925 180.968 479.732C236.777 503.539 299.29 513.666 359.571 504.857C383.993 501.288 408.508 494.396 428.367 480.144C444.701 468.421 457.131 452.25 467.299 435.181C495.33 388.122 507.441 333.172 507.983 278.818C508.373 239.634 502.071 201.614 494.567 163.267C490.652 143.263 491.584 119.382 482.007 100.873C471.197 79.9766 441.857 65.0687 421.325 54.7177C397.213 42.56 371.159 34.2274 344.626 28.7353C304.679 20.464 263.639 18.4878 222.796 17.9905C206.023 17.786 189.183 16.4699 173.539 18.1317Z" fill="#FFF6DB"/>
<path d="M128.18 333.92C128.18 333.92 146.427 354.914 178.583 354.914C195.129 354.914 206.894 349.44 215.176 342.443C227.099 332.37 233.568 317.083 233.568 301.311V95.9925H132.762L128.18 333.92Z" fill="#E6AF0D"/>
<path d="M354.707 86.6613H403.105C403.707 86.6613 404.303 86.7819 404.858 87.0164C405.414 87.2508 405.919 87.5945 406.345 88.0277C406.77 88.4609 407.108 88.9751 407.338 89.5412C407.568 90.1072 407.687 90.7138 407.687 91.3265C407.687 95.3087 406.917 99.2519 405.42 102.931C403.923 106.61 401.73 109.953 398.964 112.769C396.198 115.585 392.915 117.819 389.301 119.342C385.688 120.866 381.815 121.651 377.904 121.651H354.707V86.6613Z" fill="#E6AF0D"/>
<path d="M354.994 126.316H374.555C378.233 126.316 381.829 127.424 384.89 129.502L404.628 142.9C405.569 143.539 406.34 144.405 406.874 145.42C407.407 146.436 407.686 147.57 407.686 148.722C407.686 155.897 401.661 161.237 394.886 159.261C377.902 154.307 361.865 151.975 354.992 151.975L354.994 126.316Z" fill="#E6AF0D"/>
<path d="M354.994 158.971H369.711C372.062 158.971 374.355 159.708 376.281 161.08L392.377 172.551C393.567 173.4 394.54 174.528 395.211 175.841C395.882 177.153 396.233 178.611 396.233 180.091C396.233 182.532 395.28 184.873 393.585 186.599C391.89 188.325 389.59 189.295 387.193 189.295L354.994 184.629L354.994 158.971Z" fill="#AAAAAA"/>
<path d="M354.994 191.628H362.581C366.586 191.628 370.492 192.902 373.752 195.273L380.977 200.527C382.152 201.382 383.11 202.51 383.771 203.818C384.433 205.125 384.777 206.575 384.777 208.046C384.777 210.496 383.821 212.847 382.119 214.58C380.417 216.312 378.109 217.286 375.702 217.286H354.994V191.628Z" fill="#AAAAAA"/>
<path d="M318.336 406.231C318.336 406.231 325.209 324.589 338.956 296.598V156.642H377.903V216.109L352.702 408.564L318.336 406.231Z" fill="#E6AF0D"/>
<path d="M353.192 414.448C359.557 422.004 364.988 430.326 369.367 439.226C368.139 424.257 363.78 410.999 352.702 396.901C346.635 389.183 343.845 375.585 342.808 360.852L338.096 399.237C343.44 404.27 348.641 409.022 353.192 414.448Z" fill="#AAAAAA"/>
<path d="M435.919 474.185C427.654 457.792 420.279 442.427 418.056 435.638C417.355 429.575 416.537 424.243 415.868 420.303C414.702 413.568 414.108 406.743 414.093 399.904C414.11 381.536 415.636 351.688 417.006 324.9C418.126 302.995 419.142 283.136 419.142 273.272C419.142 247.614 403.105 184.632 403.105 184.632C403.105 184.632 384.776 109.989 373.321 109.989C361.866 109.989 361.866 154.309 361.866 154.309C361.866 179.967 371.03 238.283 371.03 238.283C361.866 252.279 348.12 317.592 348.12 317.592L336.665 410.896L337.255 435.611H336.661V494.876L338.801 500.324L338.958 506.894L341.373 506.871L341.4 506.939C347.473 506.431 353.533 505.739 359.571 504.857C383.993 501.288 408.508 494.396 428.367 480.144C430.982 478.267 433.497 476.276 435.919 474.185Z" fill="#FFC20E"/>
<path d="M164.927 472.44L180.875 340.918L151.091 319.924L86.9413 310.594L82.0471 319.924L65.5017 404.795C95.2608 431.715 128.595 454.895 164.927 472.44Z" fill="#FFC20E"/>
<path d="M334.374 0H194.621C179.437 0 167.128 12.5323 167.128 27.9917V335.898C167.128 351.357 179.437 363.89 194.621 363.89H334.374C349.558 363.89 361.866 351.357 361.866 335.898V27.9917C361.866 12.5323 349.558 0 334.374 0Z" fill="white"/>
<path d="M181.713 3.28119C177.309 5.66401 173.624 9.22245 171.055 13.575C168.486 17.9275 167.128 22.91 167.128 27.9882V335.895C167.128 343.319 170.025 350.439 175.181 355.688C180.336 360.938 187.329 363.887 194.62 363.887H334.373C341.407 363.884 348.171 361.133 353.273 356.202C358.374 351.271 361.423 344.536 361.791 337.384C235.194 321.888 192.568 84.0263 181.713 3.28119Z" fill="#F3F3F3"/>
<path d="M334.374 0.00366211H194.622C187.33 0.00379529 180.338 2.95297 175.182 8.20242C170.026 13.4519 167.13 20.5716 167.13 27.9954V335.902C167.13 343.326 170.026 350.445 175.182 355.695C180.338 360.944 187.33 363.893 194.622 363.893H334.374C341.666 363.893 348.658 360.944 353.814 355.695C358.97 350.445 361.866 343.326 361.866 335.902V27.9944C361.866 20.5708 358.969 13.4513 353.814 8.20207C348.658 2.95283 341.665 0.00379528 334.374 0.00366211ZM354.991 335.902C354.985 341.467 352.811 346.803 348.946 350.739C345.081 354.674 339.84 356.889 334.374 356.896H194.622C189.156 356.888 183.915 354.674 180.05 350.739C176.185 346.803 174.011 341.467 174.005 335.902V27.9944C174.011 22.4289 176.185 17.0932 180.05 13.1575C183.915 9.22189 189.156 7.00764 194.622 7.00046H226.124L226.385 8.06256C227.128 11.0906 228.845 13.7787 231.261 15.6995C233.677 17.6203 236.655 18.6636 239.72 18.6635H289.277C292.342 18.6632 295.319 17.6199 297.735 15.6993C300.151 13.7787 301.867 11.0911 302.611 8.06357L302.872 7.00147H334.374C339.84 7.00851 345.081 9.22272 348.946 13.1584C352.811 17.0941 354.985 22.4299 354.991 27.9954V335.902Z" fill="#35176D"/>
<path d="M285.118 4.66809H246.17C244.272 4.66809 242.734 6.2346 242.734 8.16699C242.734 10.0994 244.272 11.6659 246.17 11.6659H285.118C287.016 11.6659 288.554 10.0994 288.554 8.16699C288.554 6.2346 287.016 4.66809 285.118 4.66809Z" fill="white"/>
<rect x="186.701" y="134.451" width="154.137" height="95.045" rx="5.21739" fill="#93D9B9"/>
<path d="M238.803 165.396H201.897V205.182H238.803V165.396Z" fill="white"/>
<path d="M305.167 167.607H254V173.395H305.167V167.607Z" fill="#F3F3F3"/>
<path d="M268.213 178.658H254V184.447H268.213V178.658Z" fill="#F3F3F3"/>
<path fill-rule="evenodd" clip-rule="evenodd" d="M506.516 42.0881C506.186 41.7826 506.011 42.036 505.838 42.284C504.327 44.4444 502.824 46.6105 501.299 48.7612C501.065 49.0912 501.121 49.3029 501.335 49.5939C504.108 53.3352 506.872 57.0833 509.629 60.8383C509.838 61.107 510.129 61.2968 510.456 61.3775L545.897 72.5783L557.315 76.1861C557.509 76.2491 557.718 76.2749 557.918 76.3184C557.951 75.7972 557.523 75.6873 557.201 75.4796C554.231 73.5709 551.302 71.6029 548.363 69.638C544.574 67.1112 540.745 64.6493 536.968 62.1105C534.448 60.4172 531.858 58.8325 529.36 57.1132C526.386 55.0637 523.331 53.126 520.339 51.1225C518.316 49.7712 516.289 48.4269 514.257 47.0896C512.376 45.8548 510.463 44.6762 508.64 43.3485C507.965 42.8559 507.217 42.5169 506.516 42.0881Z" fill="#FFC20E"/>
<path fill-rule="evenodd" clip-rule="evenodd" d="M557.156 75.6314C557.449 75.8143 557.773 75.9626 557.918 76.3155C558.048 76.3341 558.282 76.4332 558.179 76.1652C558.036 75.8709 557.867 75.5904 557.675 75.3271C556.122 73.1426 554.453 71.0466 552.824 68.9218C551.063 66.6286 549.309 64.3321 547.533 62.0472C545.614 59.5773 543.722 57.0833 541.813 54.6049C539.824 52.0217 537.82 49.4506 535.848 46.8556C534.255 44.7606 532.654 42.6749 531.044 40.5984C528.812 37.7048 526.596 34.8047 524.364 31.9021C523.918 31.2827 523.439 30.6883 522.929 30.1215C522.791 29.9763 522.69 29.7752 522.438 29.769C522.233 30.1202 522.403 30.5102 522.263 30.8535L520.848 46.4036C520.736 46.7121 520.983 46.8262 521.158 46.9587C524.708 49.7723 528.241 52.6067 531.785 55.4273C535.144 58.1059 538.471 60.8155 541.833 63.487C546.035 66.8246 550.222 70.1831 554.405 73.5451C555.302 74.2642 556.262 74.8925 557.158 75.6243" fill="#B3880A"/>
<path fill-rule="evenodd" clip-rule="evenodd" d="M522.258 30.8561C522.487 30.5872 522.316 30.2332 522.481 29.8892C523.664 31.166 524.634 32.579 525.686 33.9256C527.254 35.9322 528.781 37.9695 530.332 39.9898C532.556 42.8806 534.781 45.7709 537.009 48.6607C538.994 51.2401 540.975 53.8216 542.953 56.4055C545.508 59.7394 548.062 63.0733 550.616 66.4072C552.585 68.9654 554.564 71.5157 556.554 74.058C556.901 74.5012 557.104 75.0911 557.679 75.3303C555.934 72.3569 554.189 69.3824 552.443 66.4066C547.067 57.3117 541.694 48.2182 536.324 39.126C535.64 37.9622 534.609 37.1468 533.691 36.2193C531.458 33.9531 529.189 31.7375 526.951 29.4836C526.836 29.3446 526.686 29.239 526.518 29.1774C526.35 29.1158 526.168 29.1005 525.992 29.133C525.142 29.2742 524.286 29.3538 523.433 29.4696C522.25 29.628 522.25 29.6316 522.265 30.8583" fill="#FFC20E"/>
<path fill-rule="evenodd" clip-rule="evenodd" d="M557.156 75.6321C556.26 74.549 555.059 73.8411 553.99 72.9735C550.287 69.9621 546.569 66.9668 542.836 63.9877C539.535 61.3518 536.209 58.7489 532.905 56.1146C529.175 53.1368 525.454 50.1462 521.743 47.1428C521.443 46.9001 521.016 46.8102 520.848 46.4041C518.843 45.9513 516.917 45.2317 514.95 44.6473C512.132 43.8092 509.325 42.9464 506.514 42.0815C507.248 42.8598 508.233 43.2927 509.093 43.8821C511.872 45.7802 514.701 47.6031 517.511 49.4539C520.674 51.5355 523.866 53.5716 526.985 55.707C529.357 57.3286 531.768 58.8817 534.159 60.4699C537.374 62.6056 540.594 64.7367 543.82 66.8632C546.388 68.5659 548.941 70.2914 551.524 71.9695C553.399 73.1897 555.205 74.522 557.157 75.6231" fill="#CC9B0B"/>
<path d="M355.915 505.368C384.446 497.745 381.587 471.434 374.327 450.946C369.582 437.556 362.27 425.275 353.19 414.451C349.109 409.585 344.507 405.265 339.747 400.795C331.716 393.256 323.235 385.294 316.043 373.578C314.045 370.323 311.107 363.658 307.533 355.55C297.2 332.106 281.549 296.601 267.931 296.601C246.478 296.601 254.907 328.712 259.303 345.461C260.072 348.39 260.717 350.848 261.058 352.584C263.349 364.247 281.675 401.569 281.675 401.569C281.675 401.569 291.858 503.178 341.029 506.97C346.002 506.561 350.965 506.027 355.915 505.368Z" fill="#FFC20E"/>
<path d="M157.962 156.649C157.962 156.649 167.126 168.249 167.126 212.632C167.126 263.95 169.417 343.259 121.306 343.259C118.614 343.263 115.924 343.11 113.25 342.8C91.1085 340.206 75.5676 319.225 78.2621 296.701L93.5026 169.177C93.7078 167.057 94.1971 164.974 94.9571 162.989L144.234 34.2963C144.904 32.5458 146.078 31.0421 147.601 29.9819C149.125 28.9218 150.927 28.3546 152.772 28.3546C157.393 28.3511 161.851 30.0907 165.286 33.2373C168.72 36.384 170.889 40.7146 171.371 45.3933C172.618 57.5138 174.001 73.8526 174.001 86.6721C173.999 109.997 157.962 156.649 157.962 156.649Z" fill="#FFC20E"/>
<path d="M157.961 156.648C157.961 156.648 173.998 109.996 173.998 86.6687C173.998 83.6054 173.915 80.3287 173.778 76.9662C170.957 99.2035 159.071 124.64 151.248 139.45C150.427 141.003 149.95 142.72 149.85 144.481C149.75 146.241 150.03 148.002 150.67 149.641C151.31 151.28 152.294 152.756 153.553 153.967C154.813 155.177 156.317 156.092 157.961 156.648Z" fill="#E6AF0D"/>
<path d="M512.666 37.8408C512.907 37.8334 513.141 37.7529 513.338 37.6097C513.534 37.4665 513.683 37.2671 513.767 37.037C513.851 36.807 513.866 36.5566 513.809 36.3181C513.752 36.0796 513.627 35.8637 513.449 35.6981C512.225 34.5606 510.965 33.4425 509.702 32.379C509.454 32.17 509.134 32.0696 508.814 32.0999C508.493 32.1302 508.197 32.2887 507.991 32.5405C507.785 32.7923 507.687 33.1168 507.716 33.4426C507.746 33.7685 507.902 34.0689 508.15 34.2779C509.383 35.3178 510.614 36.4044 511.808 37.5168C512.041 37.735 512.349 37.8513 512.666 37.8408ZM501.973 29.1881C502.229 29.1804 502.477 29.0906 502.679 28.9315C502.882 28.7725 503.03 28.5524 503.102 28.3027C503.174 28.053 503.167 27.7866 503.081 27.5415C502.995 27.2964 502.835 27.0852 502.624 26.938C501.254 25.9818 499.849 25.0565 498.45 24.1881C498.175 24.0284 497.85 23.9837 497.544 24.0636C497.237 24.1435 496.974 24.3417 496.809 24.616C496.644 24.8903 496.591 25.219 496.661 25.5325C496.731 25.8459 496.918 26.1193 497.183 26.2945C498.547 27.1394 499.92 28.0398 501.249 28.9714C501.461 29.1205 501.715 29.1965 501.973 29.1881ZM409.85 31.7179C410.126 31.7093 410.39 31.6056 410.6 31.4239C411.893 30.304 413.156 29.2383 414.35 28.2578C414.474 28.156 414.577 28.0304 414.653 27.8881C414.73 27.7459 414.778 27.5897 414.794 27.4286C414.811 27.2675 414.797 27.1046 414.752 26.9493C414.707 26.7939 414.632 26.649 414.532 26.523C414.431 26.397 414.308 26.2923 414.168 26.2148C414.027 26.1374 413.874 26.0887 413.715 26.0716C413.557 26.0544 413.396 26.0692 413.243 26.115C413.09 26.1609 412.948 26.2368 412.824 26.3386C411.613 27.3326 410.333 28.4119 409.024 29.5466C408.832 29.7124 408.696 29.9346 408.634 30.1825C408.572 30.4303 408.588 30.6916 408.679 30.93C408.77 31.1685 408.931 31.3724 409.141 31.5136C409.351 31.6548 409.599 31.7262 409.85 31.7179ZM490.159 22.2168C490.434 22.2111 490.698 22.1112 490.909 21.9335C491.12 21.7557 491.266 21.5105 491.323 21.2379C491.379 20.9652 491.343 20.6812 491.22 20.432C491.098 20.1828 490.895 19.9831 490.647 19.8656C489.15 19.1353 487.618 18.4424 486.096 17.8064C485.948 17.7449 485.79 17.7136 485.631 17.7142C485.471 17.7148 485.313 17.7473 485.166 17.8099C485.019 17.8725 484.886 17.9639 484.773 18.0789C484.661 18.1939 484.572 18.3303 484.511 18.4802C484.451 18.6301 484.42 18.7907 484.421 18.9527C484.421 19.1148 484.453 19.2751 484.515 19.4246C484.576 19.574 484.666 19.7097 484.78 19.8239C484.893 19.938 485.027 20.0284 485.175 20.0898C486.653 20.7053 488.14 21.3775 489.596 22.0871C489.769 22.1755 489.961 22.2201 490.155 22.217L490.159 22.2168ZM420.625 23.1679C420.86 23.1608 421.087 23.0845 421.279 22.9483C422.654 21.9763 424.015 21.0709 425.326 20.2567C425.601 20.0859 425.798 19.8113 425.873 19.4933C425.948 19.1752 425.896 18.8398 425.728 18.5608C425.56 18.2818 425.29 18.0821 424.977 18.0055C424.663 17.929 424.333 17.9819 424.058 18.1527C422.708 18.9916 421.304 19.9282 419.892 20.9221C419.677 21.074 419.516 21.2925 419.433 21.5451C419.35 21.7977 419.35 22.0707 419.432 22.3234C419.515 22.5762 419.676 22.795 419.891 22.9472C420.106 23.0994 420.363 23.1768 420.625 23.1679ZM477.396 17.2561C477.684 17.2455 477.958 17.1316 478.171 16.9347C478.384 16.7378 478.521 16.4707 478.557 16.1808C478.594 15.8909 478.529 15.5972 478.373 15.3518C478.216 15.1064 477.979 14.9252 477.704 14.8406C476.071 14.3417 474.471 13.8781 472.949 13.4614C472.637 13.3764 472.306 13.4205 472.027 13.5839C471.748 13.7472 471.544 14.0166 471.46 14.3326C471.376 14.6486 471.42 14.9854 471.581 15.269C471.742 15.5525 472.007 15.7595 472.318 15.8445C473.816 16.2543 475.394 16.7121 477.005 17.2039C477.132 17.2431 477.264 17.2608 477.396 17.2561ZM432.49 16.315C432.641 16.31 432.789 16.2766 432.929 16.2165C434.394 15.578 435.891 15.0149 437.412 14.5294C437.719 14.4319 437.976 14.2143 438.126 13.9246C438.275 13.6348 438.305 13.2966 438.209 12.9843C438.113 12.672 437.899 12.4112 437.614 12.2593C437.329 12.1074 436.996 12.0768 436.688 12.1743C435.088 12.6841 433.514 13.2761 431.972 13.9481C431.712 14.0611 431.499 14.263 431.369 14.5189C431.24 14.7749 431.203 15.0687 431.264 15.3496C431.325 15.6304 431.481 15.8807 431.705 16.057C431.929 16.2333 432.207 16.3246 432.49 16.315ZM464.133 13.8686C464.431 13.8573 464.714 13.7351 464.929 13.5254C465.145 13.3156 465.276 13.0329 465.299 12.731C465.323 12.429 465.236 12.129 465.055 11.8878C464.875 11.6467 464.614 11.4813 464.321 11.4231C462.632 11.0961 460.981 10.8223 459.406 10.6122C459.086 10.5695 458.764 10.6574 458.508 10.8565C458.253 11.0556 458.085 11.3497 458.043 11.674C458.001 11.9983 458.088 12.3263 458.284 12.5858C458.48 12.8454 458.769 13.0152 459.089 13.0579C460.615 13.2682 462.223 13.5279 463.865 13.8473C463.954 13.864 464.043 13.8711 464.133 13.8686ZM445.645 12.7772L445.74 12.7742C447.289 12.6023 448.892 12.5079 450.517 12.4906C450.831 12.4747 451.126 12.3364 451.341 12.1046C451.556 11.8728 451.674 11.5654 451.671 11.2469C451.668 10.9284 451.544 10.6234 451.324 10.3959C451.105 10.1683 450.807 10.0357 450.494 10.026C448.788 10.042 447.106 10.1351 445.476 10.3174C445.161 10.348 444.87 10.5025 444.666 10.7478C444.461 10.9932 444.359 11.31 444.381 11.6308C444.403 11.9516 444.547 12.251 444.784 12.4651C445.02 12.6793 445.329 12.7913 445.645 12.7772Z" fill="#FFEAAB"/>
<path d="M512.666 37.8408C512.907 37.8334 513.141 37.7529 513.338 37.6097C513.534 37.4665 513.683 37.2671 513.767 37.037C513.851 36.807 513.866 36.5566 513.809 36.3181C513.752 36.0796 513.627 35.8637 513.449 35.6981C512.225 34.5606 510.965 33.4425 509.702 32.379C509.454 32.17 509.134 32.0696 508.814 32.0999C508.493 32.1302 508.197 32.2887 507.991 32.5405C507.785 32.7923 507.687 33.1168 507.716 33.4426C507.746 33.7685 507.902 34.0689 508.15 34.2779C509.383 35.3178 510.614 36.4044 511.808 37.5168C512.041 37.735 512.349 37.8513 512.666 37.8408ZM501.973 29.1881C502.229 29.1804 502.477 29.0906 502.679 28.9315C502.882 28.7725 503.03 28.5524 503.102 28.3027C503.174 28.053 503.167 27.7866 503.081 27.5415C502.995 27.2964 502.835 27.0852 502.624 26.938C501.254 25.9818 499.849 25.0565 498.45 24.1881C498.175 24.0284 497.85 23.9837 497.544 24.0636C497.237 24.1435 496.974 24.3417 496.809 24.616C496.644 24.8903 496.591 25.219 496.661 25.5325C496.731 25.8459 496.918 26.1193 497.183 26.2945C498.547 27.1394 499.92 28.0398 501.249 28.9714C501.461 29.1205 501.715 29.1965 501.973 29.1881ZM409.85 31.7179C410.126 31.7093 410.39 31.6056 410.6 31.4239C411.893 30.304 413.156 29.2383 414.35 28.2578C414.474 28.156 414.577 28.0304 414.653 27.8881C414.73 27.7459 414.778 27.5897 414.794 27.4286C414.811 27.2675 414.797 27.1046 414.752 26.9493C414.707 26.7939 414.632 26.649 414.532 26.523C414.431 26.397 414.308 26.2923 414.168 26.2148C414.027 26.1374 413.874 26.0887 413.715 26.0716C413.557 26.0544 413.396 26.0692 413.243 26.115C413.09 26.1609 412.948 26.2368 412.824 26.3386C411.613 27.3326 410.333 28.4119 409.024 29.5466C408.832 29.7124 408.696 29.9346 408.634 30.1825C408.572 30.4303 408.588 30.6916 408.679 30.93C408.77 31.1685 408.931 31.3724 409.141 31.5136C409.351 31.6548 409.599 31.7262 409.85 31.7179ZM490.159 22.2168C490.434 22.2111 490.698 22.1112 490.909 21.9335C491.12 21.7557 491.266 21.5105 491.323 21.2379C491.379 20.9652 491.343 20.6812 491.22 20.432C491.098 20.1828 490.895 19.9831 490.647 19.8656C489.15 19.1353 487.618 18.4424 486.096 17.8064C485.948 17.7449 485.79 17.7136 485.631 17.7142C485.471 17.7148 485.313 17.7473 485.166 17.8099C485.019 17.8725 484.886 17.9639 484.773 18.0789C484.661 18.1939 484.572 18.3303 484.511 18.4802C484.451 18.6301 484.42 18.7907 484.421 18.9527C484.421 19.1148 484.453 19.2751 484.515 19.4246C484.576 19.574 484.666 19.7097 484.78 19.8239C484.893 19.938 485.027 20.0284 485.175 20.0898C486.653 20.7053 488.14 21.3775 489.596 22.0871C489.769 22.1755 489.961 22.2201 490.155 22.217L490.159 22.2168ZM420.625 23.1679C420.86 23.1608 421.087 23.0845 421.279 22.9483C422.654 21.9763 424.015 21.0709 425.326 20.2567C425.601 20.0859 425.798 19.8113 425.873 19.4933C425.948 19.1752 425.896 18.8398 425.728 18.5608C425.56 18.2818 425.29 18.0821 424.977 18.0055C424.663 17.929 424.333 17.9819 424.058 18.1527C422.708 18.9916 421.304 19.9282 419.892 20.9221C419.677 21.074 419.516 21.2925 419.433 21.5451C419.35 21.7977 419.35 22.0707 419.432 22.3234C419.515 22.5762 419.676 22.795 419.891 22.9472C420.106 23.0994 420.363 23.1768 420.625 23.1679ZM477.396 17.2561C477.684 17.2455 477.958 17.1316 478.171 16.9347C478.384 16.7378 478.521 16.4707 478.557 16.1808C478.594 15.8909 478.529 15.5972 478.373 15.3518C478.216 15.1064 477.979 14.9252 477.704 14.8406C476.071 14.3417 474.471 13.8781 472.949 13.4614C472.637 13.3764 472.306 13.4205 472.027 13.5839C471.748 13.7472 471.544 14.0166 471.46 14.3326C471.376 14.6486 471.42 14.9854 471.581 15.269C471.742 15.5525 472.007 15.7595 472.318 15.8445C473.816 16.2543 475.394 16.7121 477.005 17.2039C477.132 17.2431 477.264 17.2608 477.396 17.2561ZM432.49 16.315C432.641 16.31 432.789 16.2766 432.929 16.2165C434.394 15.578 435.891 15.0149 437.412 14.5294C437.719 14.4319 437.976 14.2143 438.126 13.9246C438.275 13.6348 438.305 13.2966 438.209 12.9843C438.113 12.672 437.899 12.4112 437.614 12.2593C437.329 12.1074 436.996 12.0768 436.688 12.1743C435.088 12.6841 433.514 13.2761 431.972 13.9481C431.712 14.0611 431.499 14.263 431.369 14.5189C431.24 14.7749 431.203 15.0687 431.264 15.3496C431.325 15.6304 431.481 15.8807 431.705 16.057C431.929 16.2333 432.207 16.3246 432.49 16.315ZM464.133 13.8686C464.431 13.8573 464.714 13.7351 464.929 13.5254C465.145 13.3156 465.276 13.0329 465.299 12.731C465.323 12.429 465.236 12.129 465.055 11.8878C464.875 11.6467 464.614 11.4813 464.321 11.4231C462.632 11.0961 460.981 10.8223 459.406 10.6122C459.086 10.5695 458.764 10.6574 458.508 10.8565C458.253 11.0556 458.085 11.3497 458.043 11.674C458.001 11.9983 458.088 12.3263 458.284 12.5858C458.48 12.8454 458.769 13.0152 459.089 13.0579C460.615 13.2682 462.223 13.5279 463.865 13.8473C463.954 13.864 464.043 13.8711 464.133 13.8686ZM445.645 12.7772L445.74 12.7742C447.289 12.6023 448.892 12.5079 450.517 12.4906C450.831 12.4747 451.126 12.3364 451.341 12.1046C451.556 11.8728 451.674 11.5654 451.671 11.2469C451.668 10.9284 451.544 10.6234 451.324 10.3959C451.105 10.1683 450.807 10.0357 450.494 10.026C448.788 10.042 447.106 10.1351 445.476 10.3174C445.161 10.348 444.87 10.5025 444.666 10.7478C444.461 10.9932 444.359 11.31 444.381 11.6308C444.403 11.9516 444.547 12.251 444.784 12.4651C445.02 12.6793 445.329 12.7913 445.645 12.7772Z" fill="#FFEAAB"/>
</svg>
