<svg width="481" height="573" viewBox="0 0 481 573" fill="none" xmlns="http://www.w3.org/2000/svg">
<g opacity="0.5">
<path d="M177.365 468.922C168.507 433.004 160.237 393.229 135.593 371.213C114.826 352.658 86.833 351.168 64.8582 334.864C35.6803 313.213 21.9801 266.562 28.5819 225.339C35.1836 184.116 59.6262 149.25 89.6372 129.398C119.648 109.545 154.675 103.484 188.677 105.598C807.001 144 266.044 828.504 177.365 468.922Z" fill="#FFF6DB"/>
</g>
<path d="M434.869 217.176C451.251 199.49 451.251 170.816 434.869 153.131C418.487 135.445 391.927 135.445 375.545 153.131C359.163 170.816 359.163 199.49 375.545 217.176C391.927 234.862 418.487 234.862 434.869 217.176Z" fill="#FFC20E"/>
<path d="M425.45 166.25C431.556 185.045 412.052 209.543 412.052 209.543C412.052 209.543 384.022 203.042 377.915 184.247C371.809 165.452 400.22 172.77 400.22 172.77C400.22 172.77 419.333 147.452 425.45 166.25Z" fill="white"/>
<path d="M35.1384 539.128C51.2608 539.128 64.3305 525.018 64.3305 507.613C64.3305 490.207 51.2608 476.098 35.1384 476.098C19.0161 476.098 5.94635 490.207 5.94635 507.613C5.94635 525.018 19.0161 539.128 35.1384 539.128Z" fill="white"/>
<path fill-rule="evenodd" clip-rule="evenodd" d="M236.795 175.047L280.916 529.959C281.454 534.321 280.991 538.048 279.738 543.831C278.935 545.736 277.66 547.363 276.054 548.535L276.036 548.549H275.982L275.964 548.563H275.93L275.912 548.576H275.894L275.876 548.59H275.804L275.786 548.604H275.771L275.752 548.618H275.68L275.662 548.632H275.644L275.626 548.646H275.521L275.503 548.66H275.485L275.469 548.674H275.397L275.379 548.688H275.361L275.343 548.702H275.219L275.201 548.715H275.183L275.168 548.729H275.095L275.077 548.743H275.059L275.041 548.757H274.936L274.918 548.771H274.812L274.794 548.785H274.776L274.758 548.799H274.688L274.67 548.813H274.652L274.634 548.827H274.529L274.511 548.841H274.475L274.456 548.855H274.402L274.384 548.868H274.351L274.333 548.882H274.279L274.261 548.896H274.227L274.209 548.91H274.191L274.173 548.924H274.101L274.083 548.938H274.067L274.049 548.952H273.977L273.959 548.966H273.941L273.923 548.98H273.817L273.799 548.994H273.766L273.748 549.008H273.694L273.676 549.021H273.658L273.64 549.035H273.534L273.516 549.049H273.48L273.462 549.063H273.392L273.374 549.077H273.356L273.338 549.091H273.233L273.215 549.105H273.109L273.091 549.119H273.073L273.055 549.133H272.985L272.967 549.147H272.949L272.931 549.161H272.826L272.808 549.174H272.771L272.753 549.188H272.699L272.681 549.202H272.648L272.63 549.216H272.576L272.558 549.23H272.522L272.506 549.244H272.488L272.47 549.258H272.398L272.38 549.272H272.362L272.346 549.286H272.274L272.256 549.3H272.238L272.223 549.314H272.114L272.096 549.327H272.06L272.045 549.341H271.991L271.973 549.355H271.955L271.937 549.369H271.831L271.813 549.383H271.777L271.759 549.397H271.689L271.671 549.411H271.653L271.635 549.425H271.53L271.512 549.439H271.406L271.388 549.453H271.37L271.352 549.467H271.28L271.264 549.48H271.246L271.228 549.494H271.122L271.104 549.508H271.068L271.05 549.522H270.996L270.978 549.536H270.945L270.927 549.55H270.873L270.854 549.564H270.818L270.803 549.578H270.785L270.767 549.592H270.695L270.677 549.606H270.661L270.643 549.619H270.571L270.553 549.633H270.535L270.517 549.647H270.411L270.393 549.661H270.375L270.357 549.675H270.288L270.27 549.689H270.234L270.215 549.703H270.128L270.11 549.717H270.074L270.056 549.731H270.004L269.986 549.745H269.95L269.932 549.759H269.826L269.808 549.772H269.703L269.685 549.786H269.667L269.649 549.8H269.577L269.561 549.814H269.543L269.525 549.828H269.417L269.401 549.842H269.365L269.347 549.856H269.278L269.257 549.87H269.242L269.224 549.884H269.169L269.151 549.898H269.115L269.1 549.912H269.082L269.064 549.925H268.992L268.974 549.939H268.956L268.94 549.953H268.868L268.85 549.967H268.832L268.814 549.981H268.708L268.69 549.995H268.672L268.654 550.009H268.585L268.567 550.023H268.548L268.53 550.037H268.407L268.389 550.051H268.371L268.353 550.065H268.283L268.265 550.078H268.247L268.229 550.092H268.123L268.105 550.106H268L267.982 550.12H267.964L267.946 550.134H267.873L267.858 550.148H267.84L267.822 550.162H267.714L267.698 550.176H267.662L267.644 550.19H267.59L267.572 550.204H267.538L267.52 550.218H267.412L267.397 550.231H267.379L267.361 550.245H267.289L267.271 550.259H267.252L267.237 550.273H267.183C264.212 552.409 260.113 552.838 255.364 551.083L125.185 502.897C117.956 500.222 111.05 493.151 106.773 484.848C104.64 480.706 103.159 476.261 102.615 471.9L58.497 116.971C57.6439 110.108 59.2845 104.816 62.598 101.907C65.8616 99.042 69.6963 97.8938 73.3919 95.9537C76.2324 94.4626 79.891 94.3269 84.0458 95.8642L214.225 144.049C225.059 148.066 235.167 161.938 236.795 175.047ZM79.6039 136.033L116.812 435.33L256.645 487.106L219.44 187.792L79.6039 136.033Z" fill="#82BFA3"/>
<path d="M215.435 144.05L85.2563 95.8644C74.422 91.8534 66.9629 99.2301 68.5887 112.337L112.707 467.266C113.248 471.627 114.729 476.072 116.865 480.217C121.142 488.517 128.047 495.588 135.277 498.264L265.459 546.435C272.688 549.111 278.419 546.713 280.944 540.933C282.206 538.048 282.67 534.321 282.129 529.96L238.008 175.048C236.377 161.938 226.272 148.061 215.435 144.05ZM267.979 490.848L118.025 435.342L79.5853 126.114L229.539 181.618L267.979 490.848Z" fill="#93D9B9"/>
<path d="M229.53 181.622L267.969 490.852L118.015 435.346L79.5757 126.119L229.53 181.622Z" fill="white"/>
<path d="M126.385 361.743C127.883 363.84 129.139 366.127 130.124 368.552C130.624 369.768 131.085 371.006 131.484 372.263C131.883 373.52 132.257 374.788 132.584 376.065C133.901 381.175 134.674 386.357 135.514 391.364C136.354 396.371 137.317 401.197 138.804 405.708C140.291 410.22 142.352 414.331 145.245 417.555C146.803 419.225 148.498 420.74 150.308 422.081C152.161 423.472 154.119 424.826 156.134 426.111C158.149 427.396 160.2 428.684 162.274 429.936L168.509 433.761C176.818 438.934 185.032 444.475 192.519 451.006L186.011 447.688C184.929 447.132 183.849 446.575 182.762 446.05C181.675 445.524 180.595 444.968 179.511 444.431C175.172 442.286 170.825 440.192 166.458 438.105C162.091 436.019 157.718 433.897 153.374 431.499C151.207 430.289 149.033 429.032 146.91 427.566C146.376 427.207 145.851 426.821 145.325 426.44C145.068 426.248 144.81 426.039 144.552 425.839C144.295 425.638 144.037 425.438 143.779 425.221C142.728 424.372 141.724 423.458 140.77 422.484C138.823 420.489 137.147 418.207 135.792 415.705C134.478 413.273 133.407 410.698 132.595 408.023C131.803 405.429 131.188 402.775 130.755 400.084C130.309 397.433 130.031 394.782 129.83 392.157C129.026 381.715 129.34 371.737 126.385 361.743Z" fill="#82BFA3"/>
<path d="M184.492 438.348C185.724 438.189 186.94 438.114 188.153 438.07C189.367 438.025 190.57 438.011 191.761 438.017C194.165 438.047 196.554 438.163 198.926 438.365C200.111 438.462 201.294 438.587 202.476 438.721C203.066 438.793 203.659 438.86 204.244 438.938L205.983 439.166C208.302 439.477 210.574 439.792 212.829 440.056C217.34 440.576 221.757 440.924 226.067 440.481C228.24 440.267 230.384 439.792 232.459 439.066C233.534 438.677 234.583 438.212 235.6 437.675L236.373 437.266C236.57 437.167 236.751 437.037 236.912 436.879C236.942 436.847 236.97 436.811 236.994 436.774C237.02 436.737 237.035 436.682 237.053 436.671C237.069 436.629 237.075 436.583 237.07 436.538C237.066 436.493 237.051 436.45 237.028 436.412C236.972 436.298 236.88 436.208 236.77 436.159C236.711 436.125 236.644 436.113 236.578 436.123C236.512 436.134 236.451 436.167 236.404 436.217C236.428 436.124 236.477 436.041 236.545 435.978C236.613 435.915 236.697 435.875 236.785 435.864C236.979 435.834 237.177 435.871 237.35 435.97C237.554 436.081 237.713 436.272 237.793 436.504C237.833 436.625 237.856 436.751 237.862 436.879C237.87 436.999 237.865 437.12 237.847 437.238C237.761 437.656 237.593 438.05 237.355 438.392L237.203 438.621L237.059 438.821L236.767 439.221C235.963 440.3 235.052 441.281 234.049 442.145C231.987 443.871 229.652 445.179 227.157 446.006C224.701 446.823 222.159 447.304 219.592 447.438C217.094 447.58 214.59 447.496 212.105 447.188C209.679 446.892 207.27 446.449 204.891 445.861C204.301 445.722 203.716 445.583 203.133 445.413C202.551 445.243 201.982 445.096 201.407 444.938C200.258 444.607 199.114 444.267 197.973 443.903C195.686 443.18 193.416 442.369 191.163 441.472C190.037 441.016 188.911 440.545 187.795 440.031C186.68 439.516 185.585 438.974 184.492 438.348Z" fill="#82BFA3"/>
<path d="M216.679 455.881C217.805 455.683 218.879 455.536 219.943 455.324C220.201 455.274 220.459 455.222 220.734 455.18L221.507 455.016C221.765 454.955 222.023 454.918 222.28 454.857L223.053 454.679C225.115 454.217 227.104 453.667 229.054 453.058C232.945 451.82 236.657 450.293 239.997 448.279C243.336 446.265 246.26 443.775 248.499 440.535C249.661 438.852 250.623 437.02 251.364 435.08C251.462 434.83 251.575 434.577 251.666 434.321C251.756 434.065 251.828 433.798 251.923 433.534L252.181 432.738C252.269 432.46 252.33 432.182 252.41 431.92C252.49 431.659 252.56 431.364 252.642 431.086L252.766 430.666L252.861 430.237C252.998 429.667 253.119 429.089 253.299 428.493C253.513 429.05 253.688 429.634 253.866 430.221C253.91 430.368 253.954 430.516 253.992 430.663L254.085 431.111C254.149 431.408 254.201 431.709 254.26 432.015C254.319 432.321 254.384 432.624 254.41 432.933L254.492 433.862C254.523 434.173 254.538 434.485 254.559 434.802C254.58 435.119 254.559 435.428 254.559 435.748C254.526 438.347 254.013 440.912 253.049 443.294C252.06 445.72 250.672 447.933 248.953 449.825C247.261 451.688 245.326 453.274 243.209 454.532C241.15 455.764 238.962 456.727 236.691 457.4C234.466 458.065 232.181 458.468 229.876 458.601C227.597 458.739 225.311 458.597 223.061 458.178C222.502 458.064 221.948 457.959 221.397 457.803L220.572 457.575C220.299 457.491 220.028 457.394 219.761 457.297C218.693 456.935 217.661 456.461 216.679 455.881Z" fill="#82BFA3"/>
<path d="M140.491 328.212C140.453 328.936 140.375 329.657 140.256 330.37C140.179 331.071 140.071 331.736 139.955 332.384C139.839 333.032 139.754 333.683 139.63 334.304C139.506 334.924 139.419 335.558 139.29 336.159C138.829 338.598 138.339 340.924 137.847 343.252C137.355 345.58 136.847 347.897 136.273 350.309C136.147 350.912 135.997 351.519 135.827 352.136C135.657 352.754 135.526 353.38 135.338 354.017C135.149 354.654 135.003 355.302 134.789 355.964C134.603 356.662 134.379 357.347 134.119 358.017C133.684 357.441 133.293 356.829 132.949 356.186C132.63 355.552 132.351 354.898 132.083 354.239C131.815 353.58 131.645 352.89 131.457 352.203C131.269 351.516 131.166 350.812 131.05 350.111C130.289 344.422 131.531 338.63 134.531 333.881C134.92 333.302 135.325 332.738 135.745 332.192C136.165 331.647 136.652 331.146 137.133 330.657C137.615 330.167 138.164 329.728 138.702 329.308C139.271 328.893 139.869 328.526 140.491 328.212Z" fill="#82BFA3"/>
<path d="M207.83 509.157C213.164 505.044 212.464 494.119 206.268 484.755C200.072 475.39 190.726 471.134 185.392 475.247C180.059 479.36 180.759 490.285 186.955 499.649C193.151 509.013 202.497 513.27 207.83 509.157Z" fill="white"/>
<path d="M287.866 247.136C320.557 280.09 316.322 398.98 360.849 341.529C395.686 296.579 379.964 309.58 387.784 295.538C395.604 281.497 417.324 273.055 418.187 281.497C418.187 285.717 414.714 286.07 414.714 286.07C414.714 286.07 429.05 289.235 440.126 280.785C451.203 272.334 458.046 282.893 453.81 293.447C449.574 304 429.05 315.958 408.523 314.553C387.995 313.149 349.876 476.719 312.081 400.379C274.285 324.038 269.398 295.908 259.298 288.17C249.198 280.432 271.454 247.595 287.866 247.136Z" fill="#35176D"/>
<mask id="mask0_121_8" style="mask-type:alpha" maskUnits="userSpaceOnUse" x="256" y="247" width="200" height="174">
<path d="M287.861 247.115C320.552 280.068 316.316 398.958 360.844 341.507C395.681 296.557 379.959 309.558 387.779 295.517C395.599 281.476 417.319 273.033 418.182 281.476C418.182 285.695 414.709 286.048 414.709 286.048C414.709 286.048 429.044 289.214 440.121 280.763C451.197 272.313 458.041 282.872 453.805 293.425C449.569 303.978 429.044 315.936 408.517 314.532C387.99 313.127 349.87 476.698 312.075 400.357C274.28 324.017 269.392 295.887 259.292 288.149C249.192 280.41 271.448 247.574 287.861 247.115Z" fill="#FCC0A9"/>
</mask>
<g mask="url(#mask0_121_8)">
<path d="M264.117 330.697C271.771 321.351 279.491 311.941 288.692 304.392C297.892 296.843 308.788 291.196 320.321 290.462C317.543 278.027 313.039 266.117 306.962 255.136C303.947 249.69 300.33 244.288 295.071 241.434C284.309 235.623 271.625 242.546 261.465 249.5C254.483 254.299 247.037 259.951 244.88 268.574C243.077 275.7 245.357 283.199 247.596 290.173C251.425 302.085 255.253 313.997 259.08 325.907" fill="#FFC20E"/>
</g>
<path d="M168.834 236.269C168.035 237.691 167.252 239.112 166.484 240.53C137.132 294.757 129.465 348.9 152.326 399.823C165.358 428.036 241.384 458.066 255.735 411.725C258.343 401.544 253.981 266.805 287.867 247.128C243.553 232.199 168.834 236.269 168.834 236.269Z" fill="#FFC20E"/>
<path d="M178.035 268.446C161.354 325.121 159.337 381.355 191.244 429.838C174.716 427.543 165.387 421.09 155.707 406.442C137.965 379.592 136.715 347.649 139.5 314.804C140.376 304.446 142.381 294.054 146.815 284.819C151.249 275.584 158.312 267.554 167.262 263.704" fill="#E6AF0D"/>
<path d="M198.037 235.77C227.033 223.809 235.505 206.925 238.764 192.503C267.436 206.221 260.592 203.056 260.592 203.056C260.592 203.056 247.272 229.041 261.309 240.741C223.776 277.274 198.037 235.77 198.037 235.77Z" fill="#35176D"/>
<path d="M168.787 235.799C187.949 235.243 187.421 285.973 159.254 289.881C-13.43 313.842 113.134 332.648 125.277 382.697C128.565 396.232 121.67 408.465 112.109 406.59C98.8371 403.99 94.6966 410.893 94.6966 424.042C94.6966 447.293 81.832 429.677 80.0954 416.532C78.3589 403.386 68.1713 390.638 89.6466 384.602C113.093 378.007 63.6031 356.464 39.3116 344.297C15.02 332.13 14.1749 299.313 39.3116 286.182C64.4482 273.05 67.9419 262.588 168.782 235.796" fill="#35176D"/>
<mask id="mask1_121_8" style="mask-type:alpha" maskUnits="userSpaceOnUse" x="20" y="235" width="162" height="201">
<path d="M168.793 235.809C187.954 235.253 187.426 285.983 159.259 289.892C-13.4247 313.852 113.14 332.658 125.283 382.707C128.57 396.242 121.676 408.476 112.114 406.601C98.8424 404 94.7019 410.904 94.7019 424.052C94.7019 447.304 81.8373 429.688 80.1007 416.542C78.3641 403.396 68.1765 390.649 89.6519 384.613C113.098 378.017 63.6083 356.474 39.3168 344.308C15.0253 332.141 14.1802 299.324 39.3168 286.192C64.4534 273.06 67.9472 262.599 168.787 235.807" fill="#FCC0A9"/>
</mask>
<g mask="url(#mask1_121_8)">
<path d="M114.725 232.89C127.157 249.126 129.842 271.259 134.539 291.707C135.94 297.801 138.628 304.925 144.376 305.893C146.643 306.274 148.931 305.553 151.126 304.839L178.623 295.907C181.81 294.872 185.126 293.757 187.512 291.253C191.936 286.614 191.704 279.014 191.163 272.378C189.895 256.898 187.754 239.597 176.41 230.031C168.747 223.572 158.196 222.173 148.658 224.19C139.12 226.206 130.383 231.271 122.084 236.734" fill="#FFC20E"/>
</g>
<path d="M234.535 171.754C244.962 221.352 250.826 226.943 267.118 224.148C283.409 221.352 283.406 194.618 281.453 168.939C279.5 143.259 257.981 122.15 240.394 140.447C222.806 158.744 234.535 171.754 234.535 171.754Z" fill="#35176D"/>
<path d="M237.137 140.092C215.169 160.253 282.324 156.637 282.324 156.637C266.785 116.877 243.653 134.106 237.137 140.092Z" fill="#FFC20E"/>
<path d="M248.541 144.023C249.518 175.246 237.949 187.067 237.949 187.067C219.542 167.507 217.337 149.853 228.338 144.023C239.34 138.192 248.541 144.023 248.541 144.023Z" fill="#FFC20E"/>
<path d="M243.002 187.083C230.295 171.039 224.4 189.564 232.722 194.254C241.044 198.944 240.07 201.642 243.002 197.069C245.934 192.496 243.002 187.083 243.002 187.083Z" fill="#35176D"/>
</svg>
