<svg width="628" height="587" viewBox="0 0 628 587" fill="none" xmlns="http://www.w3.org/2000/svg">
<path d="M321.535 485.195L484.266 484.435C493.665 484.39 502.661 480.574 509.278 473.825C515.895 467.076 519.59 457.947 519.552 448.444L517.829 35.9597C517.808 31.2523 516.871 26.595 515.071 22.2537C513.27 17.9125 510.641 13.9724 507.335 10.6583C504.028 7.34427 500.108 4.72116 495.799 2.93879C491.489 1.15642 486.875 0.249674 482.219 0.270366L319.487 1.03029C310.088 1.07537 301.092 4.89175 294.476 11.6406C287.859 18.3894 284.163 27.5183 284.201 37.021L285.925 449.506C285.945 454.213 286.882 458.87 288.683 463.211C290.484 467.553 293.112 471.493 296.419 474.807C299.726 478.121 303.646 480.744 307.955 482.527C312.264 484.309 316.879 485.216 321.535 485.195Z" fill="#35176D"/>
<path d="M320.617 15.03L352.171 14.8859C353.202 14.896 354.221 15.1133 355.168 15.5252C356.115 15.9371 356.972 16.5355 357.688 17.2853C358.404 18.0352 358.966 18.9216 359.34 19.893C359.715 20.8644 359.894 21.9013 359.868 22.9435V28.7345C359.842 29.7767 360.022 30.8136 360.396 31.785C360.77 32.7564 361.332 33.6428 362.048 34.3926C362.765 35.1425 363.621 35.7408 364.569 36.1527C365.516 36.5647 366.535 36.782 367.566 36.7921L429.053 36.5039C430.086 36.4854 431.104 36.2592 432.049 35.8385C432.994 35.4179 433.846 34.8111 434.557 34.0537C435.267 33.2964 435.821 32.4035 436.187 31.4272C436.553 30.451 436.722 29.4108 436.686 28.3676V22.5897C436.634 20.4882 437.408 18.4515 438.838 16.9263C440.269 15.4011 442.24 14.5118 444.318 14.4535H455.411L483.025 14.3225C489.611 14.2946 495.939 16.9123 500.616 21.6001C505.294 26.2878 507.939 32.6618 507.97 39.3208L509.655 441.835C509.672 445.133 509.046 448.403 507.813 451.457C506.581 454.51 504.765 457.289 502.471 459.633C500.176 461.978 497.447 463.842 494.44 465.12C491.432 466.398 488.205 467.065 484.943 467.082L322.535 467.842C319.273 467.858 316.041 467.223 313.022 465.975C310.003 464.727 307.257 462.89 304.94 460.568C302.623 458.247 300.782 455.487 299.521 452.445C298.26 449.404 297.604 446.142 297.59 442.844L295.918 40.2378C295.903 36.943 296.53 33.6773 297.763 30.6273C298.996 27.5773 300.811 24.8027 303.104 22.4619C305.398 20.1212 308.125 18.2601 311.13 16.9849C314.134 15.7097 317.358 15.0454 320.617 15.03Z" fill="white"/>
<rect x="310.136" y="386.534" width="183.24" height="56.8898" rx="8.56269" fill="#FFF6DB"/>
<rect x="310.136" y="317.356" width="183.24" height="56.8898" rx="8.56269" fill="#FFF6DB"/>
<rect x="310.136" y="248.18" width="56.0938" height="56.8899" rx="8.56269" fill="#FFF6DB"/>
<rect x="373.71" y="248.18" width="56.0938" height="56.8899" rx="8.56269" fill="#FFF6DB"/>
<rect x="437.283" y="248.18" width="56.0938" height="56.8899" rx="8.56269" fill="#FFF6DB"/>
<path d="M296.098 91.9136H508.155L508.394 148.85C505.058 147.36 501.99 145.247 499.363 142.583C493.793 136.933 490.663 129.271 490.663 121.281C490.663 129.271 487.534 136.933 481.963 142.583C476.393 148.232 468.837 151.406 460.959 151.406C453.082 151.406 445.526 148.232 439.956 142.583C434.385 136.933 431.256 129.271 431.256 121.281C431.256 129.271 428.126 136.933 422.556 142.583C416.985 148.232 409.43 151.406 401.552 151.406C393.674 151.406 386.119 148.232 380.548 142.583C374.977 136.933 371.848 129.271 371.848 121.281C371.848 129.271 368.718 136.933 363.148 142.583C357.577 148.232 350.022 151.406 342.144 151.406C334.266 151.406 326.711 148.232 321.14 142.583C315.57 136.933 312.44 129.271 312.44 121.281C312.44 128.501 309.883 135.48 305.235 140.948C302.725 143.901 299.696 146.307 296.331 148.064L296.098 91.9136Z" fill="#FFF6DB"/>
<path d="M253.729 73.4351H313.135V102.803C313.135 110.792 310.006 118.455 304.436 124.104C298.865 129.754 291.31 132.928 283.432 132.928C275.554 132.928 267.999 129.754 262.429 124.104C256.858 118.455 253.729 110.792 253.729 102.803V73.4351Z" fill="#CC9B0B"/>
<path d="M313.136 73.4351H372.543V102.803C372.543 110.792 369.413 118.455 363.843 124.104C358.273 129.754 350.717 132.928 342.84 132.928C334.962 132.928 327.407 129.754 321.836 124.104C316.266 118.455 313.136 110.792 313.136 102.803V73.4351Z" fill="#FFC20E"/>
<path d="M372.543 73.4351H431.95V102.803C431.95 110.792 428.82 118.455 423.25 124.104C417.679 129.754 410.124 132.928 402.246 132.928C394.368 132.928 386.813 129.754 381.243 124.104C375.672 118.455 372.543 110.792 372.543 102.803V73.4351Z" fill="#CC9B0B"/>
<path d="M431.949 73.4351H491.356V102.803C491.356 110.792 488.226 118.455 482.656 124.104C477.085 129.754 469.53 132.928 461.652 132.928C453.774 132.928 446.219 129.754 440.649 124.104C435.078 118.455 431.949 110.792 431.949 102.803V73.4351Z" fill="#FFC20E"/>
<path d="M491.355 73.4351H550.762V102.803C550.762 110.792 547.632 118.455 542.062 124.104C536.492 129.754 528.936 132.928 521.059 132.928C513.181 132.928 505.626 129.754 500.055 124.104C494.485 118.455 491.355 110.792 491.355 102.803V73.4351Z" fill="#CC9B0B"/>
<path d="M313.136 73.4354H253.729L304.596 14.3223H347.047L313.136 73.4354Z" fill="#FFC20E"/>
<path d="M372.543 73.4354H313.136L347.047 14.3223H389.498L372.543 73.4354Z" fill="white"/>
<path d="M491.355 73.4354H550.762L499.896 14.3223H457.445L491.355 73.4354Z" fill="#FFC20E"/>
<path d="M431.949 73.4354H491.356L457.445 14.3223H414.994L431.949 73.4354Z" fill="white"/>
<path d="M431.95 73.4354H372.543L389.498 14.3223H414.994L431.95 73.4354Z" fill="#FFC20E"/>
<path d="M628 485.559C628 486.367 510.69 487.06 366.011 487.06C221.332 487.06 104 486.367 104 485.559C104 484.752 221.287 484.06 366.011 484.06C510.735 484.06 628 484.694 628 485.559Z" fill="#35176D"/>
<path d="M323.56 326.481C323.279 323.104 320.465 302.28 310.052 291.586C305.268 286.802 291.198 278.641 284.725 284.269C274.313 292.993 279.097 318.883 283.318 337.456C296.826 340.552 311.459 336.049 323.56 326.481Z" fill="white"/>
<path d="M272.624 478.445C271.499 477.038 259.117 478.164 258.835 479.008C258.554 481.259 257.709 489.983 259.117 491.109C260.242 492.235 272.624 492.235 272.906 489.983C272.906 488.013 273.469 479.852 272.624 478.445Z" fill="#FFC20E"/>
<path d="M257.99 488.295C257.99 488.295 252.08 496.456 256.301 502.928C256.301 502.928 286.131 504.617 295.136 503.21C295.136 503.21 295.418 492.235 287.82 491.109C280.222 489.983 272.342 490.265 272.342 490.265C272.342 490.265 263.618 494.486 257.99 488.295Z" fill="#35176D"/>
<path d="M275.719 483.23L261.648 483.511L253.769 483.793H253.487C253.487 483.793 253.487 483.793 253.487 483.511C253.769 479.853 258.553 434.545 259.678 415.69C259.96 412.032 245.889 413.439 229.567 415.409C210.712 417.379 189.043 419.63 183.696 413.72C176.379 405.559 206.772 356.593 227.316 365.035C242.231 370.945 275.156 362.503 297.669 379.95C318.775 396.273 279.94 467.752 275.719 483.23Z" fill="#93D9B9"/>
<path d="M263.055 403.589C254.612 397.961 244.482 393.739 235.195 389.8C235.195 389.237 234.914 388.392 234.069 388.392C231.818 387.83 229.285 388.392 227.315 389.8C226.471 390.362 226.753 391.488 227.315 392.051C225.627 399.649 226.19 407.529 229.285 414.845C229.285 415.127 229.567 415.408 229.567 415.408C245.889 413.72 259.959 412.031 259.678 415.69C258.552 434.544 254.05 479.852 253.487 483.511L253.768 483.792L261.648 483.511C266.15 462.686 269.809 441.298 270.09 419.911C270.372 412.876 268.965 407.529 263.055 403.589Z" fill="#82BFA3"/>
<path d="M114.469 484.918C116.158 484.355 118.127 473.661 117.565 473.38C115.595 472.254 107.715 468.314 106.027 469.159C104.619 469.721 99.554 479.852 101.524 480.978C103.212 481.541 112.781 485.481 114.469 484.918Z" fill="#FFC20E"/>
<path d="M226.472 489.702C202.551 501.521 135.293 491.672 112.499 486.043C112.499 486.043 111.654 479.008 111.373 473.661C111.092 470.566 110.81 468.033 111.092 467.752C122.911 468.314 185.385 469.159 195.235 454.525C200.019 447.771 175.254 410.062 176.943 385.297C177.224 381.076 178.35 377.136 180.601 373.759C183.415 369.256 187.355 366.442 191.576 364.754C210.15 357.156 236.884 373.759 232.944 386.141C232.663 386.141 263.9 471.41 226.472 489.702Z" fill="#93D9B9"/>
<path d="M199.738 434.826C194.673 421.881 181.165 403.026 195.798 391.206C196.924 390.362 196.08 388.674 195.235 388.674C192.421 382.201 187.919 378.543 180.883 383.045C179.476 383.89 178.069 384.734 176.943 385.86C175.255 410.624 200.019 448.334 195.235 455.088C185.104 469.721 122.63 468.877 111.092 468.314C111.092 468.596 111.092 471.128 111.374 474.224C117.002 476.475 124.6 476.757 130.791 477.882C144.299 479.852 157.526 479.571 171.034 477.601C181.446 476.194 191.296 473.942 197.768 464.937C204.241 455.369 203.678 444.675 199.738 434.826Z" fill="#82BFA3"/>
<path d="M302.454 287.083C302.454 287.083 310.053 298.621 296.263 315.506C291.761 320.853 282.755 335.205 273.75 347.025C273.187 344.492 268.122 326.481 268.403 324.512L286.414 313.818L302.454 287.083Z" fill="#F3F3F3"/>
<path d="M283.318 327.044C278.815 333.517 274.594 339.427 272.624 343.367C270.936 346.744 270.373 349.839 270.373 352.372C270.373 356.312 271.78 359.689 272.343 363.066C272.624 365.317 272.624 367.85 271.78 370.382C269.528 372.352 252.362 392.896 226.753 396.554C206.492 399.368 170.189 396.273 170.752 392.333C171.033 388.674 194.109 329.014 203.959 310.722C206.492 306.22 209.024 301.717 211.557 297.215C218.311 285.958 225.346 276.108 230.693 270.199C232.382 268.229 234.07 266.54 235.477 265.696C236.04 265.415 236.603 264.852 236.884 264.852C239.136 263.726 241.95 263.163 245.327 263.163C264.744 262.882 293.449 275.546 303.58 287.646C304.424 297.777 292.886 312.974 283.318 327.044Z" fill="white"/>
<path d="M272.343 362.503C272.343 362.784 272.343 362.784 272.343 362.784C272.062 363.629 271.499 363.91 270.655 363.91C255.74 362.784 243.92 352.935 236.603 340.271C232.101 332.954 231.819 324.512 227.317 317.477C226.472 316.07 212.402 304.25 211.276 296.933C218.03 285.677 225.065 275.827 230.412 269.917C230.412 269.917 237.448 300.873 232.664 306.22C232.382 306.501 231.819 307.064 231.538 307.346C239.136 317.758 247.016 326.482 257.147 334.643C263.056 339.708 267.84 345.055 270.373 351.809C271.499 355.186 272.343 358.845 272.343 362.503Z" fill="#F3F3F3"/>
<path d="M265.87 312.41C263.338 308.752 238.01 267.665 235.196 265.414C235.759 265.133 236.322 264.57 236.603 264.57C238.573 263.444 241.669 262.881 245.046 262.881C265.589 265.977 286.132 313.536 265.87 312.41Z" fill="#F3F3F3"/>
<path d="M289.49 278.152C289.49 278.152 290.805 289.701 281.289 286.734C269.993 283.114 269.946 273.611 264.976 266.517C264.976 266.517 272.458 257.143 273.605 244.389L292.201 257.014C292.201 257.014 286.121 265.321 289.49 278.152Z" fill="#35176D"/>
<path d="M313.112 243.03C316.749 226.685 310.343 211.369 298.806 208.821C287.268 206.272 274.966 217.456 271.329 233.801C267.692 250.146 274.097 265.461 285.635 268.01C297.173 270.559 309.475 259.375 313.112 243.03Z" fill="#35176D"/>
<path d="M306.649 240.238C306.649 240.238 309.697 252.349 309.552 258.576C309.685 259.672 308.875 260.421 307.931 260.074C304.932 259.496 299.404 258.514 297.045 257.648C294.384 256.148 306.649 240.238 306.649 240.238Z" fill="#35176D"/>
<path d="M278.884 224.88C278.884 224.88 283.74 227.174 287.547 222.449C291.354 217.724 298.784 221.472 302.649 226.463C306.515 231.453 310.711 235.545 317.8 234.576C323.19 234.004 332.717 227.808 327.433 218.215C322.44 209.24 315.235 214.757 313.525 209.538C311.815 204.319 305.541 197.423 299.782 200.411C293.567 203.231 286.225 202.066 281.165 201.739C271.502 201.252 266.88 213.841 267.259 217.041C268.231 227.091 264.172 229.682 260.442 231.374C256.548 233.516 256.481 242.165 264.076 245.463C275.905 251.337 273.087 229.384 278.884 224.88Z" fill="#FFC20E"/>
<path d="M278.704 230.852C278.704 230.852 276.949 224.258 271.869 226.72C266.963 228.706 266.553 242.62 273.299 241.31C280.044 240 278.704 230.852 278.704 230.852Z" fill="#35176D"/>
<path d="M91.1113 468.033C99.5538 464.093 109.685 469.722 109.685 469.722C101.524 475.35 107.152 482.385 107.152 482.385C107.152 482.385 106.589 485.481 105.182 492.798C111.092 495.893 107.715 500.396 107.715 500.396C100.679 502.647 93.3627 499.833 93.3627 499.833C91.9556 490.265 91.1113 468.033 91.1113 468.033Z" fill="#35176D"/>
<path d="M367.281 292.352L383.205 268.131L358.985 252.207L343.06 276.427L367.281 292.352Z" fill="#CC9B0B"/>
<path d="M372.153 295.529L388.078 271.309L363.857 255.384L347.933 279.604L372.153 295.529Z" fill="#E6AF0D"/>
<path d="M362.395 267.666C346.917 257.253 335.66 240.65 332.846 220.669C327.499 183.523 353.389 149.19 390.255 143.843C410.235 141.029 429.371 146.939 443.442 159.04C429.934 150.034 413.331 145.813 396.165 148.346C359.018 153.693 333.409 188.025 338.756 225.172C341.289 242.338 350.012 257.253 362.395 267.666Z" fill="#E6AF0D"/>
<path d="M473.272 206.036C470.458 186.055 459.202 169.452 443.724 159.321C430.216 150.316 413.612 146.095 396.446 148.627C359.299 153.974 333.691 188.307 339.037 225.454C341.57 242.62 350.294 257.535 362.676 267.947C377.028 279.767 395.883 285.958 415.864 283.144C452.729 277.515 478.619 242.901 473.272 206.036ZM356.485 222.639C352.545 195.342 371.682 170.015 398.979 166.075C426.276 162.135 451.603 181.271 455.543 208.569C459.483 235.866 440.628 261.193 413.05 265.133C385.752 269.073 360.425 249.937 356.485 222.639Z" fill="#FFC20E"/>
<path opacity="0.16" d="M406.015 265.695C433.68 265.695 456.107 243.268 456.107 215.604C456.107 187.939 433.68 165.512 406.015 165.512C378.35 165.512 355.923 187.939 355.923 215.604C355.923 243.268 378.35 265.695 406.015 265.695Z" fill="#FFF0C3"/>
<path d="M406.015 256.69C405.17 256.127 404.326 255.002 404.326 253.876C404.045 251.625 405.733 249.374 407.984 249.092C427.683 246.278 441.473 227.986 438.659 208.287C438.377 206.036 440.066 203.784 442.317 203.503C444.568 203.221 446.82 204.91 447.101 207.161C450.478 231.363 433.593 254.158 409.392 257.535C407.984 257.535 406.859 257.535 406.015 256.69Z" fill="white"/>
<path d="M269.809 409.217C260.804 403.026 258.553 390.925 264.463 381.92L339.6 270.761L372.244 292.711L297.107 403.87C291.197 412.875 278.815 415.127 269.809 409.217Z" fill="#E6AF0D"/>
<path d="M276.001 413.157C266.996 406.966 264.744 394.865 270.654 385.86L345.792 274.701L378.436 296.652L303.298 407.81C297.389 417.097 285.006 419.348 276.001 413.157Z" fill="#FFC20E"/>
<path d="M321.59 383.046C323.841 384.171 327.218 385.015 330.032 383.608C334.253 381.076 333.972 376.01 332.002 372.07C330.876 369.538 328.344 366.442 325.529 366.161C323.841 366.161 322.997 366.723 323.56 368.131C323.841 368.693 324.685 369.256 325.248 369.819C326.374 370.945 327.499 372.352 327.781 374.04C328.062 376.292 327.781 374.603 327.218 373.759C326.655 372.915 325.811 372.07 324.967 371.226C323.841 370.382 320.464 367.849 318.494 368.975C316.243 370.382 319.901 372.633 320.745 373.196C321.59 373.759 324.404 376.01 324.122 376.854C323.841 376.292 322.715 375.447 322.715 375.447C321.871 374.885 321.027 374.04 319.62 373.759C317.931 373.477 316.524 374.322 316.806 375.729C317.087 376.854 319.338 377.699 320.183 378.262C320.745 378.543 321.308 379.106 321.59 379.387C322.434 380.231 322.152 380.231 320.745 379.387C319.901 379.106 318.775 378.543 317.931 378.262C317.65 378.262 316.806 378.262 316.806 378.824C316.524 380.513 319.901 382.201 321.59 383.046Z" fill="#35176D"/>
<path d="M330.876 367.568C331.439 365.879 332.565 364.191 334.253 364.191C335.942 364.191 336.786 365.879 335.941 367.287C335.379 368.131 334.534 368.975 333.972 369.819C333.409 370.664 333.127 371.508 333.127 372.352C333.127 373.196 333.127 374.041 333.127 374.885C333.127 376.011 331.439 377.136 330.876 375.729C329.469 373.759 329.469 370.101 330.876 367.568Z" fill="#35176D"/>
<path d="M330.595 303.405L339.319 310.159C339.319 310.159 300.202 355.748 278.252 354.341C256.583 352.934 235.195 332.391 235.477 308.189C235.758 301.154 252.362 290.741 259.397 292.43C266.714 294.4 274.03 332.672 277.97 329.858C282.473 327.044 330.595 303.405 330.595 303.405Z" fill="#35176D"/>
<path d="M335.66 312.973C337.63 312.973 337.63 311.285 339.037 310.159C340.444 308.752 347.198 307.064 347.761 304.531C348.606 301.435 342.977 305.375 342.696 303.405C342.696 302.561 351.701 297.777 346.636 297.214C345.51 296.933 340.726 299.465 341.57 297.777C343.54 296.37 348.043 294.118 346.636 292.149C346.073 291.304 343.259 292.43 341.852 293.274C335.942 297.495 337.912 294.4 342.133 291.867C344.384 290.46 344.103 288.772 341.289 289.053C335.66 289.897 331.439 296.37 330.032 301.154C329.751 303.405 331.158 312.692 335.66 312.973Z" fill="#35176D"/>
<path d="M332.003 300.028C332.003 299.184 332.003 298.339 332.003 297.495C332.003 296.651 332.003 295.244 331.721 294.399C330.877 292.992 330.033 294.118 329.47 294.962C328.626 296.932 329.752 301.716 330.314 303.405C330.314 303.968 331.721 300.872 332.003 300.028Z" fill="#35176D"/>
<path d="M271.499 308.471C271.217 305.094 268.403 284.269 257.991 273.575C253.207 268.791 239.136 260.63 232.664 266.258C222.251 274.982 227.035 300.872 231.256 319.446C245.046 322.541 259.398 318.039 271.499 308.471Z" fill="white"/>
</svg>
