<svg width="590" height="527" viewBox="0 0 590 527" fill="none" xmlns="http://www.w3.org/2000/svg">
<path d="M590 491.427C590 492.137 457.915 492.745 295.013 492.745C132.11 492.745 0 492.137 0 491.427C0 490.718 132.06 490.11 295.013 490.11C457.965 490.11 590 490.667 590 491.427Z" fill="#35176D"/>
<path d="M63.6684 284.093C136.953 419.425 234.118 229.225 315.593 228.372C383.672 227.665 373.909 316.014 460.501 265.911C499.893 243.111 519.538 166.486 511.965 127.358C461.545 -134.437 -61.9188 52.3366 63.6684 284.093Z" fill="#FFF6DB"/>
<path d="M302.902 527C422.185 527 518.884 519.332 518.884 509.873C518.884 500.413 422.185 492.745 302.902 492.745C183.618 492.745 86.9197 500.413 86.9197 509.873C86.9197 519.332 183.618 527 302.902 527Z" fill="#FFF6DB"/>
<path d="M462.143 185.479C461.907 189.612 461.407 193.408 460.849 197.35C460.29 201.292 459.481 205.117 458.628 208.971C456.878 216.834 454.28 224.484 450.879 231.786C449.679 234.082 448.029 236.113 446.027 237.758C444.383 239.157 442.633 240.426 440.792 241.554C437.358 243.659 433.775 245.512 430.073 247.099C422.887 250.181 415.474 252.704 407.899 254.645L406.076 249.188C409.458 247.717 412.928 246.084 416.281 244.422C419.633 242.76 422.986 241.083 426.191 239.259C429.36 237.521 432.42 235.591 435.352 233.478C436.703 232.509 437.98 231.442 439.175 230.286C440.089 229.449 440.841 228.452 441.395 227.344C442.738 224.054 443.892 220.689 444.851 217.267C445.792 213.752 446.659 210.206 447.395 206.603C448.13 202.999 448.718 199.35 449.247 195.688C449.777 192.025 450.203 188.333 450.527 184.802L462.143 185.479Z" fill="#FFC20E"/>
<path d="M454.218 171.666C449.527 172.858 446.248 192.172 446.248 192.172L459.173 200.998C459.173 200.998 471.568 181.522 467.995 176.373C464.202 170.887 461.07 169.857 454.218 171.666Z" fill="#82BFA3"/>
<path d="M408.737 248.893L400.665 240.714L399.606 252.247C399.606 252.247 405.649 256.336 409.899 254.145L408.737 248.893Z" fill="#FFC20E"/>
<path d="M391.165 239.493L390.798 249.187L399.606 252.247L400.664 240.714L391.165 239.493Z" fill="#FFC20E"/>
<path d="M479.597 496.582H468.216L467.451 470.221H478.832L479.597 496.582Z" fill="#FFC20E"/>
<path d="M580.011 443.713L571.336 451.083L551.486 433.357L560.161 425.987L580.011 443.713Z" fill="#FFC20E"/>
<path d="M568.967 450.201L577.334 440.565C577.473 440.395 577.67 440.282 577.888 440.249C578.106 440.216 578.328 440.266 578.51 440.389L587.083 445.949C587.294 446.096 587.472 446.287 587.604 446.507C587.737 446.728 587.821 446.974 587.852 447.23C587.882 447.486 587.859 447.745 587.782 447.991C587.705 448.236 587.577 448.463 587.406 448.656C584.466 451.966 582.804 453.407 579.113 457.644C576.834 460.247 573.776 464.293 570.644 467.941C567.512 471.589 563.777 468.617 564.762 466.838C569.173 458.865 568.115 456.055 568.188 452.128C568.205 451.412 568.482 450.727 568.967 450.201Z" fill="#35176D"/>
<path d="M467.82 495.286H480.612C480.833 495.283 481.047 495.361 481.214 495.504C481.382 495.648 481.492 495.847 481.524 496.065L482.994 506.186C483.021 506.441 482.994 506.699 482.914 506.943C482.835 507.187 482.705 507.411 482.533 507.601C482.361 507.791 482.151 507.943 481.916 508.046C481.681 508.15 481.427 508.203 481.171 508.201C476.76 508.201 474.554 507.863 468.937 507.863C465.482 507.863 458.321 508.231 453.557 508.231C448.793 508.231 448.513 503.494 450.513 503.067C459.424 501.155 462.938 498.507 465.938 495.977C466.469 495.541 467.132 495.297 467.82 495.286Z" fill="#35176D"/>
<path d="M467.451 470.235L467.848 483.827H479.229L478.847 470.235H467.451Z" fill="#E6AF0D"/>
<path d="M560.175 425.987L551.5 433.357L561.734 442.492L570.409 435.122L560.175 425.987Z" fill="#E6AF0D"/>
<path d="M454.217 171.666C454.217 171.666 448.806 173.578 459.658 240.376H505.872C505.093 221.562 505.078 209.956 514.062 171.328C507.596 169.983 501.04 169.113 494.447 168.724C487.457 168.216 480.44 168.216 473.45 168.724C464.436 169.518 454.217 171.666 454.217 171.666Z" fill="#93D9B9"/>
<path d="M480.289 173.519L484.465 182.051C484.465 182.051 501.977 176.697 499.683 168.989L493.802 168.312L480.289 173.519Z" fill="white"/>
<path d="M479.965 172.725L474.083 181.433C474.083 181.433 461.614 176.02 470.216 168.739L473.878 168.312L479.965 172.725Z" fill="white"/>
<path d="M498.74 109.884C504.137 104.691 498.961 80.287 513.165 88.3628C531.222 98.6599 542.882 85.1855 536.853 80.0664C549.528 80.9637 548.293 95.3942 543.014 103.146C529.619 122.873 502.593 104.117 502.431 114.135C502.269 124.152 498.74 109.884 498.74 109.884Z" fill="#35176D"/>
<path d="M490.949 106.368C497.139 101.47 518.284 105.545 503.786 125.271L490.949 106.368Z" fill="#93D9B9"/>
<path d="M494.211 115.533C512.239 118.225 513.503 147.528 485.521 152.073L494.211 115.533Z" fill="#35176D"/>
<path d="M492.361 145.055C491.038 151.807 489.714 164.178 494.449 168.694C494.449 168.694 492.596 175.534 480.054 175.534C466.261 175.534 473.452 168.694 473.452 168.694C480.98 166.884 480.804 161.339 479.48 156.058L492.361 145.055Z" fill="#FFC20E"/>
<path d="M487.11 149.6L479.479 156.102C479.814 157.324 480.031 158.575 480.126 159.838C483.066 159.412 486.963 156.249 487.272 153.248C487.441 152.032 487.386 150.796 487.11 149.6Z" fill="#E6AF0D"/>
<path d="M463.907 137.23C457.687 129.213 449.585 108.531 473.832 106.545L463.907 137.23Z" fill="#35176D"/>
<path d="M491.905 127.815C493.375 139.024 494.257 143.731 489.787 150.498C483.068 160.692 468.981 160.089 464.188 149.556C459.85 140.083 458.144 123.358 468.099 116.827C470.289 115.375 472.813 114.509 475.433 114.308C478.052 114.108 480.679 114.58 483.064 115.681C485.449 116.782 487.513 118.475 489.061 120.599C490.608 122.722 491.587 125.206 491.905 127.815Z" fill="#FFC20E"/>
<path d="M459.703 240.318C459.703 240.318 450.734 328.004 451.469 362.72C452.248 398.833 465.482 481.195 465.482 481.195H480.862C480.862 481.195 478.422 400.937 479.789 365.485C481.259 326.813 493.552 240.318 493.552 240.318H459.703Z" fill="#93D9B9"/>
<path d="M482.156 481.738H464.099L462.776 475.986L482.994 475.28L482.156 481.738Z" fill="#82BFA3"/>
<path d="M479.596 262.132C468.245 284.977 477.317 326.65 481.331 342.154C483.39 318.869 486.86 290.405 489.565 269.502C487.845 257.675 484.831 251.6 479.596 262.132Z" fill="#82BFA3"/>
<path d="M471.863 240.318C471.863 240.318 482.332 331.52 490.243 360.748C499.624 395.508 557.881 442.271 557.881 442.271L569.718 432.21C569.718 432.21 527.459 381.416 520.283 363.073C504.961 324.003 518.077 265.781 505.829 240.288L471.863 240.318Z" fill="#93D9B9"/>
<path d="M571.644 431.68L556.97 444.139L551.5 440.859L568.086 425.413L571.644 431.68Z" fill="#82BFA3"/>
<path d="M464.114 120.799C464.114 120.799 473.687 135.318 491.332 137.23C491.332 137.23 509.55 120.681 498.346 109.208C480.201 90.6435 458.556 114.297 464.114 120.799Z" fill="#35176D"/>
<path d="M495.741 136.48C495.717 137.56 495.479 138.625 495.039 139.613C494.6 140.6 493.969 141.49 493.183 142.231C491.065 144.217 488.683 142.643 488.154 139.951C487.683 137.524 488.154 133.582 490.874 132.596C491.461 132.399 492.088 132.352 492.698 132.46C493.307 132.567 493.881 132.826 494.365 133.212C494.849 133.598 495.228 134.1 495.469 134.671C495.709 135.241 495.803 135.863 495.741 136.48Z" fill="#FFC20E"/>
<path d="M478.051 130.33C477.917 130.332 477.786 130.285 477.684 130.198C477.191 129.734 476.597 129.392 475.948 129.2C475.299 129.009 474.614 128.972 473.949 129.095C473.88 129.115 473.808 129.121 473.738 129.112C473.667 129.103 473.598 129.081 473.537 129.045C473.475 129.009 473.421 128.961 473.378 128.904C473.335 128.847 473.304 128.782 473.287 128.712C473.251 128.574 473.271 128.427 473.343 128.303C473.414 128.179 473.532 128.088 473.67 128.05C474.508 127.878 475.376 127.91 476.2 128.143C477.024 128.376 477.78 128.803 478.404 129.389C478.505 129.491 478.561 129.628 478.561 129.772C478.561 129.915 478.505 130.052 478.404 130.154C478.314 130.256 478.187 130.319 478.051 130.33Z" fill="#35176D"/>
<path d="M530.282 228.049V226.739C530.282 224.974 530.032 223.283 529.855 221.576C528.965 214.97 527.559 208.443 525.65 202.056C523.804 195.73 521.604 189.513 519.062 183.433L508.226 187.846C510.416 193.524 512.49 199.511 514.387 205.395C515.298 208.337 516.166 211.279 516.916 214.221C517.666 217.163 518.386 220.105 518.901 223.047L519.209 225.004C518.195 224.665 517.151 224.298 516.092 223.856C510.534 221.591 504.858 218.649 499.256 215.825L496.006 220.576C500.992 224.907 506.367 228.768 512.063 232.109C513.594 232.995 515.18 233.781 516.813 234.462C517.728 234.859 518.672 235.189 519.636 235.448C520.21 235.61 520.795 235.733 521.386 235.816C522.172 235.916 522.967 235.916 523.753 235.816C525.05 235.701 526.291 235.233 527.341 234.462C528.647 233.491 529.569 232.09 529.943 230.505C530.166 229.705 530.28 228.879 530.282 228.049ZM522.371 225.857H522.635C522.797 225.842 522.591 225.872 522.297 225.857H522.371Z" fill="#FFC20E"/>
<path d="M514.107 171.268C518.739 172.739 524.297 188.626 524.297 188.626L506.343 201.482C506.343 201.482 499.785 188.17 501.741 182.183C503.711 175.946 508.784 169.664 514.107 171.268Z" fill="#82BFA3"/>
<path d="M565.85 455.686C565.615 455.68 565.386 455.621 565.177 455.514C564.968 455.407 564.786 455.255 564.644 455.069C564.532 454.951 564.454 454.806 564.417 454.648C564.381 454.49 564.388 454.325 564.438 454.171C564.85 452.774 568.849 451.641 569.246 451.523C569.299 451.508 569.354 451.508 569.407 451.524C569.459 451.539 569.505 451.57 569.54 451.612C569.566 451.656 569.58 451.707 569.58 451.759C569.58 451.81 569.566 451.861 569.54 451.906C568.835 453.244 567.423 455.51 565.997 455.686H565.85ZM568.791 452.23C567.217 452.73 565.188 453.598 564.967 454.333C564.944 454.4 564.942 454.472 564.96 454.54C564.979 454.608 565.017 454.669 565.07 454.715C565.171 454.861 565.308 454.977 565.469 455.052C565.629 455.127 565.806 455.158 565.982 455.142C566.732 455.054 567.761 453.98 568.776 452.23H568.791Z" fill="#93D9B9"/>
<path d="M567.526 452.274C566.35 452.396 565.172 452.064 564.232 451.347C564.096 451.182 564.021 450.974 564.021 450.759C564.021 450.544 564.096 450.336 564.232 450.171C564.349 450.003 564.499 449.861 564.674 449.755C564.849 449.648 565.044 449.579 565.246 449.553C566.864 449.361 569.364 451.48 569.466 451.583C569.505 451.611 569.533 451.65 569.549 451.694C569.565 451.739 569.567 451.787 569.555 451.833C569.548 451.88 569.528 451.925 569.497 451.962C569.466 451.998 569.424 452.025 569.378 452.039C568.776 452.207 568.151 452.287 567.526 452.274ZM565.526 450.068H565.349C565.219 450.082 565.094 450.126 564.982 450.194C564.87 450.263 564.775 450.355 564.702 450.465C564.511 450.744 564.585 450.906 564.702 451.009C565.188 451.642 567.423 451.877 568.79 451.642C567.874 450.843 566.763 450.3 565.57 450.068H565.526Z" fill="#93D9B9"/>
<path d="M463.555 497.257C462.58 497.346 461.604 497.097 460.791 496.551C460.608 496.39 460.468 496.186 460.383 495.957C460.299 495.729 460.272 495.483 460.306 495.242C460.315 495.093 460.361 494.948 460.441 494.822C460.521 494.696 460.631 494.593 460.762 494.521C462.159 493.771 466.643 496.08 467.202 496.345C467.252 496.371 467.293 496.412 467.319 496.462C467.345 496.512 467.356 496.568 467.349 496.624C467.344 496.679 467.32 496.729 467.283 496.769C467.246 496.809 467.197 496.836 467.143 496.845C465.964 497.1 464.762 497.238 463.555 497.257ZM461.526 494.903C461.353 494.892 461.181 494.928 461.026 495.006C460.974 495.031 460.929 495.071 460.898 495.12C460.866 495.17 460.85 495.227 460.85 495.286C460.821 495.445 460.835 495.608 460.889 495.761C460.943 495.913 461.036 496.048 461.159 496.154C461.85 496.771 463.717 496.889 466.246 496.462C464.773 495.679 463.177 495.151 461.526 494.903Z" fill="#93D9B9"/>
<path d="M467.055 496.86H466.938C465.585 496.242 462.909 493.801 463.114 492.447C463.114 492.138 463.379 491.756 464.129 491.682C464.393 491.653 464.661 491.68 464.914 491.761C465.168 491.842 465.401 491.976 465.6 492.153C467.07 493.344 467.305 496.404 467.305 496.566C467.313 496.611 467.307 496.657 467.289 496.699C467.27 496.741 467.24 496.776 467.202 496.801C467.161 496.836 467.109 496.857 467.055 496.86ZM464.35 492.241H464.188C463.688 492.241 463.659 492.477 463.644 492.55C463.526 493.315 465.335 495.257 466.717 496.095C466.614 494.796 466.099 493.564 465.247 492.58C465.002 492.376 464.697 492.257 464.379 492.241H464.35Z" fill="#93D9B9"/>
<path d="M500.874 217.135L497.051 205.441L490.963 215.282C490.963 215.282 494.551 221.651 499.286 221.548L500.874 217.135Z" fill="#FFC20E"/>
<path d="M489.065 200.116L484.418 208.633L490.918 215.282L497.005 205.441L489.065 200.116Z" fill="#FFC20E"/>
<path d="M506.565 237.596L507.756 241.744C507.917 242.053 507.535 242.392 506.991 242.392H459.438C459.012 242.392 458.674 242.186 458.644 241.921L458.233 237.861C458.233 237.567 458.556 237.331 459.012 237.331H505.815C505.952 237.31 506.092 237.323 506.223 237.369C506.354 237.415 506.471 237.493 506.565 237.596Z" fill="#35176D"/>
<path d="M500.286 242.833H501.535C501.785 242.833 501.977 242.701 501.962 242.554L501.374 237.17C501.374 237.008 501.138 236.89 500.889 236.89H499.639C499.389 236.89 499.198 237.008 499.212 237.17L499.8 242.554C499.815 242.701 500.036 242.833 500.286 242.833Z" fill="white"/>
<path d="M462.951 242.833H464.201C464.451 242.833 464.642 242.701 464.627 242.554L464.039 237.17C464.039 237.008 463.804 236.89 463.554 236.89H462.304C462.054 236.89 461.863 237.008 461.878 237.17L462.466 242.554C462.481 242.701 462.642 242.833 462.951 242.833Z" fill="white"/>
<path d="M481.61 242.833H482.874C483.124 242.833 483.315 242.701 483.286 242.554L482.698 237.17C482.698 237.008 482.463 236.89 482.213 236.89H480.963C480.713 236.89 480.522 237.008 480.536 237.17L481.125 242.554C481.165 242.646 481.234 242.723 481.321 242.773C481.408 242.824 481.51 242.845 481.61 242.833Z" fill="white"/>
<path d="M334.13 510.35H431.397C433.666 510.376 435.915 509.928 438 509.034C440.086 508.139 441.961 506.819 443.506 505.156C445.052 503.494 446.232 501.527 446.973 499.382C447.714 497.236 447.998 494.96 447.807 492.698L424.545 159.898C424.141 155.139 421.987 150.7 418.499 147.439C415.012 144.178 410.438 142.327 405.665 142.246H308.398C306.129 142.22 303.88 142.668 301.794 143.562C299.709 144.457 297.833 145.777 296.288 147.44C294.743 149.102 293.562 151.069 292.822 153.214C292.081 155.36 291.797 157.636 291.988 159.898L315.25 492.712C315.657 497.469 317.813 501.905 321.3 505.163C324.788 508.421 329.359 510.269 334.13 510.35Z" fill="#FFC20E"/>
<path d="M321.396 510.35H418.648C420.917 510.376 423.166 509.928 425.252 509.034C427.337 508.139 429.213 506.819 430.758 505.156C432.303 503.494 433.484 501.527 434.224 499.382C434.965 497.236 435.249 494.96 435.058 492.698L411.796 159.898C411.393 155.139 409.239 150.7 405.751 147.439C402.263 144.178 397.69 142.327 392.916 142.246H295.664C293.395 142.22 291.146 142.668 289.06 143.562C286.975 144.457 285.1 145.777 283.554 147.44C282.009 149.102 280.828 151.069 280.088 153.214C279.347 155.36 279.063 157.636 279.254 159.898L302.516 492.698C302.919 497.457 305.074 501.896 308.561 505.157C312.049 508.418 316.623 510.268 321.396 510.35Z" fill="#35176D"/>
<path d="M339.453 248.245H357.451C357.875 248.263 358.297 248.188 358.689 248.027C359.081 247.866 359.434 247.622 359.723 247.312C360.012 247.002 360.231 246.633 360.364 246.23C360.497 245.828 360.542 245.401 360.495 244.98L356.186 183.345C356.113 182.463 355.714 181.639 355.067 181.035C354.42 180.432 353.572 180.091 352.687 180.079H334.719C334.296 180.064 333.876 180.14 333.485 180.302C333.095 180.464 332.744 180.708 332.457 181.018C332.169 181.328 331.952 181.696 331.819 182.098C331.687 182.499 331.643 182.925 331.69 183.345L335.998 244.98C336.07 245.854 336.463 246.672 337.101 247.274C337.738 247.877 338.576 248.223 339.453 248.245Z" fill="white"/>
<path d="M239.51 510.347H142.243C139.974 510.373 137.725 509.925 135.639 509.031C133.554 508.136 131.678 506.816 130.133 505.154C128.588 503.491 127.407 501.525 126.667 499.379C125.926 497.233 125.642 494.957 125.833 492.695L149.095 159.895C149.501 155.138 151.657 150.7 155.144 147.44C158.631 144.179 163.202 142.328 167.975 142.243H265.242C267.511 142.217 269.76 142.665 271.845 143.559C273.931 144.454 275.806 145.774 277.351 147.437C278.897 149.099 280.077 151.066 280.818 153.211C281.558 155.357 281.842 157.634 281.652 159.895L258.39 492.695C257.986 497.454 255.832 501.893 252.344 505.154C248.856 508.415 244.283 510.266 239.51 510.347Z" fill="#35176D"/>
<path d="M226.762 510.347H129.509C127.24 510.373 124.991 509.925 122.906 509.031C120.82 508.136 118.945 506.816 117.4 505.154C115.854 503.491 114.674 501.525 113.933 499.379C113.193 497.233 112.908 494.957 113.099 492.695L136.361 159.895C136.765 155.137 138.919 150.697 142.407 147.436C145.894 144.175 150.468 142.325 155.241 142.243H252.494C254.762 142.217 257.012 142.665 259.097 143.559C261.182 144.454 263.058 145.774 264.603 147.437C266.148 149.099 267.329 151.066 268.07 153.211C268.81 155.357 269.094 157.634 268.903 159.895L245.642 492.695C245.238 497.454 243.084 501.893 239.596 505.154C236.108 508.415 231.535 510.266 226.762 510.347Z" fill="#35176D"/>
<path d="M241.348 491.193H120.76C120.453 491.192 120.15 491.128 119.868 491.005C119.587 490.882 119.334 490.702 119.125 490.478C118.915 490.253 118.754 489.988 118.651 489.699C118.548 489.41 118.505 489.102 118.525 488.796L141.184 164.602C141.225 164.033 141.48 163.501 141.898 163.114C142.315 162.726 142.864 162.511 143.434 162.513L264.007 162.513C264.315 162.512 264.621 162.575 264.904 162.697C265.187 162.819 265.441 162.998 265.652 163.223C265.863 163.448 266.026 163.714 266.13 164.004C266.234 164.294 266.277 164.603 266.257 164.91L243.554 489.105C243.517 489.667 243.269 490.194 242.86 490.581C242.451 490.969 241.911 491.187 241.348 491.193Z" fill="white"/>
<path d="M238.231 195.698H155.109C152.85 195.737 150.685 196.613 149.034 198.157C147.382 199.7 146.362 201.801 146.169 204.054L137.509 327.912C137.418 328.983 137.553 330.062 137.904 331.078C138.255 332.095 138.815 333.026 139.548 333.813C140.28 334.6 141.17 335.225 142.158 335.648C143.146 336.07 144.212 336.281 145.287 336.267H151.051L148.11 345.343C154.911 344.73 161.2 341.471 165.623 336.267H228.409C230.668 336.228 232.833 335.352 234.485 333.809C236.136 332.266 237.156 330.164 237.349 327.912L246.01 204.054C246.098 202.982 245.961 201.905 245.609 200.89C245.257 199.874 244.697 198.944 243.965 198.157C243.233 197.371 242.345 196.746 241.358 196.322C240.37 195.899 239.305 195.686 238.231 195.698Z" fill="#FFF6DB"/>
<path d="M143.567 361.202H226.689C227.764 361.188 228.83 361.399 229.818 361.822C230.806 362.245 231.696 362.869 232.428 363.656C233.161 364.443 233.721 365.375 234.072 366.391C234.423 367.408 234.558 368.486 234.467 369.558L230.747 422.764C230.555 425.016 229.534 427.117 227.883 428.661C226.232 430.204 224.067 431.08 221.807 431.119H216.029L217.646 440.195C214.458 439.929 211.364 438.98 208.573 437.415C205.783 435.849 203.361 433.702 201.472 431.119H138.656C137.581 431.133 136.515 430.922 135.527 430.499C134.538 430.077 133.649 429.452 132.917 428.665C132.184 427.878 131.624 426.946 131.273 425.93C130.922 424.914 130.787 423.835 130.877 422.764L134.598 369.558C134.791 367.3 135.815 365.195 137.473 363.651C139.131 362.107 141.302 361.234 143.567 361.202Z" fill="#FFF6DB"/>
<path d="M218.631 151.555C218.572 152.301 218.239 152.998 217.696 153.512C217.152 154.026 216.437 154.319 215.69 154.335C215.332 154.341 214.977 154.271 214.648 154.13C214.318 153.99 214.022 153.782 213.778 153.52C213.535 153.258 213.348 152.948 213.232 152.609C213.115 152.271 213.071 151.912 213.102 151.555C213.166 150.812 213.501 150.118 214.044 149.605C214.586 149.093 215.297 148.797 216.043 148.775C216.4 148.769 216.756 148.839 217.085 148.979C217.414 149.12 217.71 149.328 217.954 149.59C218.198 149.852 218.384 150.162 218.501 150.5C218.617 150.839 218.661 151.198 218.631 151.555Z" fill="white"/>
<path d="M204.311 154.335H184.916C184.559 154.338 184.205 154.267 183.877 154.126C183.549 153.985 183.253 153.777 183.01 153.515C182.766 153.254 182.58 152.944 182.463 152.607C182.345 152.269 182.299 151.911 182.328 151.555C182.389 150.81 182.724 150.114 183.266 149.601C183.809 149.088 184.522 148.794 185.269 148.775H204.664C205.021 148.771 205.375 148.843 205.703 148.984C206.031 149.125 206.326 149.333 206.57 149.594C206.813 149.856 206.999 150.165 207.117 150.503C207.234 150.84 207.28 151.199 207.251 151.555C207.19 152.299 206.856 152.995 206.313 153.508C205.77 154.021 205.057 154.316 204.311 154.335Z" fill="white"/>
<path d="M82.3267 218.25L84.6353 222.766C85.444 224.237 86.2674 225.841 87.1202 227.356C88.8259 230.401 90.561 233.417 92.3843 236.344C95.8644 242.109 99.8502 247.554 104.295 252.613C105.397 253.716 106.588 255.04 107.353 255.643C108.421 256.506 109.563 257.274 110.764 257.938C113.628 259.449 116.607 260.728 119.675 261.763C126.285 263.958 133.016 265.77 139.834 267.191L139.364 275.296C131.706 275.745 124.023 275.296 116.47 273.957C112.445 273.26 108.504 272.151 104.706 270.648C102.593 269.804 100.573 268.744 98.6776 267.485C97.6966 266.831 96.763 266.108 95.8839 265.323L93.5606 263.278C87.9498 257.832 82.9682 251.773 78.7095 245.214C76.5774 242.022 74.563 238.786 72.725 235.461C71.7986 233.799 70.887 232.122 70.0194 230.43C69.1519 228.739 68.3285 227.091 67.4609 225.179L82.3267 218.25Z" fill="#35176D"/>
<path d="M136.892 267.19L143.436 262.571L146.891 275.928C146.891 275.928 141.127 277.958 136.789 275.031L136.892 267.19Z" fill="#35176D"/>
<path d="M152.464 259.541L154.787 270.72L146.876 275.927L143.421 262.571L152.464 259.541Z" fill="#35176D"/>
<path d="M193.349 247.7L191.57 247.376C189.711 247.054 187.803 247.17 185.997 247.714L180.865 249.274C183.484 243.857 184.466 237.794 183.688 231.827C183.071 227.326 179.689 228.356 179.689 228.356C179.689 228.356 174.733 247.067 164.441 254.246L161.206 256.496L165.823 289.461L169.631 289.108C171.102 289.108 179.468 289.108 184.864 289.108C186.45 289.04 188.001 288.616 189.4 287.867C190.8 287.119 192.014 286.065 192.952 284.784C195.701 281.143 197.276 276.751 197.466 272.192L198.436 256.849C198.672 252.319 196.495 248.244 193.349 247.7Z" fill="#FFC20E"/>
<path d="M151.533 297.11L166.031 293.948C167.164 293.712 167.958 292.153 167.781 290.491L164.002 252.73C163.826 251.068 162.767 249.921 161.635 250.156L147.137 253.319C146.004 253.554 145.21 255.113 145.387 256.776L149.166 294.536C149.342 296.198 150.401 297.346 151.533 297.11Z" fill="#E6AF0D"/>
<path d="M78.2112 175.37C79.6817 183.269 81.2991 197.759 75.7704 203.025C75.7704 203.025 77.9319 211.057 92.6212 211.057C108.796 211.057 100.326 203.025 100.326 203.025C91.5037 200.921 91.7537 194.39 93.2829 188.315L78.2112 175.37Z" fill="#35176D"/>
<path d="M73.536 205.291C72.4773 202.702 72.6538 197.936 73.4331 197.862C76.4915 197.656 92.813 197.612 98.2094 199.686C98.9231 199.911 99.5849 200.276 100.156 200.76C100.728 201.243 101.198 201.835 101.538 202.502C101.879 203.168 102.084 203.896 102.141 204.642C102.198 205.389 102.106 206.139 101.871 206.85L73.536 205.291Z" fill="#C4EAD9"/>
<path d="M37.4666 501.169C36.5174 501.164 35.5713 501.06 34.6435 500.86C34.5958 500.852 34.5519 500.829 34.5177 500.795C34.4835 500.76 34.4606 500.717 34.4523 500.669C34.4457 500.62 34.4517 500.57 34.4697 500.523C34.4877 500.477 34.5171 500.436 34.5552 500.404C34.6876 500.316 37.6725 498.286 39.2458 498.639C39.4158 498.676 39.5759 498.749 39.7154 498.853C39.8549 498.957 39.9705 499.09 40.0545 499.242C40.1826 499.42 40.2514 499.633 40.2514 499.852C40.2514 500.072 40.1826 500.285 40.0545 500.463C39.692 500.747 39.2763 500.956 38.8319 501.077C38.3874 501.199 37.9233 501.23 37.4666 501.169ZM35.3639 500.492C36.9814 500.757 39.187 500.757 39.6575 500.139C39.6575 500.139 39.834 499.904 39.6575 499.492C39.6099 499.402 39.543 499.324 39.4617 499.263C39.3804 499.202 39.2866 499.16 39.187 499.139C37.8033 499.208 36.4718 499.689 35.3639 500.522V500.492Z" fill="#93D9B9"/>
<path d="M34.7016 500.902H34.5693C34.5285 500.879 34.4955 500.844 34.4745 500.803C34.4536 500.761 34.4456 500.713 34.4517 500.667C34.4517 500.534 34.7164 497.416 35.9221 496.386C36.0748 496.261 36.2511 496.168 36.4406 496.112C36.63 496.057 36.8288 496.04 37.0249 496.063C37.2167 496.066 37.4017 496.135 37.5489 496.258C37.6961 496.381 37.7966 496.551 37.8336 496.739C38.0542 497.946 35.8927 500.299 34.7899 500.917L34.7016 500.902ZM36.8778 496.489C36.6664 496.492 36.4629 496.57 36.3044 496.71C35.5403 497.679 35.0936 498.861 35.0251 500.093C36.1279 499.255 37.5101 497.475 37.3778 496.754C37.3778 496.754 37.3778 496.533 36.9955 496.489H36.8778Z" fill="#93D9B9"/>
<path d="M22.2327 500.639H33.0402L42.9948 475.617H32.2021L22.2327 500.639Z" fill="#35176D"/>
<path d="M33.8942 499.389H21.7634C21.5469 499.39 21.3373 499.465 21.169 499.602C21.0007 499.738 20.8837 499.927 20.837 500.139L18.7049 509.745C18.6562 509.978 18.6609 510.22 18.7186 510.452C18.7763 510.684 18.8855 510.9 19.0381 511.084C19.1907 511.268 19.3828 511.414 19.6001 511.514C19.8173 511.613 20.0542 511.662 20.293 511.657C24.5277 511.583 26.5863 511.333 31.9239 511.333C35.2029 511.333 41.9667 511.686 46.5103 511.686C51.0538 511.686 51.6273 507.273 49.7746 506.788C41.4521 504.964 38.3201 502.448 35.6587 500.065C35.1753 499.628 34.5461 499.387 33.8942 499.389Z" fill="#93D9B9"/>
<path d="M124.829 224.364C129.054 229.573 133.263 234.934 137.417 240.246L149.868 256.198L152.975 260.116C153.657 261.078 154.422 261.979 155.261 262.808C157.233 264.461 159.493 265.736 161.927 266.569C167.83 268.643 173.952 270.032 180.172 270.709L180.724 278.803C178.917 279.173 177.091 279.447 175.254 279.624C173.435 279.838 171.606 279.958 169.774 279.983C165.993 280.088 162.211 279.777 158.498 279.054C154.281 278.293 150.258 276.695 146.668 274.353C144.857 273.055 143.203 271.551 141.738 269.871L138.226 266.028C133.61 260.89 129.119 255.7 124.753 250.457C120.394 245.168 116.133 239.846 111.979 234.37L124.829 224.364Z" fill="#35176D"/>
<path d="M48.3627 211.984C43.9515 221.413 58.0527 251.186 58.0527 251.186L82.1379 240.006C79.5095 231.559 76.2355 223.327 72.345 215.382C66.0517 202.893 52.8328 202.349 48.3627 211.984Z" fill="#C4EAD9"/>
<path d="M61.2886 213.911L55.8481 246.199C57.1421 249.244 58.0538 251.186 58.0538 251.186L82.139 240.006C82.139 240.006 71.258 221.192 61.2886 213.911Z" fill="#82BFA3"/>
<path d="M116.944 206.025C116.944 206.025 128.443 219.029 117.591 299.434H59.8188C59.4071 290.608 64.9799 247.287 56.4369 205.466C62.8228 204.236 69.2815 203.42 75.7727 203.024C83.9512 202.553 92.15 202.553 100.328 203.024C105.936 203.598 111.49 204.601 116.944 206.025Z" fill="#93D9B9"/>
<path d="M121.605 225.165L112.68 247.23L121.605 260.219C122.487 248.551 122.487 236.833 121.605 225.165Z" fill="#82BFA3"/>
<path d="M102.884 213.161C99.3259 222.869 113.618 252.319 113.618 252.319L139.497 239.271C136.182 230.444 131.933 221.996 126.822 214.073C119.073 202.746 106.796 202.555 102.884 213.161Z" fill="#C4EAD9"/>
<path d="M178.131 271.471L187.784 265.399L192.971 277.431C192.971 277.431 185.245 281.939 178.432 278.683L178.131 271.471Z" fill="#35176D"/>
<path d="M198.727 263.527L197.997 275.379L192.955 277.434L187.782 265.4L198.727 263.527Z" fill="#35176D"/>
<path d="M80.4045 164.896C78.934 175.502 77.4636 181.636 81.5955 188.124C87.8741 197.876 101.799 195.773 106.475 185.829C110.695 176.885 112.503 161.028 103.122 154.717C101.053 153.337 98.6686 152.504 96.1907 152.296C93.7127 152.089 91.2226 152.513 88.9532 153.53C86.6839 154.547 84.7093 156.123 83.2143 158.111C81.7192 160.099 80.7525 162.433 80.4045 164.896Z" fill="#35176D"/>
<path d="M121.162 147.068C112.016 138.61 119.25 136.462 119.25 136.462C119.25 136.462 109.222 132.314 113.192 141.199C118.736 153.585 103.208 149.775 95.768 141.199C91.1804 135.903 79.1083 141.331 79.6965 146.495C80.2847 151.658 61.3165 147.657 69.9036 158.925C70.0654 170.693 74.6383 182.137 80.7111 185.241C91.1216 190.551 98.9294 175.694 101.841 163.794C117.545 171.34 130.631 155.821 121.162 147.068Z" fill="#FFC20E"/>
<path d="M93.9006 170.884C93.9596 173.561 94.8945 176.145 96.562 178.239C98.7823 180.946 101.311 179.46 101.9 176.327C102.429 173.503 101.9 168.693 99.1058 167.119C96.3121 165.545 93.8859 167.678 93.9006 170.884Z" fill="#FFC20E"/>
<path d="M70.0065 147.907C74.7254 147.727 79.3541 149.234 83.0637 152.158C83.0637 152.158 80.4022 140.772 70.0065 147.907Z" fill="#FFC20E"/>
<path d="M92.2841 299.434C92.2841 299.434 94.4456 343.211 102.43 381.81C104.974 394.034 103.312 407.126 96.1512 417.35C75.1097 447.373 41.7463 487.355 41.7463 487.355L24.2632 485.398C24.2632 485.398 52.5685 432.898 67.0667 406.817C70.3604 400.933 73.2718 395.549 70.7868 389.165C46.7751 328.192 59.7587 299.434 59.7587 299.434H92.2841Z" fill="#E6AF0D"/>
<path d="M46.6722 484.693L43.2461 491.784L22.1752 486.37L23.8515 479.795L46.6722 484.693Z" fill="#CC9B0B"/>
<path d="M109.458 500.639H120.25L123.412 475.617H112.619L109.458 500.639Z" fill="#35176D"/>
<path d="M124.986 501.168C123.871 501.168 122.759 501.065 121.663 500.859C121.611 500.851 121.564 500.827 121.527 500.79C121.49 500.753 121.465 500.705 121.457 500.654C121.448 500.601 121.456 500.547 121.48 500.499C121.504 500.452 121.542 500.413 121.589 500.389C121.751 500.3 125.515 498.153 127.324 498.638C127.493 498.678 127.652 498.752 127.791 498.856C127.93 498.959 128.046 499.091 128.133 499.241C128.248 499.405 128.31 499.6 128.31 499.8C128.31 500 128.248 500.196 128.133 500.359C127.706 501.007 126.368 501.168 124.986 501.168ZM122.486 500.492C124.515 500.771 127.25 500.727 127.736 500.05C127.736 499.962 127.868 499.815 127.736 499.491C127.682 499.401 127.609 499.322 127.523 499.262C127.437 499.201 127.339 499.159 127.236 499.138C126.074 498.859 123.81 499.844 122.56 500.521L122.486 500.492Z" fill="#93D9B9"/>
<path d="M121.706 500.903C121.658 500.916 121.608 500.916 121.559 500.903C121.526 500.874 121.499 500.838 121.481 500.797C121.463 500.757 121.455 500.712 121.457 500.668C121.457 500.536 121.765 497.623 123.133 496.505C123.332 496.33 123.566 496.2 123.82 496.123C124.074 496.047 124.341 496.027 124.603 496.064C125.309 496.137 125.5 496.49 125.544 496.785C125.75 498.005 123.162 500.344 121.868 500.918L121.706 500.903ZM124.353 496.49C124.023 496.488 123.703 496.609 123.456 496.829C122.638 497.76 122.124 498.921 121.986 500.153C123.324 499.359 125.074 497.52 124.927 496.785C124.927 496.785 124.927 496.549 124.427 496.49H124.353Z" fill="#93D9B9"/>
<path d="M120.56 499.389H108.796C108.581 499.388 108.372 499.463 108.206 499.6C108.039 499.737 107.926 499.927 107.885 500.139L105.738 509.744C105.687 509.976 105.689 510.217 105.744 510.447C105.799 510.678 105.905 510.894 106.055 511.078C106.205 511.262 106.395 511.409 106.61 511.509C106.825 511.61 107.059 511.66 107.297 511.657C111.561 511.583 117.707 511.333 123.045 511.333C129.309 511.333 134.705 511.686 142.042 511.686C146.453 511.686 147.703 507.273 145.851 506.788C137.396 504.934 130.5 504.743 123.192 500.242C122.415 499.71 121.501 499.414 120.56 499.389Z" fill="#93D9B9"/>
<path d="M117.589 299.434C117.589 299.434 126.632 329.678 141.571 368.571C146.439 381.222 148.321 393.402 144.939 404.111C134.455 437.355 125.397 487.355 125.397 487.355L107.385 485.398C107.385 485.398 106.694 434.399 113.075 408.112C116.354 394.623 115.237 389.71 111.869 385.252C65.9927 324.191 78.3147 299.478 78.3147 299.478L117.589 299.434Z" fill="#FFC20E"/>
<path d="M128.513 484.297L127.572 491.475L106.31 487.871L105.678 481.311L128.513 484.297Z" fill="#CC9B0B"/>
</svg>
