<svg width="123" height="185" viewBox="0 0 123 185" fill="none" xmlns="http://www.w3.org/2000/svg">
<path d="M76.3851 153.098C76.3914 153.452 76.5045 153.795 76.71 154.085C76.9156 154.374 77.2042 154.597 77.539 154.724C77.8738 154.852 78.2395 154.878 78.5893 154.799C78.9392 154.721 79.2573 154.542 79.5029 154.284C81.1898 152.517 82.849 150.697 84.4285 148.87C84.7389 148.512 84.8919 148.047 84.8538 147.577C84.8157 147.107 84.5897 146.672 84.2256 146.366C83.8614 146.06 83.3888 145.91 82.9118 145.947C82.4348 145.984 81.9925 146.206 81.6821 146.565C80.1378 148.348 78.5252 150.126 76.8755 151.85C76.5521 152.186 76.3759 152.635 76.3851 153.098ZM89.2438 137.632C89.2502 138.007 89.3767 138.37 89.6053 138.669C89.8339 138.969 90.1529 139.19 90.5165 139.3C90.8802 139.41 91.2699 139.405 91.6299 139.284C91.99 139.163 92.3019 138.933 92.5211 138.627C93.9459 136.642 95.326 134.607 96.6229 132.578C96.8617 132.179 96.9333 131.705 96.8224 131.255C96.7115 130.806 96.4269 130.416 96.0291 130.17C95.6312 129.923 95.1515 129.839 94.6919 129.935C94.2322 130.032 93.8289 130.301 93.5676 130.685C92.3058 132.663 90.9627 134.653 89.5747 136.577C89.3526 136.885 89.2367 137.255 89.2438 137.632ZM87.3325 2.88904C87.3398 3.29202 87.4863 3.6806 87.7478 3.99076C89.3602 5.90381 90.8939 7.76976 92.3042 9.5352C92.4507 9.71856 92.6324 9.87178 92.8389 9.98605C93.0455 10.1003 93.2728 10.1734 93.508 10.2012C93.7432 10.2289 93.9817 10.2108 94.2097 10.1479C94.4378 10.0849 94.651 9.97836 94.8372 9.83427C95.0234 9.69017 95.1789 9.51139 95.2949 9.30809C95.4109 9.10479 95.4851 8.88098 95.5132 8.64944C95.5413 8.41788 95.5228 8.18313 95.4588 7.95856C95.3947 7.73401 95.2864 7.52405 95.1399 7.34068C93.7101 5.55132 92.157 3.65959 90.5233 1.72264C90.2846 1.4393 89.9623 1.236 89.6011 1.14084C89.2399 1.04568 88.8577 1.06336 88.5072 1.19146C88.1568 1.31956 87.8555 1.55175 87.645 1.85588C87.4346 2.16001 87.3254 2.52102 87.3325 2.88904ZM99.6659 120.494C99.6689 120.895 99.8098 121.284 100.066 121.596C100.321 121.908 100.677 122.126 101.075 122.214C101.472 122.302 101.888 122.255 102.255 122.08C102.622 121.905 102.918 121.614 103.094 121.252C104.191 119.078 105.234 116.852 106.193 114.639C106.286 114.424 106.335 114.194 106.337 113.96C106.339 113.727 106.295 113.496 106.206 113.279C106.118 113.063 105.987 112.866 105.821 112.699C105.655 112.533 105.457 112.4 105.239 112.309C105.021 112.217 104.787 112.169 104.55 112.167C104.313 112.165 104.078 112.208 103.858 112.296C103.638 112.383 103.438 112.512 103.269 112.675C103.1 112.838 102.965 113.033 102.873 113.247C101.944 115.397 100.932 117.558 99.8665 119.673C99.7338 119.925 99.665 120.205 99.6658 120.489L99.6659 120.494ZM99.6245 18.8094C99.6304 19.152 99.7375 19.4856 99.9329 19.7693C101.327 21.7983 102.625 23.8066 103.79 25.7389C104.034 26.1439 104.432 26.4367 104.895 26.5531C105.359 26.6694 105.85 26.5997 106.262 26.3594C106.673 26.119 106.97 25.7276 107.088 25.2713C107.206 24.815 107.135 24.3311 106.891 23.9262C105.69 21.9348 104.348 19.8637 102.922 17.7812C102.704 17.4634 102.388 17.2235 102.02 17.0974C101.653 16.9712 101.254 16.9656 100.882 17.0813C100.511 17.197 100.188 17.4278 99.9615 17.7393C99.7348 18.0508 99.6166 18.4262 99.6245 18.8094ZM107.167 101.929C107.177 102.35 107.338 102.754 107.622 103.068C107.905 103.383 108.293 103.588 108.716 103.648C109.139 103.708 109.57 103.618 109.932 103.394C110.294 103.17 110.563 102.827 110.692 102.426C111.454 100.049 112.162 97.7186 112.801 95.5C112.932 95.0468 112.874 94.5611 112.64 94.1497C112.407 93.7384 112.017 93.4352 111.556 93.3068C111.096 93.1784 110.603 93.2353 110.185 93.465C109.767 93.6946 109.459 94.0783 109.329 94.5315C108.701 96.7145 108.001 99.0126 107.251 101.358C107.191 101.543 107.162 101.736 107.167 101.929ZM109.414 36.2891C109.418 36.51 109.464 36.7282 109.549 36.9327C110.455 39.0881 111.249 41.2869 111.929 43.5208C112.066 43.9722 112.379 44.3519 112.8 44.5762C113.221 44.8004 113.714 44.851 114.173 44.7167C114.631 44.5825 115.017 44.2744 115.245 43.8602C115.472 43.4461 115.523 42.9598 115.387 42.5084C114.672 40.1584 113.837 37.8455 112.885 35.5789C112.725 35.1958 112.434 34.8799 112.062 34.6857C111.69 34.4916 111.261 34.4314 110.849 34.5157C110.438 34.6 110.069 34.8234 109.806 35.1472C109.544 35.4711 109.406 35.875 109.414 36.2891ZM112.377 82.6027C112.388 83.0386 112.561 83.4555 112.863 83.774C113.166 84.0925 113.577 84.2905 114.018 84.3303C114.459 84.3701 114.899 84.249 115.255 83.9899C115.611 83.7308 115.858 83.3519 115.949 82.9252C116.46 80.4624 116.892 78.0533 117.23 75.7542C117.299 75.2882 117.176 74.8143 116.89 74.4369C116.604 74.0594 116.177 73.8093 115.704 73.7416C115.231 73.6738 114.749 73.7939 114.366 74.0755C113.983 74.3571 113.729 74.7771 113.66 75.2431C113.323 77.4712 112.912 79.8165 112.413 82.2118C112.387 82.3405 112.375 82.4715 112.377 82.6027ZM114.331 55.5928L114.334 55.7309C114.555 57.9994 114.662 60.3447 114.656 62.7219C114.673 63.1801 114.87 63.6141 115.204 63.9331C115.539 64.252 115.986 64.4311 116.452 64.4329C116.918 64.4347 117.366 64.259 117.703 63.9426C118.04 63.6262 118.24 63.1937 118.26 62.7356C118.27 60.2407 118.166 57.7797 117.931 55.3937C117.893 54.9324 117.672 54.504 117.318 54.2C116.963 53.896 116.502 53.7404 116.032 53.7664C115.563 53.7923 115.122 53.9978 114.804 54.339C114.487 54.6801 114.317 55.13 114.331 55.5928Z" fill="#FFEAAB"/>
<path fill-rule="evenodd" clip-rule="evenodd" d="M80.8078 137.956C81.3385 137.568 81.5508 137.965 81.761 138.354C83.5958 141.744 85.417 145.142 87.2734 148.52C87.5581 149.039 87.4417 149.337 87.0828 149.724C82.4308 154.697 77.7893 159.68 73.1584 164.675C72.8109 165.031 72.3561 165.258 71.8668 165.321L18.5139 175.681L1.32502 179.018C1.03245 179.077 0.725516 179.08 0.427136 179.109C0.465756 178.346 1.10605 178.258 1.60897 178.01C6.24236 175.733 10.8248 173.363 15.4225 170.998C21.3475 167.96 27.3202 165.022 33.2309 161.964C37.1749 159.924 41.201 158.054 45.1166 155.973C49.7793 153.492 54.5395 151.186 59.2209 148.775C62.3847 147.149 65.5538 145.535 68.7282 143.931C71.6673 142.451 74.642 141.058 77.5128 139.433C78.5753 138.83 79.7181 138.462 80.8078 137.956Z" fill="#FFC20E"/>
<path fill-rule="evenodd" clip-rule="evenodd" d="M1.64922 178.238C1.19255 178.455 0.698033 178.617 0.42839 179.105C0.235634 179.11 -0.119917 179.215 0.0742581 178.843C0.330746 178.44 0.622718 178.06 0.946559 177.71C3.56694 174.796 6.34112 172.029 9.06138 169.214C12.0021 166.176 14.9329 163.133 17.8934 160.11C21.0941 156.842 24.2584 153.534 27.4445 150.252C30.7647 146.831 34.1044 143.431 37.4026 139.99C40.0657 137.212 42.7401 134.449 45.4254 131.701C49.1505 127.87 52.8529 124.027 56.5788 120.182C57.3305 119.357 58.1256 118.573 58.9606 117.835C59.1865 117.647 59.3663 117.372 59.7333 117.405C59.972 117.949 59.6601 118.487 59.8068 119.009L59.2686 141.835C59.38 142.302 59.0024 142.427 58.7261 142.59C53.0999 146.085 47.4947 149.613 41.8755 153.12C36.5489 156.45 31.2632 159.832 25.9347 163.152C19.2737 167.3 12.6313 171.48 5.99365 175.666C4.57069 176.562 3.07155 177.314 1.64734 178.228" fill="#B3880A"/>
<path fill-rule="evenodd" clip-rule="evenodd" d="M59.8132 119.014C59.525 118.585 59.8334 118.1 59.6507 117.572C57.7186 119.23 56.0748 121.121 54.3215 122.901C51.7084 125.555 49.1516 128.26 46.5603 130.936C42.8485 134.765 39.1333 138.592 35.4146 142.419C32.1016 145.835 28.7927 149.254 25.4879 152.678C21.2214 157.095 16.9549 161.512 12.6885 165.929C9.40166 169.317 6.10102 172.692 2.78653 176.053C2.20867 176.639 1.81494 177.462 0.93992 177.714C3.97021 173.685 7.0015 169.655 10.0338 165.624C19.3603 153.308 28.6825 140.994 38.0002 128.682C39.1885 127.105 40.8222 126.093 42.3096 124.898C45.9314 121.979 49.5971 119.138 53.2254 116.238C53.4157 116.055 53.6501 115.926 53.9049 115.865C54.1597 115.804 54.4258 115.812 54.6764 115.888C55.888 116.235 57.1185 116.494 58.3377 116.804C60.03 117.231 60.0296 117.237 59.8026 119.016" fill="#FFC20E"/>
<path fill-rule="evenodd" clip-rule="evenodd" d="M1.64849 178.24C3.13051 176.815 4.99335 175.988 6.6914 174.905C12.5732 171.148 18.474 167.417 24.3938 163.712C29.628 160.433 34.895 157.207 40.1341 153.931C46.0487 150.228 51.9525 146.504 57.8455 142.76C58.3209 142.457 58.9567 142.398 59.2677 141.836C62.2559 141.512 65.1749 140.788 68.1297 140.268C72.3632 139.52 76.5838 138.735 80.8123 137.947C79.6158 138.955 78.1129 139.42 76.7648 140.133C72.411 142.427 67.9975 144.603 63.6072 146.823C58.6651 149.319 53.6889 151.745 48.8009 154.327C45.0858 156.287 41.3234 158.141 37.5858 160.049C32.5593 162.615 27.5255 165.174 22.4845 167.725C18.4699 169.771 14.4737 171.851 10.4409 173.858C7.51357 175.318 4.66809 176.952 1.64938 178.226" fill="#CC9B0B"/>
</svg>
