<svg width="221" height="112" viewBox="0 0 221 112" fill="none" xmlns="http://www.w3.org/2000/svg">
<path fill-rule="evenodd" clip-rule="evenodd" d="M140.409 55.0697C139.966 54.5838 139.68 54.9311 139.396 55.271C136.927 58.2313 134.47 61.2011 131.981 64.1456C131.6 64.5974 131.655 64.9127 131.93 65.3632C135.506 71.1579 139.07 76.9616 142.621 82.7742C142.891 83.1915 143.292 83.5042 143.759 83.6624L194.007 104.375L210.196 111.047C210.471 111.163 210.771 111.226 211.058 111.315C211.171 110.559 210.56 110.346 210.117 110.004C206.025 106.854 202.003 103.624 197.964 100.397C192.757 96.2457 187.484 92.1841 182.295 88.0168C178.833 85.2373 175.256 82.6074 171.83 79.7928C167.75 76.4381 163.54 73.2361 159.429 69.9462C156.649 67.7267 153.862 65.5168 151.068 63.3165C148.48 61.2841 145.84 59.3298 143.347 57.1693C142.425 56.368 141.378 55.7814 140.409 55.0697Z" fill="#FFC20E"/>
<path fill-rule="evenodd" clip-rule="evenodd" d="M210.032 110.219C210.437 110.522 210.889 110.778 211.057 111.31C211.245 111.354 211.573 111.527 211.456 111.124C211.285 110.677 211.073 110.248 210.825 109.84C208.833 106.465 206.662 103.204 204.552 99.9063C202.271 96.3469 200 92.7836 197.696 89.2345C195.206 85.3979 192.758 81.5297 190.285 77.682C187.707 73.6719 185.106 69.6773 182.554 65.652C180.493 62.4023 178.419 59.1649 176.33 55.9399C173.437 51.4473 170.568 46.9473 167.677 42.4416C167.103 41.4838 166.479 40.5584 165.806 39.6694C165.622 39.4407 165.5 39.1351 165.134 39.0949C164.792 39.5812 164.992 40.1705 164.744 40.6533L160.755 63.134C160.554 63.5696 160.899 63.7665 161.138 63.9811C165.961 68.5205 170.757 73.0882 175.572 77.6371C180.134 81.9562 184.646 86.3165 189.212 90.6254C194.921 96.0092 200.604 101.421 206.282 106.838C207.5 107.997 208.821 109.032 210.036 110.209" fill="#B3880A"/>
<path fill-rule="evenodd" clip-rule="evenodd" d="M164.737 40.6567C165.105 40.2933 164.898 39.7562 165.182 39.2755C166.748 41.2825 167.985 43.4614 169.351 45.5537C171.388 48.6718 173.359 51.8292 175.369 54.9652C178.25 59.4526 181.134 63.9396 184.022 68.4262C186.594 72.4302 189.16 76.4371 191.723 80.447C195.031 85.621 198.339 90.7951 201.647 95.9692C204.198 99.9404 206.766 103.901 209.35 107.852C209.8 108.541 210.023 109.426 210.831 109.845C208.658 105.297 206.484 100.747 204.309 96.1947C197.604 82.2773 190.903 68.3621 184.206 54.4493C183.353 52.669 181.952 51.353 180.73 49.8881C177.758 46.3094 174.727 42.8 171.744 39.2387C171.594 39.0218 171.39 38.8494 171.152 38.7389C170.914 38.6283 170.652 38.5835 170.391 38.609C169.135 38.7093 167.877 38.7192 166.621 38.7822C164.877 38.8662 164.877 38.8715 164.747 40.6607" fill="#FFC20E"/>
<path fill-rule="evenodd" clip-rule="evenodd" d="M210.032 110.22C208.861 108.531 207.199 107.351 205.749 105.954C200.727 101.108 195.681 96.2828 190.611 91.4795C186.13 87.2298 181.605 83.0251 177.118 78.7773C172.053 73.9765 167.003 69.1581 161.967 64.3221C161.561 63.9313 160.95 63.7473 160.756 63.1348C157.891 62.2266 155.173 60.9393 152.38 59.844C148.378 58.2736 144.396 56.6686 140.407 55.0601C141.38 56.285 142.761 57.0378 143.942 58.0032C147.756 61.1132 151.651 64.1198 155.515 67.1647C159.866 70.5896 164.264 73.9518 168.544 77.4498C171.798 80.1063 175.119 82.6682 178.405 85.2784C182.824 88.7886 187.252 92.2928 191.689 95.7911C195.219 98.5902 198.725 101.421 202.281 104.186C204.861 106.196 207.327 108.361 210.034 110.207" fill="#CC9B0B"/>
<path d="M152.444 62.5584C152.796 62.592 153.15 62.5183 153.461 62.3467C153.772 62.1751 154.025 61.9135 154.19 61.5952C154.354 61.2769 154.421 60.9165 154.383 60.56C154.344 60.2035 154.202 59.8672 153.974 59.5941C152.408 57.7189 150.786 55.865 149.15 54.0896C148.828 53.7408 148.383 53.5363 147.913 53.5212C147.442 53.5061 146.983 53.6815 146.639 54.0089C146.294 54.3363 146.091 54.7889 146.074 55.267C146.057 55.7452 146.228 56.2098 146.549 56.5586C148.147 58.294 149.732 60.0969 151.258 61.9304C151.557 62.2897 151.982 62.5152 152.444 62.5584ZM138.526 48.038C138.899 48.0739 139.274 47.9891 139.597 47.7957C139.921 47.6024 140.176 47.3103 140.327 46.9615C140.477 46.6126 140.516 46.2247 140.436 45.8533C140.357 45.4819 140.163 45.146 139.884 44.8937C138.073 43.2543 136.205 41.6535 134.336 40.1362C133.967 39.854 133.504 39.7294 133.044 39.7888C132.585 39.8483 132.166 40.0872 131.876 40.4547C131.586 40.8222 131.449 41.2894 131.493 41.7569C131.536 42.2245 131.758 42.6556 132.111 42.9586C133.933 44.4353 135.76 45.9942 137.515 47.5902C137.796 47.8456 138.15 48.0026 138.526 48.038ZM4.4265 34.7461C4.82773 34.7842 5.23035 34.6825 5.56802 34.4576C7.65067 33.0712 9.67761 31.7577 11.5908 30.5553C11.7895 30.4305 11.9622 30.2672 12.0991 30.0749C12.2359 29.8825 12.3341 29.6649 12.3882 29.4343C12.4424 29.2037 12.4512 28.9647 12.4144 28.731C12.3776 28.4973 12.2957 28.2734 12.1735 28.0722C12.0514 27.8709 11.8912 27.6963 11.7023 27.5581C11.5134 27.4199 11.2994 27.321 11.0725 27.267C10.8456 27.2129 10.6102 27.2048 10.3799 27.2431C10.1495 27.2815 9.92869 27.3654 9.72997 27.4903C7.79083 28.7092 5.73606 30.0392 3.62728 31.4441C3.31883 31.6493 3.08048 31.9466 2.94521 32.2948C2.80993 32.643 2.7844 33.0248 2.87218 33.3874C2.95996 33.7501 3.15669 34.0756 3.43516 34.319C3.71362 34.5624 4.06004 34.7117 4.4265 34.7461ZM122.672 35.7502C123.071 35.7924 123.473 35.6962 123.812 35.4772C124.151 35.2582 124.408 34.9294 124.54 34.5443C124.672 34.1592 124.672 33.7405 124.54 33.3564C124.408 32.9724 124.151 32.6456 123.812 32.4292C121.775 31.0942 119.681 29.8072 117.59 28.6042C117.387 28.4879 117.164 28.4134 116.932 28.3849C116.701 28.3564 116.466 28.3745 116.241 28.4382C116.016 28.5019 115.805 28.6099 115.621 28.756C115.437 28.9022 115.283 29.0836 115.167 29.2899C115.052 29.4963 114.978 29.7236 114.949 29.9587C114.92 30.1939 114.937 30.4324 114.999 30.6605C115.06 30.8887 115.166 31.1021 115.309 31.2885C115.452 31.4749 115.631 31.6307 115.833 31.747C117.864 32.9119 119.898 34.1609 121.879 35.4582C122.114 35.6185 122.384 35.7185 122.667 35.7497L122.672 35.7502ZM21.6312 24.3273C21.9723 24.3601 22.3158 24.2913 22.6197 24.1291C24.793 22.9722 26.9348 21.9095 28.9861 20.9697C29.416 20.7726 29.7519 20.4105 29.9197 19.963C30.0876 19.5155 30.0738 19.0194 29.8813 18.5837C29.6888 18.148 29.3334 17.8085 28.8933 17.6398C28.4532 17.4711 27.9644 17.4871 27.5346 17.6842C25.4205 18.6524 23.2113 19.7526 20.9813 20.9346C20.641 21.1152 20.367 21.4025 20.2002 21.7536C20.0334 22.1048 19.9827 22.5008 20.0559 22.8826C20.129 23.2644 20.322 23.6114 20.6059 23.8718C20.8899 24.1322 21.2495 24.292 21.6312 24.3273ZM105.072 26.2043C105.491 26.2418 105.91 26.1271 106.254 25.8806C106.599 25.6342 106.847 25.2719 106.954 24.8582C107.061 24.4445 107.02 24.0064 106.839 23.6216C106.657 23.2368 106.347 22.9304 105.963 22.757C103.686 21.7327 101.451 20.7656 99.3184 19.8807C98.8827 19.7002 98.3936 19.703 97.9586 19.8886C97.5236 20.0742 97.1783 20.4274 96.9988 20.8704C96.8193 21.3134 96.8202 21.81 97.0013 22.2509C97.1825 22.6919 97.529 23.041 97.9647 23.2215C100.063 24.0918 102.267 25.0464 104.514 26.0564C104.69 26.1367 104.879 26.1866 105.072 26.2043ZM40.1031 16.5709C40.3231 16.5914 40.5451 16.5703 40.7579 16.5088C43.0015 15.8524 45.2759 15.3111 47.5723 14.8869C48.0362 14.8021 48.4488 14.5338 48.719 14.141C48.9893 13.7482 49.0953 13.2631 49.0135 12.7924C48.9318 12.3217 48.6692 11.904 48.2833 11.6311C47.8975 11.3583 47.42 11.2526 46.9561 11.3374C44.5405 11.7822 42.1483 12.3512 39.7887 13.0422C39.39 13.1581 39.0433 13.4118 38.8085 13.7592C38.5736 14.1066 38.4655 14.526 38.5029 14.9447C38.5402 15.3635 38.7205 15.7552 39.0128 16.0522C39.305 16.3491 39.6907 16.5326 40.1031 16.5709ZM86.4555 18.8482C86.8898 18.8867 87.3235 18.7617 87.6741 18.497C88.0247 18.2324 88.2678 17.8465 88.3571 17.4128C88.4463 16.9791 88.3756 16.5278 88.1583 16.1448C87.941 15.7618 87.5924 15.4738 87.1786 15.3355C84.7892 14.5501 82.4442 13.8489 80.1978 13.2542C79.7425 13.1334 79.2578 13.2014 78.8505 13.4432C78.4432 13.6851 78.1466 14.0808 78.0259 14.5435C77.9052 15.0063 77.9703 15.498 78.2069 15.9106C78.4435 16.3231 78.8322 16.6227 79.2875 16.7435C81.4634 17.3297 83.7474 18.0023 86.0712 18.7682C86.1961 18.8085 86.3249 18.8353 86.4555 18.8482ZM59.8381 13.8612L59.9756 13.8741C62.2546 13.9101 64.597 14.0682 66.9583 14.3424C67.4156 14.377 67.869 14.2307 68.2236 13.934C68.5783 13.6374 68.8067 13.2134 68.8609 12.7508C68.9152 12.2882 68.7912 11.8229 68.5148 11.4524C68.2385 11.0819 67.8312 10.8348 67.3783 10.763C64.9004 10.4721 62.4434 10.2974 60.0462 10.2618C59.5834 10.2482 59.133 10.4187 58.7909 10.737C58.4489 11.0552 58.2422 11.496 58.2151 11.9654C58.188 12.4348 58.3425 12.8957 58.6456 13.2498C58.9488 13.6039 59.3767 13.8233 59.8381 13.8612Z" fill="#FFEAAB"/>
</svg>
